<?xml version="1.0" encoding="UTF-8"?>
<svg version="1.1" xmlns="http://www.w3.org/2000/svg" width="303" height="302">
<path d="M0 0 C99.99 0 199.98 0 303 0 C303 99.66 303 199.32 303 302 C203.01 302 103.02 302 0 302 C0 202.34 0 102.68 0 0 Z " fill="#010001" transform="translate(0,0)"/>
<path d="M0 0 C0.66 0 1.32 0 2 0 C0.82574796 28.42926003 0.82574796 28.42926003 -1.50219727 36.80737305 C-2.14579623 39.64217555 -2.29336942 42.40284651 -2.46484375 45.3046875 C-2.58182617 47.13966797 -2.58182617 47.13966797 -2.70117188 49.01171875 C-2.8582334 51.57922042 -3.01190091 54.14693204 -3.16210938 56.71484375 C-3.28102539 58.55369141 -3.28102539 58.55369141 -3.40234375 60.4296875 C-3.46929443 61.54585449 -3.53624512 62.66202148 -3.60522461 63.81201172 C-4 67 -4 67 -6 73 C-6.66 77.29 -7.32 81.58 -8 86 C4.54 86 17.08 86 30 86 C28.47900301 89.80249246 26.91844923 93.12475543 24.953125 96.68359375 C24.35798096 97.77003174 23.76283691 98.85646973 23.1496582 99.97583008 C22.522771 101.11818115 21.89588379 102.26053223 21.25 103.4375 C16.79223383 111.60392648 12.5203974 119.69566655 9.11328125 128.36328125 C7.96242947 131.08898283 6.52505653 133.4689695 5 136 C4.31728581 137.66015769 3.65251401 139.32774174 3 141 C2.28602949 142.72930438 1.56828209 144.45705214 0.84765625 146.18359375 C0.18854248 147.76309814 0.18854248 147.76309814 -0.48388672 149.37451172 C-1.87941763 152.71165085 -3.27692334 156.04795316 -4.67520142 159.38394165 C-5.97353811 162.48269175 -7.26997908 165.58223327 -8.56616211 168.68188477 C-9.23129195 170.27112296 -9.89731019 171.85998963 -10.56420898 173.44848633 C-14.24969973 182.22918384 -17.88844457 190.99469056 -21 200 C-21.66 200 -22.32 200 -23 200 C-23.77242646 194.9377416 -24.54290993 189.87519016 -25.3125 184.8125 C-25.42704529 184.05969757 -25.54159058 183.30689514 -25.65960693 182.53128052 C-27.03179155 173.5065834 -28.37163918 164.47960308 -29.625 155.4375 C-30.65793224 147.98646891 -31.95186274 140.6215988 -33.44921875 133.25 C-34.39186388 127.6877252 -34.39186388 127.6877252 -34 125 C-32.3125 123.19140625 -32.3125 123.19140625 -30 121.5625 C-29.18144531 120.97339844 -28.36289063 120.38429688 -27.51953125 119.77734375 C-26.68808594 119.19082031 -25.85664063 118.60429687 -25 118 C-23.56075262 116.87723634 -22.12311529 115.7524041 -20.6875 114.625 C-18.10081621 112.59686638 -16.17181574 111.76176113 -13 111 C-12.38125 110.38125 -11.7625 109.7625 -11.125 109.125 C-8.65685561 106.65685561 -6.15899632 105.43590742 -3 104 C-8.08521509 104.71257791 -12.84204326 106.04554004 -17.75 107.5 C-27.08555567 110.21701971 -36.46227782 112.76501595 -45.85974121 115.25756836 C-47.41167064 115.66921339 -48.96334763 116.08181131 -50.51477051 116.49536133 C-52.7109567 117.08036906 -54.90803797 117.66187453 -57.10546875 118.2421875 C-57.77227158 118.42002777 -58.4390744 118.59786804 -59.12608337 118.78109741 C-63.76998102 120 -63.76998102 120 -66 120 C-64.78065514 115.96678237 -63.44045073 112.45730521 -61 109 C-60.34 109 -59.68 109 -59 109 C-58.87625 108.0925 -58.7525 107.185 -58.625 106.25 C-58.07500738 103.39003836 -57.53636103 101.44010282 -56 99 C-55.01 98.505 -55.01 98.505 -54 98 C-53.11013362 96.13097255 -53.11013362 96.13097255 -52.3125 93.8125 C-49.69809573 86.96335726 -46.34190214 80.51483169 -43 74 C-42.34 74 -41.68 74 -41 74 C-40.90017822 73.30237549 -40.80035645 72.60475098 -40.69750977 71.88598633 C-39.87804956 68.49542313 -38.51325008 65.88459248 -36.83984375 62.82421875 C-36.21142578 61.66728516 -35.58300781 60.51035156 -34.93554688 59.31835938 C-34.2696741 58.10799432 -33.60365665 56.89770884 -32.9375 55.6875 C-32.26697322 54.458012 -31.5970449 53.22819741 -30.92773438 51.99804688 C-29.29101531 48.99543277 -27.64826037 45.99628943 -26 43 C-25.34 43 -24.68 43 -24 43 C-23.88390381 42.26821533 -23.76780762 41.53643066 -23.64819336 40.7824707 C-22.98947018 37.95479912 -22.07445905 35.98528828 -20.62890625 33.48046875 C-20.14139893 32.63000977 -19.6538916 31.77955078 -19.15161133 30.90332031 C-18.62720459 30.00709961 -18.10279785 29.11087891 -17.5625 28.1875 C-16.76138794 26.80256348 -16.76138794 26.80256348 -15.9440918 25.38964844 C-2.80134677 2.80134677 -2.80134677 2.80134677 0 0 Z " fill="#D90808" transform="translate(170,16)"/>
<path d="M0 0 C-1.3914352 3.53309123 -2.87579696 6.84327296 -5 10 C-8.25 11.125 -8.25 11.125 -12 11 C-13.64586262 11.01837486 -15.29169908 11.03924693 -16.9375 11.0625 C-18.29173445 11.04667422 -19.64595503 11.02763357 -21 11 C-21 11.66 -21 12.32 -21 13 C-21.87398437 13.14695312 -21.87398437 13.14695312 -22.765625 13.296875 C-48.00275828 17.89987415 -71.07905923 31.80314943 -87 52 C-87.76957031 52.92039062 -87.76957031 52.92039062 -88.5546875 53.859375 C-92.02855065 58.18010031 -94.1943587 62.38040199 -96.04296875 67.60546875 C-97 70 -97 70 -98.48046875 72.40625 C-100.18471734 75.31530158 -101.14450644 78.08922394 -102.125 81.3125 C-102.45757812 82.38113281 -102.79015625 83.44976562 -103.1328125 84.55078125 C-107.93261833 103.64190083 -107.63961106 128.88332966 -99.79833984 147.02783203 C-98.58770447 150.01850866 -97.72295132 153.11220452 -96.8371582 156.21264648 C-96.560896 156.80247314 -96.28463379 157.3922998 -96 158 C-95.01 158.33 -94.02 158.66 -93 159 C-91.49257103 161.01574804 -90.11116328 163.01500774 -88.75 165.125 C-85.70505913 169.69148089 -82.6485264 173.70506722 -78.609375 177.45703125 C-76.9356664 179.06167906 -75.51774056 180.75909704 -74.0625 182.5625 C-70.02047033 187.34628512 -65.3948577 190.97996802 -59.625 193.4375 C-56.36625782 194.84213025 -54.08455634 196.29602729 -51.25 198.375 C-46.14936823 202.07099625 -40.80680714 204.60441606 -35 207 C-35 207.66 -35 208.32 -35 209 C-33.80117187 209.37705078 -33.80117187 209.37705078 -32.578125 209.76171875 C-28.22103181 211.26957742 -23.9954142 213.01765325 -19.75 214.8125 C-18.90969238 215.16707275 -18.06938477 215.52164551 -17.20361328 215.88696289 C-1.37967382 222.62032618 -1.37967382 222.62032618 1 225 C1.0927833 226.38160115 1.11747043 227.76788038 1.11352539 229.15258789 C1.11341209 230.47384422 1.11341209 230.47384422 1.11329651 231.8217926 C1.10813522 232.77907761 1.10297394 233.73636261 1.09765625 234.72265625 C1.0962413 235.69786728 1.09482635 236.67307831 1.09336853 237.67784119 C1.08775133 240.80609143 1.07519593 243.93427123 1.0625 247.0625 C1.05748722 249.17773334 1.05292393 251.29296781 1.04882812 253.40820312 C1.03777631 258.60549296 1.02102146 263.80274145 1 269 C-3.52774556 268.24078884 -5.97378451 266.83436674 -9.625 264 C-10.14715088 263.59628174 -10.66930176 263.19256348 -11.20727539 262.77661133 C-12.81326074 261.52805047 -14.40751667 260.2657179 -16 259 C-16.91394531 258.28199219 -17.82789063 257.56398438 -18.76953125 256.82421875 C-24.4779169 252.25249554 -29.90232321 247.4247609 -35.23413086 242.42456055 C-38.03178984 239.80128018 -40.86550926 237.24312967 -43.7734375 234.7421875 C-48.69965978 230.45120873 -53.32159601 225.87027263 -57.9375 221.25 C-58.8248584 220.36183594 -59.7122168 219.47367188 -60.62646484 218.55859375 C-66.50453285 212.62514398 -71.8885793 206.60441174 -77 200 C-78.64138044 198.05872623 -80.28745957 196.12141835 -81.9375 194.1875 C-93.36009421 180.46267751 -102.78175675 165.97494564 -109.5 149.375 C-109.85078613 148.5092334 -110.20157227 147.6434668 -110.56298828 146.75146484 C-112.09827987 142.82226423 -113 140.30031228 -113 136 C-113.66 136 -114.32 136 -115 136 C-116.97799981 127.27560797 -117.19252636 118.72297874 -117.1875 109.8125 C-117.18814453 108.7085791 -117.18878906 107.6046582 -117.18945312 106.46728516 C-117.12243292 96.29696878 -116.42930641 87.17268266 -113.1875 77.5 C-112.91470215 76.66976318 -112.6419043 75.83952637 -112.36083984 74.98413086 C-111.58673201 72.6515073 -110.79576618 70.32530467 -110 68 C-109.66871094 67.00097656 -109.33742188 66.00195312 -108.99609375 64.97265625 C-101.42382301 44.02157533 -83.72170008 29.21345773 -66 17 C-65.1853125 16.43410156 -64.370625 15.86820313 -63.53125 15.28515625 C-59.70372585 12.74574119 -56.69721216 11.35229091 -52 11 C-52 10.34 -52 9.68 -52 9 C-34.61046535 2.70079402 -18.468847 -0.16671978 0 0 Z " fill="#DD0A15" transform="translate(149,15)"/>
<path d="M0 0 C2.87448676 -0.32370346 5.61377768 -0.18789148 8.50146484 -0.0871582 C9.32598145 -0.058396 10.15049805 -0.02963379 11 0 C11.36209858 7.88091284 10.4750736 14.72428557 8.375 22.3125 C7.97220825 23.81091431 7.97220825 23.81091431 7.5612793 25.33959961 C4.7538265 35.44888161 0.71611612 44.637327 -4 54 C-4.66 54 -5.32 54 -6 54 C-6.309375 54.99 -6.309375 54.99 -6.625 56 C-8.21565338 59.47051646 -10.29232771 62.15710621 -12.66015625 65.1328125 C-14.18614683 67.06483629 -14.18614683 67.06483629 -15 70 C-15.66 70 -16.32 70 -17 70 C-17 70.66 -17 71.32 -17 72 C-17.66 72 -18.32 72 -19 72 C-19.21527344 72.69738281 -19.43054688 73.39476562 -19.65234375 74.11328125 C-21.35175392 77.75346709 -23.80618091 80.33272572 -26.5625 83.1875 C-27.6620927 84.34966053 -28.7610467 85.51242569 -29.859375 86.67578125 C-30.39884766 87.24377441 -30.93832031 87.81176758 -31.49414062 88.39697266 C-33.48266616 90.51381096 -35.39671905 92.6923259 -37.3125 94.875 C-46.10285871 104.65447349 -55.33254692 113.96033711 -65.66796875 122.1015625 C-67.71265826 123.76608361 -69.50418268 125.46347846 -71.3125 127.375 C-76.13971955 132.37627794 -81.80028109 136.43710582 -87.29150391 140.671875 C-89.72122779 142.56065721 -92.10968784 144.49921359 -94.5 146.4375 C-103.95700719 154 -103.95700719 154 -108 154 C-108.02683987 151.02077407 -108.04676037 148.04178705 -108.0625 145.0625 C-108.07506836 143.78729492 -108.07506836 143.78729492 -108.08789062 142.48632812 C-108.09111328 141.67744141 -108.09433594 140.86855469 -108.09765625 140.03515625 C-108.10289307 139.2862915 -108.10812988 138.53742676 -108.11352539 137.76586914 C-108 136 -108 136 -107 135 C-106.97911506 132.49380706 -107.00748461 130.00460378 -107.0625 127.5 C-107.11968722 121.36530884 -106.99098444 115.87340409 -105 110 C-101.98345915 107.19385471 -98.62284842 105.91943575 -94.80078125 104.4765625 C-92.98610352 103.78046875 -92.98610352 103.78046875 -91.13476562 103.0703125 C-89.23119723 102.34918625 -87.32676661 101.63038015 -85.42211914 100.91210938 C-78.55535838 98.31324671 -71.95479316 95.7048589 -65.66088867 91.89599609 C-64 91 -64 91 -62 91 C-62 90.34 -62 89.68 -62 89 C-58.535 88.01 -58.535 88.01 -55 87 C-55 86.34 -55 85.68 -55 85 C-52.60895971 83.44946499 -50.2095596 81.99666652 -47.75 80.5625 C-39.91309518 75.83094805 -33.42337049 70.49233305 -27 64 C-26.32453125 63.34644531 -25.6490625 62.69289062 -24.953125 62.01953125 C-19.41076984 56.26872468 -16.31353725 49.17093776 -13 42 C-12.34 42 -11.68 42 -11 42 C-11 40.35 -11 38.7 -11 37 C-10.34 37 -9.68 37 -9 37 C-8.9175 36.05125 -8.835 35.1025 -8.75 34.125 C-8.31915783 30.97797892 -7.38816316 28.50301966 -6.0625 25.625 C-3.71262504 20.13630289 -3.18201846 14.6941794 -2.68383789 8.80126953 C-2.35426082 5.11924292 -2.0924718 3.13870771 0 0 Z " fill="#054E74" transform="translate(259,130)"/>
<path d="M0 0 C4.45786773 0.51835671 7.2255816 1.6409885 11 4 C12.33417969 4.41572266 12.33417969 4.41572266 13.6953125 4.83984375 C17.55945159 6.19640322 20.86115882 8.04897275 24.375 10.125 C25.01566406 10.49753906 25.65632813 10.87007812 26.31640625 11.25390625 C27.88048477 12.16434002 29.44065534 13.08148191 31 14 C31 14.66 31 15.32 31 16 C31.72445312 16.25265625 32.44890625 16.5053125 33.1953125 16.765625 C36.20830588 18.09167779 38.33913389 19.65973337 40.875 21.75 C41.74511719 22.46671875 42.61523438 23.1834375 43.51171875 23.921875 C44.33285156 24.60765625 45.15398437 25.2934375 46 26 C46.64582031 26.52078125 47.29164063 27.0415625 47.95703125 27.578125 C67.25803991 43.43719307 80.39188627 69.35666897 83 94 C83.13227528 97.35538303 83.09881739 100.64020859 83 104 C79.37 104 75.74 104 72 104 C71.938125 102.205625 71.87625 100.41125 71.8125 98.5625 C69.80480148 73.85442353 56.25184119 51.30463196 38 35 C31.69334328 29.71713867 25.21182297 24.97330624 18 21 C18 20.34 18 19.68 18 19 C17.31550781 18.89816406 16.63101563 18.79632813 15.92578125 18.69140625 C12.41730374 17.86230008 9.44244474 16.4827768 6.1875 14.9375 C5.02605469 14.38964844 3.86460937 13.84179688 2.66796875 13.27734375 C1.78753906 12.85582031 0.90710938 12.43429688 0 12 C0 8.04 0 4.08 0 0 Z " fill="#E20310" transform="translate(187,20)"/>
<path d="M0 0 C4.62 0 9.24 0 14 0 C14.2475 0.886875 14.495 1.77375 14.75 2.6875 C14.94078125 3.33203125 15.1315625 3.9765625 15.328125 4.640625 C15.8145783 6.34886798 16.25700328 8.06985087 16.671875 9.796875 C21.44605698 27.90273497 33.41502658 42.96409077 49.34765625 52.65625 C51.91168719 53.95525831 54.29452142 54.75596736 57.0625 55.5 C59.25390625 56.1484375 59.25390625 56.1484375 61 57 C62.5 60.125 62.5 60.125 63 64 C63.10570312 64.81082031 63.21140625 65.62164062 63.3203125 66.45703125 C63.5880238 68.63647581 63.81150717 70.81249107 64 73 C45.51968949 70.92067303 28.56015662 58.09565566 17 44 C13.99016956 39.86238107 11.49260895 35.46491603 9 31 C8.38898438 30.06800781 8.38898438 30.06800781 7.765625 29.1171875 C4.54634338 24.18921024 3.31591039 18.53033812 1.83203125 12.9140625 C1.29243765 10.13050508 1.29243765 10.13050508 0 9 C-0.14193337 5.99668982 -0.04236378 3.00782866 0 0 Z " fill="#006CAE" transform="translate(67,129)"/>
<path d="M0 0 C-4.41103485 12.4310982 -4.41103485 12.4310982 -8.82421875 15.10546875 C-10.86456484 15.83101422 -12.91252846 16.42535896 -15 17 C-30.66311351 23.371436 -41.50473187 36.75649251 -48 52 C-50.97777003 59.78603072 -51.94986759 67.76049958 -53 76 C-57.95 76 -62.9 76 -68 76 C-68.17332477 70.88691927 -67.97786035 67.74399838 -66 63 C-65.51375684 61.11113233 -65.05671196 59.2145721 -64.625 57.3125 C-59.5395404 36.82035247 -45.72472227 21.01727318 -28.421875 9.24609375 C-26 8 -26 8 -22 8 C-22 7.34 -22 6.68 -22 6 C-16.555 5.01 -16.555 5.01 -11 4 C-11 3.34 -11 2.68 -11 2 C-7.17679443 0.57741188 -4.08718695 -0.24042276 0 0 Z " fill="#5BA8D3" transform="translate(134,47)"/>
<path d="M0 0 C3.3 0 6.6 0 10 0 C9.63003151 9.12588939 7.39827587 16.55258128 4 25 C3.62875 25.97324219 3.2575 26.94648438 2.875 27.94921875 C-5.30396678 47.85705108 -24.08472888 61.28856321 -43 70 C-46.47325181 71.1577506 -49.36067448 71.06866652 -53 71 C-52.75 69.0625 -52.75 69.0625 -52 66 C-51.76990234 64.96552734 -51.76990234 64.96552734 -51.53515625 63.91015625 C-50.1918474 59.66239584 -48.85567379 57.53060712 -45.0078125 55.14453125 C-42.57377763 53.98077497 -40.13889786 52.85216532 -37.6796875 51.74609375 C-21.63978275 44.44272933 -10.5453951 30.04575012 -4 14 C-2.44060599 9.38503666 -1.18111409 4.72445637 0 0 Z " fill="#1178A1" transform="translate(223,130)"/>
<path d="M0 0 C5.93158594 5.10775456 8.68206106 11.33565677 10 19 C10.24035501 22.87262901 10.23100668 26.74561377 10.25 30.625 C10.270625 31.65496094 10.29125 32.68492187 10.3125 33.74609375 C10.35364534 41.92373038 9.63258542 50.05112187 5 57 C4.7525 58.010625 4.505 59.02125 4.25 60.0625 C1.40710792 70.5525514 -7.13484077 81.72472771 -15 89 C-15.45246094 89.48339844 -15.90492188 89.96679688 -16.37109375 90.46484375 C-20.33164669 94.66243727 -24.68074944 98.28656013 -29.1875 101.875 C-29.79392334 102.36371582 -30.40034668 102.85243164 -31.02514648 103.35595703 C-33.98745967 105.67884258 -36.31254643 107.2646104 -40 108 C-37.64956479 105.57121695 -35.29246763 103.25032821 -32.72265625 101.05078125 C-23.92834897 93.50312461 -17.84175588 84.88617048 -12.2265625 74.80078125 C-11.82179688 74.20652344 -11.41703125 73.61226563 -11 73 C-10.34 73 -9.68 73 -9 73 C-8.7525 71.845 -8.505 70.69 -8.25 69.5 C-7.50674474 66.48480845 -6.55352332 63.96926091 -5.0625 61.25 C-2.71087265 56.85386081 -1.69793901 52.28297918 -0.61328125 47.44140625 C0 45 0 45 1 44 C2.00072731 36.83182737 2.29675397 29.6649208 2.5625 22.4375 C2.62727539 20.78137695 2.62727539 20.78137695 2.69335938 19.09179688 C2.79844387 16.39462815 2.90059413 13.69738297 3 11 C2.34 11 1.68 11 1 11 C0.505 5.555 0.505 5.555 0 0 Z " fill="#2598D2" transform="translate(288,102)"/>
<path d="M0 0 C0.66 0 1.32 0 2 0 C1.79503906 0.67804688 1.59007812 1.35609375 1.37890625 2.0546875 C-4.2375847 21.45711078 -3.82755867 43.05176779 3.96728516 61.77294922 C5.37849175 65.16280866 6 67.25002338 6 71 C6.66 71 7.32 71 8 71 C8.31710938 71.64324219 8.63421875 72.28648437 8.9609375 72.94921875 C13.14522988 81.05195067 18.28969841 87.94389902 24 95 C24.57105469 95.71542969 25.14210937 96.43085938 25.73046875 97.16796875 C29.10099237 101.26139288 32.8789096 104.67142698 37 108 C32.91900334 108 30.87956056 105.92796176 27.8125 103.5 C27.22879639 103.04149658 26.64509277 102.58299316 26.04370117 102.1105957 C21.34608819 98.36955442 16.97848687 94.51267248 13 90 C12.22269531 89.12601562 11.44539063 88.25203125 10.64453125 87.3515625 C-1.24999003 73.00437249 -10.64801593 54.12960321 -10.4375 35.25 C-10.42992676 34.29061523 -10.42235352 33.33123047 -10.41455078 32.34277344 C-10.1447144 20.62360219 -7.53620152 9.34488989 0 0 Z " fill="#27A5E1" transform="translate(14,99)"/>
<path d="M0 0 C1.17466936 3.48892181 1.01575085 3.96289004 -0.546875 7.64453125 C-1.26924267 9.04013497 -2.00412767 10.42931553 -2.75 11.8125 C-3.47589379 13.19299444 -4.19987109 14.57449841 -4.921875 15.95703125 C-5.27314453 16.62686035 -5.62441406 17.29668945 -5.98632812 17.98681641 C-7.47092454 20.93527066 -8.73992614 23.94950473 -10 27 C-10.66 27 -11.32 27 -12 27 C-12.14695313 27.59425781 -12.29390625 28.18851563 -12.4453125 28.80078125 C-14.09262063 34.8882475 -16.47979547 40.01596409 -19.59375 45.48828125 C-21.31914462 48.57002775 -22.64981085 51.7370429 -24 55 C-25.51953317 58.31085276 -27.05691408 61.6130322 -28.59765625 64.9140625 C-29.43331109 66.7529687 -30.23559796 68.60854858 -30.96484375 70.4921875 C-32.7384967 74.78911277 -35.10152841 78.77734813 -37.34375 82.84375 C-39.01710687 85.87859415 -39.01710687 85.87859415 -40.04296875 88.75 C-41.23020783 91.54122331 -43.04316907 92.90560251 -45.41015625 94.734375 C-47.26763083 96.16421415 -47.26763083 96.16421415 -49.75 98.75 C-52 101 -52 101 -54 102 C-53.71517632 100.58194169 -53.42181856 99.16559621 -53.125 97.75 C-52.88136719 96.56664063 -52.88136719 96.56664063 -52.6328125 95.359375 C-52.00106448 93.00396882 -51.24959008 91.09190636 -50 89 C-49.01 88.505 -49.01 88.505 -48 88 C-47.11013362 86.13097255 -47.11013362 86.13097255 -46.3125 83.8125 C-43.69809573 76.96335726 -40.34190214 70.51483169 -37 64 C-36.34 64 -35.68 64 -35 64 C-34.90017822 63.30237549 -34.80035645 62.60475098 -34.69750977 61.88598633 C-33.87804956 58.49542313 -32.51325008 55.88459248 -30.83984375 52.82421875 C-30.21142578 51.66728516 -29.58300781 50.51035156 -28.93554688 49.31835938 C-28.2696741 48.10799432 -27.60365665 46.89770884 -26.9375 45.6875 C-26.26697322 44.458012 -25.5970449 43.22819741 -24.92773438 41.99804688 C-23.29101531 38.99543277 -21.64826037 35.99628943 -20 33 C-19.34 33 -18.68 33 -18 33 C-17.8875293 32.27474121 -17.77505859 31.54948242 -17.65917969 30.80224609 C-16.96740455 27.86143311 -15.95632506 25.77567756 -14.453125 23.1640625 C-13.9375 22.26429687 -13.421875 21.36453125 -12.890625 20.4375 C-12.07851562 19.0453125 -12.07851562 19.0453125 -11.25 17.625 C-10.7240625 16.70460938 -10.198125 15.78421875 -9.65625 14.8359375 C-6.6803335 9.67964654 -3.55316059 4.77702702 0 0 Z " fill="#F2BDC0" transform="translate(164,26)"/>
<path d="M0 0 C5.625 -0.25 5.625 -0.25 9 2 C9 2.66 9 3.32 9 4 C10.32451172 4.37318359 10.32451172 4.37318359 11.67578125 4.75390625 C21.68071089 8.50428528 33.07038049 20.10557074 39 29 C38.8125 31.125 38.8125 31.125 38 33 C37.01 33.33 36.02 33.66 35 34 C34.55269531 33.48050781 34.10539062 32.96101563 33.64453125 32.42578125 C24.90650341 22.34630777 13.62257262 10.87112517 0 8 C0 5.36 0 2.72 0 0 Z " fill="#096696" transform="translate(182,53)"/>
<path d="M0 0 C0.86625 0.763125 1.7325 1.52625 2.625 2.3125 C5.53600655 4.75220073 8.52943561 6.42998277 12 8 C12.33 6.68 12.66 5.36 13 4 C14.43282791 11.44558787 15.22307285 18.41552326 15 26 C11.37 26 7.74 26 4 26 C3.96261719 25.21238281 3.92523438 24.42476562 3.88671875 23.61328125 C3.39582877 15.47990808 2.0507265 7.88046474 0 0 Z " fill="#953D4C" transform="translate(255,98)"/>
<path d="M0 0 C2.22695405 2.22695405 2.96032175 3.967618 4.125 6.875 C4.47820313 7.73867187 4.83140625 8.60234375 5.1953125 9.4921875 C6 12 6 12 6 16 C6.66 16 7.32 16 8 16 C8.31710938 16.64324219 8.63421875 17.28648437 8.9609375 17.94921875 C13.14522988 26.05195067 18.28969841 32.94389902 24 40 C24.57105469 40.71542969 25.14210938 41.43085938 25.73046875 42.16796875 C29.10099237 46.26139288 32.8789096 49.67142698 37 53 C32.91900334 53 30.87956056 50.92796176 27.8125 48.5 C27.22879639 48.04149658 26.64509277 47.58299316 26.04370117 47.1105957 C19.00922328 41.5085437 13.15736011 35.38586883 7.625 28.3125 C7.19550049 27.76553467 6.76600098 27.21856934 6.32348633 26.6550293 C3.97312062 23.56926445 2.24213846 20.67864082 1 17 C1.99 16.67 2.98 16.34 4 16 C3.79503906 15.34773437 3.59007812 14.69546875 3.37890625 14.0234375 C1.94297694 9.36525534 0.63796084 4.84850242 0 0 Z " fill="#0175B5" transform="translate(14,154)"/>
<path d="M0 0 C3 1 3 1 4.31640625 3.44140625 C8.26231442 13.32473111 10.35447787 21.28689097 10 32 C8.35 32 6.7 32 5 32 C3.69013193 29.38026386 3.74060041 27.17230068 3.5625 24.25 C3.2351817 19.83648227 2.56037798 16.16100794 1 12 C1 10.68 1 9.36 1 8 C0.34 8 -0.32 8 -1 8 C-1.04241723 5.66705225 -1.04092937 3.33297433 -1 1 C-0.67 0.67 -0.34 0.34 0 0 Z " fill="#589AB9" transform="translate(224,91)"/>
<path d="M0 0 C4.45786773 0.51835671 7.2255816 1.6409885 11 4 C12.98451771 4.71143088 14.98202112 5.38991336 17 6 C16.01 6.495 16.01 6.495 15 7 C14.01 6.67 13.02 6.34 12 6 C12 8.97 12 11.94 12 15 C13.32 15.66 14.64 16.32 16 17 C16 17.66 16 18.32 16 19 C10.5681073 16.87490852 5.30258065 14.42768753 0 12 C0 8.04 0 4.08 0 0 Z " fill="#93030B" transform="translate(187,20)"/>
<path d="M0 0 C1.17466936 3.48892181 1.01575085 3.96289004 -0.546875 7.64453125 C-1.26924267 9.04013497 -2.00412767 10.42931553 -2.75 11.8125 C-3.47589379 13.19299444 -4.19987109 14.57449841 -4.921875 15.95703125 C-5.27314453 16.62686035 -5.62441406 17.29668945 -5.98632812 17.98681641 C-7.47092454 20.93527066 -8.73992614 23.94950473 -10 27 C-10.66 27 -11.32 27 -12 27 C-12.19335938 27.69867188 -12.38671875 28.39734375 -12.5859375 29.1171875 C-12.97652344 30.48230469 -12.97652344 30.48230469 -13.375 31.875 C-13.63023437 32.77992187 -13.88546875 33.68484375 -14.1484375 34.6171875 C-15 37 -15 37 -17 39 C-17.495 37.515 -17.495 37.515 -18 36 C-19.485 36.495 -19.485 36.495 -21 37 C-20.67 35.68 -20.34 34.36 -20 33 C-19.34 33 -18.68 33 -18 33 C-17.8875293 32.27474121 -17.77505859 31.54948242 -17.65917969 30.80224609 C-16.96740455 27.86143311 -15.95632506 25.77567756 -14.453125 23.1640625 C-13.9375 22.26429687 -13.421875 21.36453125 -12.890625 20.4375 C-12.34921875 19.509375 -11.8078125 18.58125 -11.25 17.625 C-10.7240625 16.70460938 -10.198125 15.78421875 -9.65625 14.8359375 C-6.6803335 9.67964654 -3.55316059 4.77702702 0 0 Z " fill="#CE6663" transform="translate(164,26)"/>
<path d="M0 0 C5.27678638 -0.25951408 7.79647099 0.02548898 11.9765625 3.41015625 C15.68240212 7.00448736 19.12940101 10.69410152 22 15 C21.8125 17.125 21.8125 17.125 21 19 C20.01 19.33 19.02 19.66 18 20 C17.55269531 19.48050781 17.10539062 18.96101563 16.64453125 18.42578125 C10.39355775 11.19607753 10.39355775 11.19607753 3.25 4.875 C1 3 1 3 0 0 Z " fill="#78BEDE" transform="translate(199,67)"/>
<path d="M0 0 C0.66 0.33 1.32 0.66 2 1 C-0.48536423 8.86325133 -3.54707773 16.44039125 -6.6875 24.0625 C-7.20404471 25.32215549 -7.7203227 26.58192038 -8.23632812 27.84179688 C-9.48827602 30.8956137 -10.74289384 33.94830382 -12 37 C-12.33 37 -12.66 37 -13 37 C-12.31889294 30.06704711 -11.21959819 23.28290765 -9.9375 16.4375 C-9.75123047 15.42880859 -9.56496094 14.42011719 -9.37304688 13.38085938 C-8.91820197 10.92003184 -8.46046882 8.45978026 -8 6 C-7.67 6 -7.34 6 -7 6 C-6.67 7.65 -6.34 9.3 -6 11 C-5.54625 10.34 -5.0925 9.68 -4.625 9 C-4.08875 8.34 -3.5525 7.68 -3 7 C-2.34 7 -1.68 7 -1 7 C-0.67 4.69 -0.34 2.38 0 0 Z " fill="#CD0001" transform="translate(165,168)"/>
<path d="M0 0 C0.99 0.495 0.99 0.495 2 1 C2 1.66 2 2.32 2 3 C2.99 3.33 3.98 3.66 5 4 C6.50740805 6.01572006 7.88915373 8.01482884 9.25 10.125 C12.72862491 15.35475968 16.34247615 19.73886115 21 24 C20.01 24 19.02 24 18 24 C18.33 24.598125 18.66 25.19625 19 25.8125 C20 28 20 28 20 31 C16.15359482 28.26702789 14.60217753 26.37928526 13 22 C11.11530775 19.42425393 9.23363128 17.21301676 6.875 15.0625 C4.59359561 12.55295517 3.88418806 10.24202287 3 7 C2.34 7 1.68 7 1 7 C0.67 4.69 0.34 2.38 0 0 Z " fill="#910001" transform="translate(51,170)"/>
<path d="M0 0 C0.66 0 1.32 0 2 0 C1.79503906 0.67804688 1.59007812 1.35609375 1.37890625 2.0546875 C1.10949219 2.98539062 0.84007812 3.91609375 0.5625 4.875 C0.29566406 5.77992187 0.02882813 6.68484375 -0.24609375 7.6171875 C-2.16132673 16.21092718 -2.13173849 24.85834248 -2.0625 33.625 C-2.05798828 34.72457031 -2.05347656 35.82414062 -2.04882812 36.95703125 C-2.03717139 39.63808003 -2.02081017 42.31900932 -2 45 C-2.33 45 -2.66 45 -3 45 C-4.21825857 39.0827441 -4.33647378 33.14248484 -4.5625 27.125 C-4.60568359 26.05507812 -4.64886719 24.98515625 -4.69335938 23.8828125 C-4.79892817 21.25532246 -4.90103791 18.62774578 -5 16 C-5.99 16.66 -6.98 17.32 -8 18 C-6.7396573 11.19414943 -4.18994063 5.55622562 0 0 Z " fill="#096691" transform="translate(14,99)"/>
<path d="M0 0 C0.45817424 4.69628593 -0.47906412 7.27739287 -2.9765625 11.25390625 C-4.41356773 13.70559074 -5.20492569 16.28349612 -6 19 C-6.66 18.34 -7.32 17.68 -8 17 C-10.60280568 17.32041397 -10.60280568 17.32041397 -13 18 C-11.58758086 14.30753281 -9.96705616 10.81049783 -8.125 7.3125 C-7.63257813 6.35988281 -7.14015625 5.40726562 -6.6328125 4.42578125 C-4.96846785 1.95315439 -3.19872863 0 0 0 Z " fill="#E99E9F" transform="translate(147,61)"/>
<path d="M0 0 C0.99 0.33 1.98 0.66 3 1 C2.01 7.93 1.02 14.86 0 22 C-1.65 22.66 -3.3 23.32 -5 24 C-4.24945135 16.61960497 -4.24945135 16.61960497 -3.03125 13.59375 C-1.91651284 10.79001715 -1.37624547 8.15916958 -0.875 5.1875 C-0.70742188 4.21167969 -0.53984375 3.23585937 -0.3671875 2.23046875 C-0.24601562 1.49441406 -0.12484375 0.75835937 0 0 Z " fill="#1FB4F7" transform="translate(257,139)"/>
<path d="M0 0 C0.33 0.66 0.66 1.32 1 2 C1.99 2.33 2.98 2.66 4 3 C-0.41307674 7.72829651 -5.13349503 11.85682364 -10.1875 15.875 C-10.79352051 16.36331299 -11.39954102 16.85162598 -12.02392578 17.35473633 C-14.98648765 19.67825815 -17.31194756 21.26449097 -21 22 C-17.82292506 18.71702256 -14.50712751 15.6905086 -11.0625 12.6875 C-6.73190919 8.82945497 -3.22469657 4.81082782 0 0 Z " fill="#01638C" transform="translate(269,188)"/>
<path d="M0 0 C0.66 0 1.32 0 2 0 C1.51423747 11.76056645 0.65590678 23.34434551 -1 35 C-1.33 35 -1.66 35 -2 35 C-1.67 25.43 -1.34 15.86 -1 6 C-1.66 7.32 -2.32 8.64 -3 10 C-3.99 9.67 -4.98 9.34 -6 9 C-5.05016642 7.49460339 -4.08988109 5.99579653 -3.125 4.5 C-2.59132812 3.6646875 -2.05765625 2.829375 -1.5078125 1.96875 C-0.76144531 0.99421875 -0.76144531 0.99421875 0 0 Z " fill="#781605" transform="translate(170,16)"/>
<path d="M0 0 C4.5132828 3.88643796 7.40139058 8.19725542 9 14 C8.6015625 16.27734375 8.6015625 16.27734375 8 18 C7.67 17.01 7.34 16.02 7 15 C5.02 15.99 5.02 15.99 3 17 C3 15.02 3 13.04 3 11 C2.34 11 1.68 11 1 11 C0.67 7.37 0.34 3.74 0 0 Z " fill="#0D97D0" transform="translate(288,102)"/>
<path d="M0 0 C0.99 0 1.98 0 3 0 C2.39363767 5.76044212 0.24341721 10.72014369 -2 16 C-2.66 15.01 -3.32 14.02 -4 13 C-4.99 13.33 -5.98 13.66 -7 14 C-6.67 12.68 -6.34 11.36 -6 10 C-5.34 10 -4.68 10 -4 10 C-3.896875 9.278125 -3.79375 8.55625 -3.6875 7.8125 C-2.92653591 4.69946508 -1.9090983 2.56994002 0 0 Z " fill="#D77170" transform="translate(150,49)"/>
<path d="M0 0 C2.78958189 2.70753537 5.39768861 5.44075235 7.875 8.4375 C10.91600162 12.04868943 14.33419466 15.03915723 18 18 C13.83804013 18 11.6961133 15.78087696 8.5625 13.3125 C7.98951172 12.87744141 7.41652344 12.44238281 6.82617188 11.99414062 C3.36508969 9.30572811 0.61233242 6.56227148 -2 3 C-1.34 3 -0.68 3 0 3 C0 2.01 0 1.02 0 0 Z " fill="#005788" transform="translate(33,189)"/>
<path d="M0 0 C3.63 0 7.26 0 11 0 C11.18004053 7.11160094 10.80366114 13.1235419 9 20 C8.67 20 8.34 20 8 20 C8.14194764 17.93722893 8.28872216 15.87478969 8.4375 13.8125 C8.51871094 12.66394531 8.59992188 11.51539063 8.68359375 10.33203125 C8.95403812 7.48401829 9.37521747 4.78789518 10 2 C4.64037108 2.29328332 4.64037108 2.29328332 0.5625 5.5625 C0.046875 6.366875 -0.46875 7.17125 -1 8 C-0.67 5.36 -0.34 2.72 0 0 Z " fill="#3680A8" transform="translate(259,130)"/>
<path d="M0 0 C-0.11344376 2.1464753 -0.24106345 4.29220592 -0.375 6.4375 C-0.44460937 7.63246094 -0.51421875 8.82742187 -0.5859375 10.05859375 C-0.72257813 11.02925781 -0.85921875 11.99992187 -1 13 C-1.99 13.495 -1.99 13.495 -3 14 C-3.66 14.99 -4.32 15.98 -5 17 C-5.62846684 6.05420245 -5.62846684 6.05420245 -3.0625 1.75 C-1 0 -1 0 0 0 Z " fill="#1BB4F3" transform="translate(10,113)"/>
<path d="M0 0 C0.66 0.33 1.32 0.66 2 1 C0.84972415 6.13199994 -0.51031555 10.33184167 -3 15 C-3.67349161 16.66392045 -4.3409159 18.33032028 -5 20 C-5.9375 22.25 -5.9375 22.25 -7 24 C-7.99 24.33 -8.98 24.66 -10 25 C-8.71040839 21.64230756 -7.24739677 18.48808425 -5.5625 15.3125 C-3.04505435 10.35953741 -1.40377117 5.36400367 0 0 Z " fill="#004663" transform="translate(222,134)"/>
<path d="M0 0 C3.66881155 0.70554068 6.70450534 2.27735506 10 4 C10.33 3.34 10.66 2.68 11 2 C11.33 4.31 11.66 6.62 12 9 C7.98451758 8.38223347 5.1957892 6.43157874 2 4 C0.625 1.75 0.625 1.75 0 0 Z " fill="#D5213C" transform="translate(255,97)"/>
<path d="M0 0 C0.33 0 0.66 0 1 0 C1.22786458 2.01822917 1.45572917 4.03645833 1.68359375 6.0546875 C1.91292961 8.07404316 1.91292961 8.07404316 3 10 C2.26821134 12.07196631 1.44100997 14.1108552 0.5625 16.125 C0.08941406 17.22070312 -0.38367188 18.31640625 -0.87109375 19.4453125 C-1.24363281 20.28835937 -1.61617187 21.13140625 -2 22 C-2.33 22 -2.66 22 -3 22 C-2.24984418 14.62346781 -1.16558465 7.32168224 0 0 Z " fill="#BF0003" transform="translate(155,183)"/>
<path d="M0 0 C1.45945288 0.08708669 2.91765868 0.19526907 4.375 0.3125 C5.59316406 0.39951172 5.59316406 0.39951172 6.8359375 0.48828125 C9 1 9 1 11 4 C10.67 4.66 10.34 5.32 10 6 C9.34 6 8.68 6 8 6 C7.67 6.66 7.34 7.32 7 8 C1.125 3.375 1.125 3.375 0 0 Z " fill="#68B3D6" transform="translate(199,67)"/>
<path d="M0 0 C1.98 0 3.96 0 6 0 C6.33 0.66 6.66 1.32 7 2 C5.35 1.67 3.7 1.34 2 1 C2 2.32 2 3.64 2 5 C2.56589844 5.25394531 3.13179687 5.50789063 3.71484375 5.76953125 C4.44832031 6.11371094 5.18179688 6.45789062 5.9375 6.8125 C6.66839844 7.14894531 7.39929688 7.48539063 8.15234375 7.83203125 C10 9 10 9 11 12 C7.27566618 10.7874262 3.62197194 9.49140021 0 8 C0 5.36 0 2.72 0 0 Z " fill="#044B6F" transform="translate(182,53)"/>
<path d="M0 0 C-0.62648437 0.32613281 -1.25296875 0.65226562 -1.8984375 0.98828125 C-2.71570313 1.42527344 -3.53296875 1.86226563 -4.375 2.3125 C-5.18710938 2.74175781 -5.99921875 3.17101562 -6.8359375 3.61328125 C-9.26834043 4.96778724 -9.26834043 4.96778724 -11 8 C-11.66 7.67 -12.32 7.34 -13 7 C-12.67 6.01 -12.34 5.02 -12 4 C-13.32 3.67 -14.64 3.34 -16 3 C-14.08802961 2.29954544 -12.17019565 1.615081 -10.25 0.9375 C-9.18265625 0.55464844 -8.1153125 0.17179687 -7.015625 -0.22265625 C-4.07719958 -0.98010011 -2.77651052 -1.07151741 0 0 Z " fill="#500203" transform="translate(168,120)"/>
<path d="M0 0 C0.99 0.495 0.99 0.495 2 1 C2 1.66 2 2.32 2 3 C2.99 3.33 3.98 3.66 5 4 C7.25 6.875 7.25 6.875 9 10 C8.67 10.99 8.34 11.98 8 13 C7.67 12.01 7.34 11.02 7 10 C4.98491642 9.26676204 4.98491642 9.26676204 3 9 C3 8.34 3 7.68 3 7 C2.34 7 1.68 7 1 7 C0.67 4.69 0.34 2.38 0 0 Z " fill="#760100" transform="translate(51,170)"/>
<path d="M0 0 C0.66 0.33 1.32 0.66 2 1 C-2.62 5.62 -7.24 10.24 -12 15 C-12.66 14.67 -13.32 14.34 -14 14 C-9.61932717 8.89662734 -5.32423478 4.12628195 0 0 Z " fill="#122833" transform="translate(108,69)"/>
<path d="M0 0 C0.66 0.33 1.32 0.66 2 1 C-2.95 5.95 -7.9 10.9 -13 16 C-13.66 15.67 -14.32 15.34 -15 15 C-10.72226048 9.75976909 -6.16137595 5.36068517 -1 1 C-0.67 0.67 -0.34 0.34 0 0 Z " fill="#C6232C" transform="translate(70,41)"/>
<path d="M0 0 C0.99 0.495 0.99 0.495 2 1 C3.65155878 6.89259861 4.27098599 12.90281525 4 19 C1.21649667 16.21649667 1.37803924 13.93111129 0.875 10.0625 C0.70742187 8.81597656 0.53984375 7.56945312 0.3671875 6.28515625 C0 3 0 3 0 0 Z " fill="#B9030B" transform="translate(140,166)"/>
<path d="M0 0 C0.66 0.33 1.32 0.66 2 1 C2 2.98 2 4.96 2 7 C1.34 6.34 0.68 5.68 0 5 C-0.33 10.28 -0.66 15.56 -1 21 C-1.33 21 -1.66 21 -2 21 C-2 14.73 -2 8.46 -2 2 C-1.34 2 -0.68 2 0 2 C0 1.34 0 0.68 0 0 Z " fill="#35BDF5" transform="translate(294,116)"/>
<path d="M0 0 C0.66 0.33 1.32 0.66 2 1 C0.63589551 6.59282842 -2.15383526 9.91193811 -6 14 C-6 10.27792613 -4.82035432 8.53604411 -3 5.3125 C-2.443125 4.31863281 -1.88625 3.32476562 -1.3125 2.30078125 C-0.879375 1.54152344 -0.44625 0.78226563 0 0 Z " fill="#0081BC" transform="translate(245,175)"/>
<path d="M0 0 C0.94616328 3.42984189 1 6.44175575 1 10 C-1.5 11.6875 -1.5 11.6875 -4 13 C-3.71517632 11.58194169 -3.42181856 10.16559621 -3.125 8.75 C-2.96257812 7.96109375 -2.80015625 7.1721875 -2.6328125 6.359375 C-2.00849925 4.03168856 -1.15161458 2.10968048 0 0 Z " fill="#D4767C" transform="translate(114,115)"/>
<path d="M0 0 C0.33 0.66 0.66 1.32 1 2 C1.99 2.33 2.98 2.66 4 3 C1.69 4.98 -0.62 6.96 -3 9 C-3 8.34 -3 7.68 -3 7 C-3.66 6.67 -4.32 6.34 -5 6 C-3.35 4.02 -1.7 2.04 0 0 Z " fill="#0175B0" transform="translate(269,188)"/>
<path d="M0 0 C0.99 0.33 1.98 0.66 3 1 C4.1875 4.0625 4.1875 4.0625 5 7 C3.02 7.33 1.04 7.66 -1 8 C-1.04241723 5.66705225 -1.04092937 3.33297433 -1 1 C-0.67 0.67 -0.34 0.34 0 0 Z " fill="#4E98B8" transform="translate(224,91)"/>
<path d="M0 0 C0.66 0.66 1.32 1.32 2 2 C3.32 1.34 4.64 0.68 6 0 C5.06725891 1.12894876 4.12859878 2.25300876 3.1875 3.375 C2.66542969 4.00148437 2.14335938 4.62796875 1.60546875 5.2734375 C0 7 0 7 -3 9 C-2.44271087 5.65626525 -1.64826111 2.96687001 0 0 Z " fill="#DA282C" transform="translate(109,125)"/>
<path d="M0 0 C0 2.97 0 5.94 0 9 C-0.99 9 -1.98 9 -3 9 C-3.33 6.69 -3.66 4.38 -4 2 C-1 0 -1 0 0 0 Z " fill="#62B7DE" transform="translate(233,113)"/>
<path d="M0 0 C0.99 0 1.98 0 3 0 C3.6875 1.8125 3.6875 1.8125 4 4 C2.5625 5.75 2.5625 5.75 1 7 C0.01 6.34 -0.98 5.68 -2 5 C-1.125 1.125 -1.125 1.125 0 0 Z " fill="#F9D0D3" transform="translate(136,77)"/>
<path d="M0 0 C0.99 0 1.98 0 3 0 C2.25 5.75 2.25 5.75 0 8 C-0.66 7.67 -1.32 7.34 -2 7 C-1.125 1.125 -1.125 1.125 0 0 Z " fill="#D87979" transform="translate(150,49)"/>
<path d="M0 0 C1.485 0.99 1.485 0.99 3 2 C3.99 1.34 4.98 0.68 6 0 C5.01 2.97 4.02 5.94 3 9 C2.34 9 1.68 9 1 9 C0.67 6.03 0.34 3.06 0 0 Z " fill="#8F0102" transform="translate(146,207)"/>
<path d="M0 0 C4.875 4.75 4.875 4.75 6 7 C4.68 7.33 3.36 7.66 2 8 C0.68 6.35 -0.64 4.7 -2 3 C-1.34 3 -0.68 3 0 3 C0 2.01 0 1.02 0 0 Z " fill="#00639E" transform="translate(33,189)"/>
<path d="M0 0 C2.31 0 4.62 0 7 0 C6.34 1.65 5.68 3.3 5 5 C4.34 5 3.68 5 3 5 C3 4.34 3 3.68 3 3 C1.68 3.33 0.36 3.66 -1 4 C-0.67 2.68 -0.34 1.36 0 0 Z " fill="#DF0000" transform="translate(193,102)"/>
<path d="M0 0 C-0.66 1.65 -1.32 3.3 -2 5 C-2.33 4.34 -2.66 3.68 -3 3 C-5.64 3 -8.28 3 -11 3 C-7.11595442 0.41063628 -4.5725325 -0.12358196 0 0 Z " fill="#306383" transform="translate(134,47)"/>
<path d="M0 0 C0.66 0.33 1.32 0.66 2 1 C1.54738642 2.43931117 1.08767021 3.87638999 0.625 5.3125 C0.36976563 6.11300781 0.11453125 6.91351563 -0.1484375 7.73828125 C-1 10 -1 10 -3 13 C-3.33 11.35 -3.66 9.7 -4 8 C-3.01 7.67 -2.02 7.34 -1 7 C-0.67 4.69 -0.34 2.38 0 0 Z " fill="#B00000" transform="translate(165,168)"/>
<path d="M0 0 C0.66 0.66 1.32 1.32 2 2 C1.8125 5 1.8125 5 1 8 C0.01 8.66 -0.98 9.32 -2 10 C-1.125 2.25 -1.125 2.25 0 0 Z " fill="#059CDB" transform="translate(254,153)"/>
<path d="M0 0 C0.66 0 1.32 0 2 0 C1.01 3.63 0.02 7.26 -1 11 C-1.99 10.01 -2.98 9.02 -4 8 C-2.87548273 5.0280615 -1.77706209 2.66559313 0 0 Z " fill="#035981" transform="translate(14,99)"/>
<path d="M0 0 C1.32 0.66 2.64 1.32 4 2 C3.6875 3.9375 3.6875 3.9375 3 6 C2.01 6.33 1.02 6.66 0 7 C-1.125 2.25 -1.125 2.25 0 0 Z " fill="#6CC1E4" transform="translate(217,80)"/>
<path d="M0 0 C0.6875 1.6875 0.6875 1.6875 1 4 C-0.25 6.75 -0.25 6.75 -2 9 C-2.99 9 -3.98 9 -5 9 C-3.7508258 5.54074837 -2.32472205 2.85306797 0 0 Z " fill="#B55448" transform="translate(164,26)"/>
<path d="M0 0 C0.99 0.33 1.98 0.66 3 1 C1.88121617 2.17262904 0.75476949 3.33795138 -0.375 4.5 C-1.00148437 5.1496875 -1.62796875 5.799375 -2.2734375 6.46875 C-4 8 -4 8 -6 8 C-4.55746343 4.63408134 -2.66735273 2.48952921 0 0 Z " fill="#0174AC" transform="translate(236,190)"/>
<path d="M0 0 C5.75 4.75 5.75 4.75 8 7 C6.68 7 5.36 7 4 7 C3.34 8.32 2.68 9.64 2 11 C1.34 7.37 0.68 3.74 0 0 Z " fill="#972B3F" transform="translate(255,98)"/>
<path d="M0 0 C0 1.98 0 3.96 0 6 C-0.99 6.495 -0.99 6.495 -2 7 C-2 6.34 -2 5.68 -2 5 C-3.32 5.33 -4.64 5.66 -6 6 C-5.75 4.125 -5.75 4.125 -5 2 C-1.8 0 -1.8 0 0 0 Z " fill="#E78688" transform="translate(147,61)"/>
<path d="M0 0 C0.66 0 1.32 0 2 0 C-0.60909091 6.70909091 -0.60909091 6.70909091 -2 9 C-2.99 9.33 -3.98 9.66 -5 10 C-3.66749209 6.4124787 -2.169283 3.1635377 0 0 Z " fill="#00516F" transform="translate(217,149)"/>
<path d="M0 0 C1.64666203 0.1135629 3.29236082 0.24117381 4.9375 0.375 C5.85402344 0.44460937 6.77054688 0.51421875 7.71484375 0.5859375 C8.84599609 0.79089844 8.84599609 0.79089844 10 1 C10.33 1.66 10.66 2.32 11 3 C7.66666667 3 4.33333333 3 1 3 C0.67 2.01 0.34 1.02 0 0 Z " fill="#3288B2" transform="translate(196,65)"/>
<path d="M0 0 C3.3 0 6.6 0 10 0 C10 0.33 10 0.66 10 1 C8.39125 1.0928125 8.39125 1.0928125 6.75 1.1875 C2.86468039 1.66145959 2.86468039 1.66145959 0.5625 4.5625 C0.046875 5.366875 -0.46875 6.17125 -1 7 C-0.67 4.69 -0.34 2.38 0 0 Z " fill="#54BFF2" transform="translate(259,131)"/>
<path d="M0 0 C2.66735273 2.48952921 4.55746343 4.63408134 6 8 C5.01 9.485 5.01 9.485 4 11 C3.71125 10.236875 3.4225 9.47375 3.125 8.6875 C2.03730987 5.84970692 2.03730987 5.84970692 0 3 C0 2.01 0 1.02 0 0 Z " fill="#00293F" transform="translate(283,94)"/>
<path d="M0 0 C0.99 0.33 1.98 0.66 3 1 C2.6875 3.875 2.6875 3.875 2 7 C1.01 7.66 0.02 8.32 -1 9 C-0.67 6.03 -0.34 3.06 0 0 Z " fill="#39A7DD" transform="translate(257,139)"/>
<path d="M0 0 C0.33 0 0.66 0 1 0 C1.3125 2.25 1.3125 2.25 1 5 C-1.5 7.3125 -1.5 7.3125 -4 9 C-3.47181039 5.19703482 -2.56226812 2.88255163 0 0 Z " fill="#0AA0DE" transform="translate(9,113)"/>
<path d="M0 0 C2.475 0.99 2.475 0.99 5 2 C4.6875 3.9375 4.6875 3.9375 4 6 C3.01 6.33 2.02 6.66 1 7 C0.67 4.69 0.34 2.38 0 0 Z " fill="#69BDE5" transform="translate(224,96)"/>
<path d="M0 0 C0.99 0 1.98 0 3 0 C2.01 2.97 1.02 5.94 0 9 C-0.33 9 -0.66 9 -1 9 C-0.67 6.03 -0.34 3.06 0 0 Z " fill="#9A0106" transform="translate(153,196)"/>
<path d="M0 0 C1.32 0.99 2.64 1.98 4 3 C4 3.66 4 4.32 4 5 C3.34 5 2.68 5 2 5 C2 6.98 2 8.96 2 11 C1.67 11 1.34 11 1 11 C0.67 7.37 0.34 3.74 0 0 Z " fill="#046DA0" transform="translate(288,102)"/>
<path d="M0 0 C0.66 0 1.32 0 2 0 C1.1875 2.9375 1.1875 2.9375 0 6 C-0.99 6.33 -1.98 6.66 -3 7 C-1.125 1.125 -1.125 1.125 0 0 Z " fill="#5290B3" transform="translate(76,87)"/>
<path d="M0 0 C1.4800841 0.11362262 2.95910074 0.24122908 4.4375 0.375 C5.26121094 0.44460937 6.08492187 0.51421875 6.93359375 0.5859375 C7.95646484 0.79089844 7.95646484 0.79089844 9 1 C9.33 1.66 9.66 2.32 10 3 C7.69 2.67 5.38 2.34 3 2 C2.67 2.66 2.34 3.32 2 4 C1.34 2.68 0.68 1.36 0 0 Z " fill="#52A3CA" transform="translate(199,67)"/>
</svg>
