<?xml version="1.0" encoding="UTF-8"?>
<svg version="1.1" xmlns="http://www.w3.org/2000/svg" width="1536" height="512">
<path d="M0 0 C506.88 0 1013.76 0 1536 0 C1536 168.96 1536 337.92 1536 512 C1029.12 512 522.24 512 0 512 C0 343.04 0 174.08 0 0 Z " fill="#000000" transform="translate(0,0)"/>
<path d="M0 0 C0.99 0 1.98 0 3 0 C2.67274729 11.30658114 1.34390063 22.34314646 -0.26757812 33.53076172 C-2.85100958 51.64487563 -4.86906138 69.82782897 -7 88 C5.87 88 18.74 88 32 88 C30.53927228 91.65181931 29.08544459 94.81884892 27.19921875 98.2265625 C26.64081299 99.24427734 26.08240723 100.26199219 25.50708008 101.31054688 C24.90661865 102.40431641 24.30615723 103.49808594 23.6875 104.625 C5.32631435 138.45535991 -9.28415067 173.70551549 -22 210 C-22.66 210 -23.32 210 -24 210 C-24.06993164 209.43941895 -24.13986328 208.87883789 -24.21191406 208.30126953 C-25.63775142 196.94729453 -27.17173765 185.61892143 -28.9375 174.3125 C-30.4233888 164.75403212 -31.89827325 155.19437429 -33.3125 145.625 C-33.49611084 144.42399658 -33.67972168 143.22299316 -33.86889648 141.9855957 C-34.03204346 140.86886475 -34.19519043 139.75213379 -34.36328125 138.6015625 C-34.58431519 137.12163818 -34.58431519 137.12163818 -34.80981445 135.61181641 C-35.00141334 132.98059061 -35.04446056 131.41439398 -34 129 C-32.1015625 127.17236328 -32.1015625 127.17236328 -29.625 125.3203125 C-28.26955078 124.29744141 -28.26955078 124.29744141 -26.88671875 123.25390625 C-25.93410156 122.55136719 -24.98148438 121.84882813 -24 121.125 C-23.07832031 120.43019531 -22.15664063 119.73539062 -21.20703125 119.01953125 C-15.5953741 114.81672456 -9.88061154 110.81695249 -4 107 C-5.17280518 107.33733154 -6.34561035 107.67466309 -7.55395508 108.0222168 C-12.00223603 109.30104765 -16.45132503 110.57704848 -20.90063477 111.85229492 C-22.80807487 112.39940254 -24.71530944 112.94722735 -26.62231445 113.49584961 C-33.07557279 115.35203333 -39.53408167 117.18839273 -46 119 C-46.91747009 119.25767151 -47.83494019 119.51534302 -48.7802124 119.78082275 C-51.41719923 120.51645429 -54.05737283 121.23907071 -56.69921875 121.95703125 C-57.49455521 122.17953049 -58.28989166 122.40202972 -59.10932922 122.63127136 C-64.65413753 124.11528749 -64.65413753 124.11528749 -68 123 C-51.83806388 91.51668512 -35.07576772 60.43683325 -17.19091797 29.89208984 C-11.3844024 19.97146749 -5.68095627 9.9929314 0 0 Z " fill="#DB0608" transform="translate(783,104)"/>
<path d="M0 0 C-0.61344757 1.68698082 -1.29713697 3.34827188 -2 5 C-2.49757813 6.18207031 -2.99515625 7.36414063 -3.5078125 8.58203125 C-4.79949381 10.80254567 -5.50594072 11.80165641 -7.91015625 12.7668457 C-10.31829527 13.19721062 -12.68595774 13.43715031 -15.125 13.625 C-16.93590959 13.83383718 -18.74582299 14.05147717 -20.5546875 14.27734375 C-21.46702148 14.38933105 -22.37935547 14.50131836 -23.31933594 14.61669922 C-36.52010133 16.50424035 -48.49671747 21.4135389 -60 28 C-60.61359375 28.35078613 -61.2271875 28.70157227 -61.859375 29.06298828 C-70.91762092 34.34454567 -78.59081278 40.60190438 -86 48 C-86.65484375 48.64324219 -87.3096875 49.28648437 -87.984375 49.94921875 C-107.47008545 70.55222911 -113.05196243 99.01611231 -112.390625 126.34765625 C-112.02096093 134.62181437 -110.54281654 142.14278486 -108 150 C-107.69964844 151.01707031 -107.39929688 152.03414062 -107.08984375 153.08203125 C-102.57229215 167.06492906 -92.52107398 178.23618972 -82.8125 188.9375 C-82.31339111 189.49356934 -81.81428223 190.04963867 -81.30004883 190.62255859 C-78.43489384 193.73024873 -75.69997276 195.97792186 -72 198 C-70.84011733 198.85628922 -69.69388118 199.73139177 -68.5625 200.625 C-51.18884558 213.71958768 -31.7723932 223.47900209 -11.41088867 230.98608398 C-7.86032187 232.47929957 -4.44513772 234.27743114 -1 236 C-1 252.17 -1 268.34 -1 285 C-4.81413824 283.4743447 -6.87557369 282.55602119 -9.93359375 280.1640625 C-11.01991089 279.31884033 -11.01991089 279.31884033 -12.12817383 278.45654297 C-12.89025146 277.85213379 -13.6523291 277.24772461 -14.4375 276.625 C-15.23373779 275.99867676 -16.02997559 275.37235352 -16.8503418 274.72705078 C-24.07201197 269.01131103 -31.11458295 263.11571006 -38 257 C-39.47533203 255.69289063 -39.47533203 255.69289063 -40.98046875 254.359375 C-47.78039541 248.24221196 -54.29703615 241.82694012 -60.7890625 235.38616943 C-62.20565861 233.98146903 -63.62620508 232.58075592 -65.046875 231.18017578 C-70.39126278 225.84250688 -75.32562044 220.33878802 -80.04345703 214.44018555 C-81.60981496 212.48663583 -83.20116839 210.58617576 -84.86328125 208.71484375 C-108.07231949 182.39646068 -124.16793904 150.39770175 -124.1875 114.875 C-124.20586914 113.15410156 -124.20586914 113.15410156 -124.22460938 111.3984375 C-124.24326832 100.35234277 -123.02148908 89.67039162 -119.4375 79.1875 C-119.1799292 78.43178711 -118.9223584 77.67607422 -118.65698242 76.89746094 C-107.47821731 45.64780532 -82.7122274 24.14558163 -53.46386719 10.12597656 C-36.70217402 2.46595586 -18.31498269 -0.35755932 0 0 Z " fill="#E00B17" transform="translate(763,101)"/>
<path d="M0 0 C6.70815257 -0.06899814 13.41506589 -0.12869555 20.12329102 -0.16479492 C22.40360698 -0.17984918 24.68389414 -0.20029708 26.96411133 -0.22631836 C30.24828209 -0.26284894 33.53206885 -0.27976039 36.81640625 -0.29296875 C37.83021866 -0.30845261 38.84403107 -0.32393646 39.88856506 -0.33988953 C46.50348454 -0.34145012 51.47910235 0.30064514 56.875 4.4375 C60.33424652 9.24200905 59.39679355 16.40745696 59 22 C57.9375 25.5625 57.9375 25.5625 56 28 C52.40124245 29.89752671 48.93179731 31.05809691 45 32 C46.18707084 33.0421557 47.37468641 34.08369093 48.5625 35.125 C49.22378906 35.70507812 49.88507812 36.28515625 50.56640625 36.8828125 C53.69626541 39.60573973 56.84736883 42.30350134 60 45 C60.28609131 44.47792969 60.57218262 43.95585937 60.86694336 43.41796875 C66.54188544 33.06734569 72.248451 22.73681305 78.05078125 12.45703125 C80.38619796 8.31505974 82.69708329 4.1601076 85 0 C89.95 0 94.9 0 100 0 C100.96679688 1.74023438 101.93359375 3.48046875 102.9296875 5.2734375 C103.86929321 6.96448608 103.86929321 6.96448608 104.82788086 8.68969727 C106.19660855 11.15332469 107.56453442 13.61739499 108.93188477 16.08178711 C112.01585488 21.63867858 115.10333606 27.19330229 118.22265625 32.73046875 C118.68752441 33.55820801 119.15239258 34.38594727 119.63134766 35.23876953 C120.4856438 36.75861826 121.3432602 38.27660669 122.20458984 39.79248047 C125 44.77612567 125 44.77612567 125 47 C120.71 47 116.42 47 112 47 C110.35 44.03 108.7 41.06 107 38 C97.43 38 87.86 38 78 38 C76.35 40.97 74.7 43.94 73 47 C49.20967128 49.4280928 49.20967128 49.4280928 42.47558594 45.54394531 C39.69340764 43.06784587 37.43991109 40.3601062 35.14208984 37.43896484 C32.11836873 33.73123259 30.16637832 31.60261879 25.328125 30.78125 C21.12605333 30.37501868 17.30077047 30.7511951 13 31 C13 36.28 13 41.56 13 47 C8.71 47 4.42 47 0 47 C0 31.49 0 15.98 0 0 Z " fill="#F5F5F5" transform="translate(760,425)"/>
<path d="M0 0 C3.96 0 7.92 0 12 0 C10.61704868 31.8078803 -3.97280987 62.75544731 -25.90625 85.76171875 C-28.16792332 88.17951504 -30.19845132 90.71461499 -32.25 93.3125 C-36.31967794 98.35660787 -40.7510493 102.90209399 -45.39550781 107.40942383 C-47.96208787 109.90935483 -50.40230279 112.41615142 -52.671875 115.19140625 C-54.53868524 117.44348103 -56.26806642 119.26843707 -58.5 121.125 C-61.14756521 123.37340938 -63.73285682 125.66685913 -66.265625 128.04296875 C-67.12704102 128.85000244 -67.12704102 128.85000244 -68.00585938 129.67333984 C-69.15106471 130.74961485 -70.29310489 131.82926967 -71.43164062 132.91259766 C-74.15276713 135.46180293 -76.60726781 137.46126084 -80 139 C-80.825 139.825 -81.65 140.65 -82.5 141.5 C-84.6790194 143.6790194 -86.19517152 144.8572921 -89 146 C-89 146.66 -89 147.32 -89 148 C-89.9590625 148.1546875 -89.9590625 148.1546875 -90.9375 148.3125 C-91.618125 148.539375 -92.29875 148.76625 -93 149 C-93.33 149.99 -93.66 150.98 -94 152 C-95.49047852 153.3503418 -95.49047852 153.3503418 -97.37890625 154.69921875 C-98.05244141 155.18583984 -98.72597656 155.67246094 -99.41992188 156.17382812 C-100.12697266 156.67333984 -100.83402344 157.17285156 -101.5625 157.6875 C-102.27341797 158.19861328 -102.98433594 158.70972656 -103.71679688 159.23632812 C-105.47309098 160.49755946 -107.23593636 161.74965887 -109 163 C-111.50242258 159.24636612 -111.26213712 156.34047086 -111.1875 152 C-111.17960449 151.21197998 -111.17170898 150.42395996 -111.16357422 149.61206055 C-111.08043687 143.67593654 -110.89005378 137.74315142 -110.625 131.8125 C-110.5789563 130.64750977 -110.5789563 130.64750977 -110.53198242 129.45898438 C-109.93854348 118.12589778 -109.93854348 118.12589778 -106.01953125 113.828125 C-101.77096831 111.25590319 -97.31182277 109.53531735 -92.6875 107.75 C-72.50587268 99.7068258 -52.90044236 89.80163065 -36 76 C-34.58267578 74.86498047 -34.58267578 74.86498047 -33.13671875 73.70703125 C-12.68765373 56.36916561 -5.9629681 29.16820416 -1.40136719 3.80908203 C-1 2 -1 2 0 0 Z " fill="#084F75" transform="translate(875,223)"/>
<path d="M0 0 C6.249375 -0.061875 12.49875 -0.12375 18.9375 -0.1875 C20.89163818 -0.21481201 22.84577637 -0.24212402 24.85913086 -0.27026367 C26.4360289 -0.27903871 28.01293383 -0.28668023 29.58984375 -0.29296875 C30.38588013 -0.30831665 31.1819165 -0.32366455 32.0020752 -0.33947754 C40.04956911 -0.34316736 47.79950024 1.66468625 54 7 C57.75106593 12.53274063 58.60923698 17.55467536 58.4375 24.125 C58.44458984 24.89714844 58.45167969 25.66929687 58.45898438 26.46484375 C58.39551407 32.19670059 57.26789988 36.37282885 53.421875 40.828125 C52.87015625 41.29734375 52.3184375 41.7665625 51.75 42.25 C51.20859375 42.72953125 50.6671875 43.2090625 50.109375 43.703125 C44.23816021 47.31283483 38.02144879 47.27570057 31.34765625 47.1953125 C30.54871948 47.19329834 29.74978271 47.19128418 28.92663574 47.18920898 C25.97186455 47.17882709 23.01717587 47.15090514 20.0625 47.125 C13.441875 47.08375 6.82125 47.0425 0 47 C0 31.49 0 15.98 0 0 Z " fill="#F9F9F9" transform="translate(888,425)"/>
<path d="M0 0 C4.29 0 8.58 0 13 0 C13 12.54 13 25.08 13 38 C23.23 38 33.46 38 44 38 C44.495 40.97 44.495 40.97 45 44 C49.76023295 36.2231725 54.22005111 28.29455609 58.625 20.3125 C59.92896523 17.95402654 61.23398464 15.59613953 62.5390625 13.23828125 C63.14008789 12.15240723 63.74111328 11.0665332 64.36035156 9.94775391 C66.21363134 6.61593437 68.09494004 3.30242628 70 0 C74.95 0 79.9 0 85 0 C87.49064407 4.42304034 89.98006138 8.84673766 92.46679688 13.27197266 C93.56149263 15.21976411 94.65658904 17.16733041 95.75195312 19.11474609 C97.62776686 22.45067667 99.50154634 25.78774353 101.375 29.125 C101.98166504 30.20322021 102.58833008 31.28144043 103.21337891 32.39233398 C103.79007324 33.42044189 104.36676758 34.4485498 104.9609375 35.5078125 C105.47446777 36.42191895 105.98799805 37.33602539 106.51708984 38.27783203 C108.0808689 41.14845049 109.53809335 44.0761867 111 47 C106.38 47 101.76 47 97 47 C95.35 44.03 93.7 41.06 92 38 C87.98079576 37.75152342 83.96459178 37.57082264 79.93945312 37.45068359 C78.57310115 37.40059264 77.2072802 37.3324854 75.84277344 37.24560547 C73.87413948 37.12346395 71.90149079 37.07273258 69.9296875 37.0234375 C68.74616699 36.97106934 67.56264648 36.91870117 66.34326172 36.86474609 C62.88286844 37.63040551 62.88286844 37.63040551 61.69387817 40.25845337 C61.2612265 41.16316376 60.82857483 42.06787415 60.3828125 43 C57.8188668 47.73223475 57.8188668 47.73223475 54.27810669 48.89004517 C50.79528059 49.15762185 47.43543319 49.12471968 43.9453125 48.9765625 C42.68862762 48.96241302 41.43194275 48.94826355 40.13717651 48.9336853 C36.81014099 48.88726636 33.49007933 48.79765223 30.16497803 48.68664551 C26.76685683 48.58395866 23.36799026 48.53804613 19.96875 48.48828125 C13.30859598 48.38663055 6.6605831 48.19103011 0 48 C0 32.16 0 16.32 0 0 Z " fill="#EEEEEE" transform="translate(629,425)"/>
<path d="M0 0 C6.85085555 -0.09199209 13.69955529 -0.17158531 20.55053711 -0.21972656 C22.87938715 -0.23980146 25.20818705 -0.26706736 27.53686523 -0.30175781 C30.89058838 -0.35045591 34.24364317 -0.37301065 37.59765625 -0.390625 C38.63334244 -0.41127014 39.66902863 -0.43191528 40.73609924 -0.45318604 C47.05145165 -0.45513202 50.88349861 0.19983215 56 4 C58.53977065 7.80965598 58.36753945 10.95835509 58.375 15.375 C58.39949219 16.13039063 58.42398437 16.88578125 58.44921875 17.6640625 C58.46829835 21.30190694 58.21930161 23.5719514 56.5390625 26.8515625 C53.04880421 29.80485798 49.37410474 30.85039555 45 32 C45.42410156 32.41886475 45.84820313 32.83772949 46.28515625 33.26928711 C48.19267849 35.15610959 50.09637933 37.04674163 52 38.9375 C52.66773438 39.59685547 53.33546875 40.25621094 54.0234375 40.93554688 C54.65507813 41.56396484 55.28671875 42.19238281 55.9375 42.83984375 C56.52402344 43.42113037 57.11054687 44.00241699 57.71484375 44.60131836 C59 46 59 46 59 47 C53.1385834 48.03436764 47.13459012 49.01776849 41.91552734 45.65820312 C37.53122708 41.97349157 33.26973599 37.72202022 30 33 C30 32.34 30 31.68 30 31 C24.39 31 18.78 31 13 31 C13 36.28 13 41.56 13 47 C8.71 47 4.42 47 0 47 C0 31.49 0 15.98 0 0 Z " fill="#F5F5F5" transform="translate(1014,425)"/>
<path d="M0 0 C16.83 0 33.66 0 51 0 C51 3.3 51 6.6 51 10 C38.46 10 25.92 10 13 10 C13 12.97 13 15.94 13 19 C23.89 19 34.78 19 46 19 C46 21.97 46 24.94 46 28 C35.11 28 24.22 28 13 28 C13 31.3 13 34.6 13 38 C25.54 38 38.08 38 51 38 C51 40.97 51 43.94 51 47 C34.17 47 17.34 47 0 47 C0 31.49 0 15.98 0 0 Z " fill="#F3F3F3" transform="translate(515,425)"/>
<path d="M0 0 C7.17810175 1.27271308 12.91053162 3.61767881 19.3125 7.0625 C20.23458252 7.55347168 21.15666504 8.04444336 22.10668945 8.55029297 C29.28780803 12.45188039 35.75667873 16.69888727 42 22 C42.86625 22.72832031 43.7325 23.45664063 44.625 24.20703125 C65.0747782 42.00706685 82.02445998 68.443912 85 96 C85.13885238 100.01714292 85.09353462 103.97801146 85 108 C81.37 108 77.74 108 74 108 C73.87044922 106.52853516 73.87044922 106.52853516 73.73828125 105.02734375 C70.90109867 76.44112129 55.9582552 50.60158826 34.3125 31.9375 C23.34443764 23.093632 12.2751546 16.74112664 -1 12 C-1.13392857 3.96428571 -1.13392857 3.96428571 0 0 Z " fill="#EA030F" transform="translate(802,108)"/>
<path d="M0 0 C0.9029631 0.0028299 1.80592621 0.00565979 2.73625183 0.00857544 C5.60946109 0.01973643 8.4823543 0.04483353 11.35546875 0.0703125 C13.30793819 0.08034757 15.26041254 0.0894725 17.21289062 0.09765625 C21.98970441 0.11966242 26.76628306 0.15416419 31.54296875 0.1953125 C31.54296875 3.4953125 31.54296875 6.7953125 31.54296875 10.1953125 C12.73296875 10.6903125 12.73296875 10.6903125 -6.45703125 11.1953125 C-6.45703125 13.5053125 -6.45703125 15.8153125 -6.45703125 18.1953125 C-5.48878418 18.2046582 -4.52053711 18.21400391 -3.52294922 18.22363281 C0.08932522 18.26368033 3.7007611 18.32947804 7.3125 18.40283203 C8.87196025 18.43095663 10.43156079 18.45221339 11.99121094 18.46630859 C14.24096048 18.48785792 16.48903849 18.53456307 18.73828125 18.5859375 C19.77458176 18.58778046 19.77458176 18.58778046 20.83181763 18.58966064 C25.8239989 18.73875827 28.6968968 20.06063212 32.54296875 23.1953125 C35.53387129 27.6816663 35.00567629 31.93660457 34.54296875 37.1953125 C33.70852329 41.09406607 32.47174319 43.56647205 29.07763672 45.86450195 C24.32466615 47.65400621 20.14733884 47.57004181 15.11328125 47.48828125 C14.12294891 47.48403641 13.13261658 47.47979156 12.11227417 47.47541809 C8.9638903 47.45868872 5.81615762 47.42104669 2.66796875 47.3828125 C0.52735303 47.36775826 -1.61327278 47.35407115 -3.75390625 47.34179688 C-8.98853035 47.30880392 -14.22267057 47.25706086 -19.45703125 47.1953125 C-19.45703125 44.2253125 -19.45703125 41.2553125 -19.45703125 38.1953125 C-5.92703125 37.8653125 7.60296875 37.5353125 21.54296875 37.1953125 C21.04796875 33.2353125 21.04796875 33.2353125 20.54296875 29.1953125 C19.03730347 29.18129395 19.03730347 29.18129395 17.5012207 29.16699219 C13.76412165 29.12701019 10.02783877 29.06122994 6.29125977 28.98779297 C4.67645786 28.95963064 3.06151932 28.9383925 1.4465332 28.92431641 C-0.88010362 28.90281992 -3.20510602 28.85614039 -5.53125 28.8046875 C-6.24915207 28.80345886 -6.96705414 28.80223022 -7.70671082 28.80096436 C-12.53659389 28.660975 -15.10227026 27.68359828 -18.45703125 24.1953125 C-20.27975228 18.7271494 -20.90162483 11.4441495 -18.515625 6.078125 C-13.51922847 -0.21827439 -7.3541907 -0.08715561 0 0 Z " fill="#F5F5F5" transform="translate(589.45703125,424.8046875)"/>
<path d="M0 0 C4.95 0 9.9 0 15 0 C21.09960906 10.60246181 27.16576115 21.22054689 33.0625 31.9375 C33.51471924 32.75831055 33.96693848 33.57912109 34.43286133 34.42480469 C36.71284075 38.58340429 38.8764597 42.75291941 41 47 C36.38 47 31.76 47 27 47 C26.48050781 45.53691406 25.96101562 44.07382812 25.42578125 42.56640625 C24.1391133 39.98926117 24.1391133 39.98926117 22 38 C17.09561597 36.68997196 12.22657015 36.82982499 7.1875 36.9375 C5.81313583 36.93442319 4.43877439 36.92730335 3.06445312 36.91601562 C-0.29247079 36.90423694 -3.64385826 36.93369566 -7 37 C-7.30510498 37.76739502 -7.61020996 38.53479004 -7.92456055 39.32543945 C-10.04074786 44.5882844 -10.04074786 44.5882844 -12 47 C-15.13671875 47.48828125 -15.13671875 47.48828125 -18.6875 47.3125 C-19.86699219 47.26738281 -21.04648437 47.22226562 -22.26171875 47.17578125 C-23.61716797 47.08876953 -23.61716797 47.08876953 -25 47 C-23.50602958 42.9974798 -21.6267124 39.35662011 -19.55078125 35.625 C-19.21507614 35.01922119 -18.87937103 34.41344238 -18.53349304 33.78930664 C-17.46258637 31.8579913 -16.38774206 29.92890443 -15.3125 28 C-13.9115211 25.47985387 -12.51218094 22.95880076 -11.11328125 20.4375 C-10.77112579 19.82140869 -10.42897034 19.20531738 -10.07644653 18.57055664 C-6.66103374 12.41037922 -3.32662986 6.20854642 0 0 Z " fill="#F8F8F8" transform="translate(970,425)"/>
<path d="M0 0 C4.95 0 9.9 0 15 0 C15.96679688 1.74023438 16.93359375 3.48046875 17.9296875 5.2734375 C18.86929321 6.96448608 18.86929321 6.96448608 19.82788086 8.68969727 C21.19660855 11.15332469 22.56453442 13.61739499 23.93188477 16.08178711 C27.01585488 21.63867858 30.10333606 27.19330229 33.22265625 32.73046875 C33.9199585 33.97207764 33.9199585 33.97207764 34.63134766 35.23876953 C35.4856438 36.75861826 36.3432602 38.27660669 37.20458984 39.79248047 C40 44.77612567 40 44.77612567 40 47 C35.71 47 31.42 47 27 47 C25.35 44.03 23.7 41.06 22 38 C12.43 38 2.86 38 -7 38 C-8.65 40.97 -10.3 43.94 -12 47 C-16.62 47 -21.24 47 -26 47 C-20.95488894 37.39488471 -15.71655564 27.93435478 -10.31054688 18.52783203 C-6.78782832 12.39472928 -3.34785107 6.23072282 0 0 Z " fill="#F8F8F9" transform="translate(845,425)"/>
<path d="M0 0 C4.95 0 9.9 0 15 0 C15.556875 2.2275 16.11375 4.455 16.6875 6.75 C21.74148584 25.88947764 30.94581325 41.99859013 48.34887695 52.3190918 C52.42948106 54.66255386 56.5275591 56.83605219 60.86328125 58.6640625 C64 60 64 60 65 61 C65.39943176 63.52195967 65.75079848 66.02963656 66.0625 68.5625 C66.19881836 69.62887695 66.19881836 69.62887695 66.33789062 70.71679688 C66.56239503 72.47738403 66.78168397 74.23863478 67 76 C48.78337311 74.24840126 30.57062119 60.76232434 18.875 47.5 C7.84787716 33.71609645 0.94335132 17.68783725 0 0 Z " fill="#0068A5" transform="translate(676,222)"/>
<path d="M0 0 C-3.38158211 11.55373888 -3.38158211 11.55373888 -8.8359375 14.56640625 C-11.11021984 15.5816162 -13.39460173 16.57444047 -15.6875 17.546875 C-32.48487593 24.91553519 -44.05354025 39.38339263 -51 56 C-53.50041176 63.57906911 -54.4776382 71.06010071 -55 79 C-59.95 79 -64.9 79 -70 79 C-71.16063604 60.04294466 -62.96713898 41.90887311 -50.6875 27.875 C-49.14359304 26.23232458 -47.58095876 24.60704719 -46 23 C-45.23945312 22.2265625 -44.47890625 21.453125 -43.6953125 20.65625 C-34.90749782 12.24299791 -24.76114028 6.83411734 -13.5 2.5 C-12.51265869 2.11678589 -12.51265869 2.11678589 -11.50537109 1.72583008 C-7.54200675 0.28575708 -4.20638796 -0.25965358 0 0 Z " fill="#5BA5D1" transform="translate(746,136)"/>
<path d="M0 0 C3.96 0 7.92 0 12 0 C11.03983931 19.92333441 3.3235082 36.34888245 -10 51 C-10.90105469 52.04027344 -10.90105469 52.04027344 -11.8203125 53.1015625 C-22.01018513 64.17367519 -35.86255948 71.34404903 -50 76 C-51.32 76 -52.64 76 -54 76 C-53.56856647 74.62308448 -53.12948836 73.24856381 -52.6875 71.875 C-52.44386719 71.10929687 -52.20023438 70.34359375 -51.94921875 69.5546875 C-49.32136696 62.48219751 -47.04264282 59.9153848 -40.4375 56.625 C-22.68291101 47.18988628 -9.08430123 33.05062459 -3.0625 13.5625 C-1.71450584 9.08715938 -0.67964202 4.62871989 0 0 Z " fill="#0F77A0" transform="translate(837,222)"/>
<path d="M0 0 C20.46 0 40.92 0 62 0 C62 3.3 62 6.6 62 10 C53.75 10 45.5 10 37 10 C37 22.21 37 34.42 37 47 C33.04 47 29.08 47 25 47 C25 34.79 25 22.58 25 10 C16.75 10 8.5 10 0 10 C0 6.7 0 3.4 0 0 Z " fill="#F4F4F4" transform="translate(448,425)"/>
<path d="M0 0 C3.465 -0.061875 6.93 -0.12375 10.5 -0.1875 C12.11358398 -0.22846802 12.11358398 -0.22846802 13.75976562 -0.27026367 C20.9274299 -0.33175747 26.66325693 0.41402412 32.5 4.9375 C35.38477255 10.82724396 34.81568469 17.41699849 32.875 23.5625 C30.40167438 26.77782331 28.85262663 27.57975205 25 29 C20.69967553 29.36151202 16.43647407 29.28166246 12.125 29.1875 C8.12375 29.125625 4.1225 29.06375 0 29 C0 19.43 0 9.86 0 0 Z " fill="#090909" transform="translate(900,434)"/>
<path d="M0 0 C3.96 0 7.92 0 12 0 C12 12.21 12 24.42 12 37 C21.9 37 31.8 37 42 37 C42 39.97 42 42.94 42 46 C28.14 46 14.28 46 0 46 C0 30.82 0 15.64 0 0 Z " fill="#FCFCFC" transform="translate(630,426)"/>
<path d="M0 0 C0.33 0.66 0.66 1.32 1 2 C0.0390625 4.42578125 0.0390625 4.42578125 -1.375 7.3125 C-8.54243476 21.98772256 -7.04188099 44.70312334 -2 60 C-1.70198486 60.93295898 -1.70198486 60.93295898 -1.39794922 61.88476562 C3.58565082 77.22006821 11.45369142 90.06724211 21.70581055 102.43505859 C22.56682109 103.47619754 23.41737484 104.52607549 24.25708008 105.58447266 C26.98870291 108.98733104 29.86551287 111.70932996 33.3125 114.375 C34.19550781 115.06335938 35.07851563 115.75171875 35.98828125 116.4609375 C36.65214844 116.96882813 37.31601562 117.47671875 38 118 C34.67205806 118 34.12293881 117.63190409 31.55859375 115.7265625 C30.89746582 115.23687988 30.23633789 114.74719727 29.55517578 114.24267578 C28.85634277 113.70884277 28.15750977 113.17500977 27.4375 112.625 C26.71804199 112.0769873 25.99858398 111.52897461 25.25732422 110.96435547 C4.41789088 94.84010705 -9.88953352 72.2566532 -14 46 C-15.04502084 28.77725261 -10.88318176 13.6039772 0 0 Z " fill="#139BDB" transform="translate(623,187)"/>
<path d="M0 0 C7.11841281 5.89811347 10.44234303 15.05248323 12 24 C13.1077029 36.43497711 12.59611102 48.32669148 8 60 C7.75330566 60.64662598 7.50661133 61.29325195 7.25244141 61.95947266 C-0.51661998 82.08081703 -15.28471179 99.69101228 -33 112 C-33.66 111.67 -34.32 111.34 -35 111 C-34.2265625 110.26136719 -33.453125 109.52273438 -32.65625 108.76171875 C-25.98446 102.30150998 -20.1325346 95.78470206 -15 88 C-13.98292969 86.48986328 -13.98292969 86.48986328 -12.9453125 84.94921875 C-7.78068771 76.96841177 -4.23083643 68.88226817 -1 60 C-0.52240234 58.78376953 -0.52240234 58.78376953 -0.03515625 57.54296875 C5.96620121 41.44977636 6.08474557 21.25537832 1 5 C0.64717692 3.33735008 0.30799303 1.67153498 0 0 Z " fill="#219CDB" transform="translate(904,191)"/>
<path d="M0 0 C0.495 0.99 0.495 0.99 1 2 C0.37353516 3.87475586 0.37353516 3.87475586 -0.7109375 6.21484375 C-1.12263184 7.11041992 -1.53432617 8.00599609 -1.95849609 8.92871094 C-2.65966553 10.41806152 -2.65966553 10.41806152 -3.375 11.9375 C-3.86178223 12.98583008 -4.34856445 14.03416016 -4.85009766 15.11425781 C-9.96080235 26.0525178 -15.26262795 36.89989791 -20.57519531 47.74121094 C-24.05264667 54.84932876 -27.47908733 61.97061935 -30.734375 69.18359375 C-31.0257132 69.82597992 -31.31705139 70.46836609 -31.61721802 71.13021851 C-32.97167522 74.11957878 -34.31118969 77.11316293 -35.62646484 80.12011719 C-39.6086906 88.95723773 -44.6101118 95.18717324 -51.9375 101.5 C-52.70964844 102.1703125 -53.48179687 102.840625 -54.27734375 103.53125 C-54.84582031 104.0159375 -55.41429687 104.500625 -56 105 C-56.33 104.34 -56.66 103.68 -57 103 C-56.20239258 100.91894531 -56.20239258 100.91894531 -54.89453125 98.328125 C-54.41193848 97.36527588 -53.9293457 96.40242676 -53.43212891 95.41040039 C-52.89765137 94.36746826 -52.36317383 93.32453613 -51.8125 92.25 C-51.26513184 91.17032959 -50.71776367 90.09065918 -50.15380859 88.97827148 C-44.65428791 78.19741506 -38.88269389 67.57544631 -33 57 C-32.45085938 56.00887207 -31.90171875 55.01774414 -31.3359375 53.99658203 C-24.81993425 42.24211385 -18.20442691 30.54948197 -11.4375 18.9375 C-10.86596191 17.95668457 -10.29442383 16.97586914 -9.70556641 15.96533203 C-6.55621465 10.58631766 -3.33198273 5.26788332 0 0 Z " fill="#FADADE" transform="translate(776,117)"/>
<path d="M0 0 C4.52065428 -0.049377 9.04115217 -0.08570823 13.56201172 -0.10986328 C15.10045098 -0.11993118 16.63887107 -0.13358646 18.17724609 -0.15087891 C20.38644133 -0.17509317 22.59538395 -0.18647491 24.8046875 -0.1953125 C25.49432587 -0.20563507 26.18396423 -0.21595764 26.89450073 -0.22659302 C28.59800906 -0.22699478 30.30085943 -0.12191026 32 0 C34 2 34 2 34.25 5.4375 C34 9 34 9 32 12 C29.51659097 12.26727014 27.28527932 12.34866334 24.8046875 12.29296875 C24.09724396 12.28872391 23.38980042 12.28447906 22.66091919 12.28010559 C20.39856095 12.26329547 18.13708952 12.22564128 15.875 12.1875 C14.34246077 12.17245607 12.8099076 12.15876716 11.27734375 12.14648438 C7.51788682 12.11338462 3.75909382 12.06158825 0 12 C0 8.04 0 4.08 0 0 Z " fill="#050505" transform="translate(773,435)"/>
<path d="M0 0 C4.53897705 -0.02465392 9.07791543 -0.04283789 13.61694336 -0.05493164 C15.16219766 -0.0599714 16.70744716 -0.0668032 18.25268555 -0.07543945 C20.46925029 -0.08752076 22.68575218 -0.09323173 24.90234375 -0.09765625 C25.5971434 -0.10281754 26.29194305 -0.10797882 27.00779724 -0.11329651 C28.6722933 -0.11349277 30.33665499 -0.06189129 32 0 C33.58894072 1.58894072 33.16998411 3.24801424 33.1875 5.4375 C33.20167969 6.24058594 33.21585938 7.04367187 33.23046875 7.87109375 C33 10 33 10 31 12 C27.92724609 12.22705078 27.92724609 12.22705078 24.0234375 12.1953125 C23.33819 12.1924826 22.6529425 12.18965271 21.94692993 12.18673706 C19.75610973 12.17553281 17.56569684 12.15042859 15.375 12.125 C13.8906309 12.11497048 12.4062554 12.10584458 10.921875 12.09765625 C7.28111739 12.07559294 3.64059844 12.04106176 0 12 C0 8.04 0 4.08 0 0 Z " fill="#030302" transform="translate(1027,435)"/>
<path d="M0 0 C1.1132024 0.00128403 1.1132024 0.00128403 2.24889374 0.00259399 C11.35345234 0.01388501 20.45797857 0.03381113 29.5625 0.0625 C29.5625 1.3825 29.5625 2.7025 29.5625 4.0625 C0.55703131 4.20353497 -28.43557193 3.98563539 -57.4375 3.5625 C-58.25737396 3.55054218 -59.07724792 3.53858437 -59.92196655 3.52626419 C-70.09390044 3.37738208 -80.26573795 3.22270551 -90.4375 3.0625 C-90.7675 2.4025 -91.0975 1.7425 -91.4375 1.0625 C-60.95479117 0.35853487 -30.49007781 -0.03542269 0 0 Z " fill="#357EAA" transform="translate(561.4375,505.9375)"/>
<path d="M0 0 C65.52312284 -0.1940637 65.52312284 -0.1940637 92.06195068 0.31838989 C94.01359249 0.35599398 95.96529821 0.39042078 97.91705322 0.42160034 C100.59087307 0.46604737 103.26404681 0.5235266 105.9375 0.5859375 C107.09208206 0.60327187 107.09208206 0.60327187 108.26998901 0.62095642 C112.07683818 0.72842297 114.68356178 1.16896896 118 3 C107.14592991 3.17319621 96.29176515 3.33951807 85.4375 3.5 C84.63444805 3.51187725 83.8313961 3.5237545 83.00400925 3.53599167 C55.33426596 3.94295138 27.67308789 4.13776141 0 4 C0 2.68 0 1.36 0 0 Z " fill="#4AA8E2" transform="translate(935,506)"/>
<path d="M0 0 C3.27105248 -0.05386912 6.54122096 -0.09361007 9.8125 -0.125 C10.74126953 -0.14175781 11.67003906 -0.15851563 12.62695312 -0.17578125 C13.51962891 -0.18222656 14.41230469 -0.18867188 15.33203125 -0.1953125 C16.15421143 -0.20578613 16.9763916 -0.21625977 17.82348633 -0.22705078 C20 0 20 0 23 2 C23.46875 4.27734375 23.46875 4.27734375 23.5 6.9375 C23.5309375 7.81277344 23.561875 8.68804687 23.59375 9.58984375 C23 12 23 12 21.05078125 13.8046875 C16.85390837 15.44904487 13.14772602 15.32479188 8.6875 15.1875 C7.85154297 15.17396484 7.01558594 15.16042969 6.15429688 15.14648438 C4.10258502 15.11131217 2.05120725 15.05751048 0 15 C0 10.05 0 5.1 0 0 Z " fill="#4E9CCE" transform="translate(820,497)"/>
<path d="M0 0 C16.25591986 4.961836 30.05906672 18.64022723 40 32 C39.34 33.32 38.68 34.64 38 36 C37.01 36 36.02 36 35 36 C33.16015625 33.91015625 33.16015625 33.91015625 31.0625 31.0625 C22.70788621 20.56533202 12.00700611 14.52393328 0 9 C0 6.03 0 3.06 0 0 Z " fill="#71BDE4" transform="translate(797,141)"/>
<path d="M0 0 C0.66 0 1.32 0 2 0 C2.226875 0.804375 2.45375 1.60875 2.6875 2.4375 C3.120625 3.283125 3.55375 4.12875 4 5 C6.54775306 5.89386164 6.54775306 5.89386164 9 6 C9.33 7.32 9.66 8.64 10 10 C10.66 10 11.32 10 12 10 C12.33 9.01 12.66 8.02 13 7 C16.03752971 14.15989147 16.26721244 20.25083914 16 28 C12.37 28 8.74 28 5 28 C4.89042969 26.98421875 4.78085937 25.9684375 4.66796875 24.921875 C3.70408997 16.41486749 2.34627938 8.2589034 0 0 Z " fill="#B83144" transform="translate(871,188)"/>
<path d="M0 0 C3.17802587 3.17802587 3.98676533 6.53991473 4 11 C0.41095712 21.64648856 -7.91974939 28.94649959 -17 35 C-15.35815539 29.39571477 -12.81803311 24.37495778 -10.1875 19.1875 C-9.76146484 18.33607422 -9.33542969 17.48464844 -8.89648438 16.60742188 C-6.06918039 10.99130972 -3.09645518 5.47209076 0 0 Z " fill="#F9A5AB" transform="translate(736,187)"/>
<path d="M0 0 C2.3359375 -0.22265625 2.3359375 -0.22265625 5 0 C6.4765625 1.50390625 6.4765625 1.50390625 7.625 3.5625 C8.00914062 4.22378906 8.39328125 4.88507813 8.7890625 5.56640625 C10.32314065 8.64940846 11.64350423 11.83484319 13 15 C6.4 15 -0.2 15 -7 15 C-5.60854034 10.82562101 -4.49553763 7.80803904 -2.375 4.125 C-1.92898438 3.34382813 -1.48296875 2.56265625 -1.0234375 1.7578125 C-0.68570313 1.17773438 -0.34796875 0.59765625 0 0 Z " fill="#5CB4E8" transform="translate(898,497)"/>
<path d="M0 0 C3.37713186 3.03941868 5.26798794 6.0508641 7.25 10.125 C7.77078125 11.17945313 8.2915625 12.23390625 8.828125 13.3203125 C10 16 10 16 10 18 C3.73 18 -2.54 18 -9 18 C-7.41129508 13.23388525 -5.90790939 9.84651566 -3.375 5.625 C-2.74335937 4.56539063 -2.11171875 3.50578125 -1.4609375 2.4140625 C-0.73777344 1.21910156 -0.73777344 1.21910156 0 0 Z " fill="#0D0D0D" transform="translate(706,436)"/>
<path d="M0 0 C3.37713186 3.03941868 5.26798794 6.0508641 7.25 10.125 C7.77078125 11.17945313 8.2915625 12.23390625 8.828125 13.3203125 C10 16 10 16 10 18 C3.73 18 -2.54 18 -9 18 C-7.41129508 13.23388525 -5.90790939 9.84651566 -3.375 5.625 C-2.74335937 4.56539063 -2.11171875 3.50578125 -1.4609375 2.4140625 C-0.73777344 1.21910156 -0.73777344 1.21910156 0 0 Z " fill="#0C0C0C" transform="translate(852,436)"/>
<path d="M0 0 C6.30596952 1.10938353 11.37529486 2.93197901 17 6 C16.70351563 6.58265625 16.40703125 7.1653125 16.1015625 7.765625 C15.12782734 9.74071901 14.23274399 11.72260511 13.375 13.75 C12.92125 14.8225 12.4675 15.895 12 17 C7.71 15.35 3.42 13.7 -1 12 C-1.13392857 3.96428571 -1.13392857 3.96428571 0 0 Z " fill="#99030B" transform="translate(802,108)"/>
<path d="M0 0 C2.26171875 -0.36328125 2.26171875 -0.36328125 5 0 C7.01953125 2.51953125 7.01953125 2.51953125 8.8125 5.8125 C9.41707031 6.89144531 10.02164063 7.97039062 10.64453125 9.08203125 C12 12 12 12 12 15 C5.73 15 -0.54 15 -7 15 C-5.60854034 10.82562101 -4.49553763 7.80803904 -2.375 4.125 C-1.92898438 3.34382813 -1.48296875 2.56265625 -1.0234375 1.7578125 C-0.68570313 1.17773438 -0.34796875 0.59765625 0 0 Z " fill="#5DB4E8" transform="translate(786,497)"/>
<path d="M0 0 C3.37713186 3.03941868 5.26798794 6.0508641 7.25 10.125 C7.77078125 11.17945313 8.2915625 12.23390625 8.828125 13.3203125 C10 16 10 16 10 18 C3.73 18 -2.54 18 -9 18 C-7.33516769 13.83791923 -5.51455762 10.1100223 -3.375 6.1875 C-3.05015625 5.59001953 -2.7253125 4.99253906 -2.390625 4.37695312 C-1.59620849 2.91662865 -0.79844624 1.45812509 0 0 Z " fill="#0F0F0F" transform="translate(977,436)"/>
<path d="M0 0 C3.12551199 -0.08067765 6.24895891 -0.1403399 9.375 -0.1875 C10.70917969 -0.22520508 10.70917969 -0.22520508 12.0703125 -0.26367188 C13.34648438 -0.27817383 13.34648438 -0.27817383 14.6484375 -0.29296875 C15.82672119 -0.31653442 15.82672119 -0.31653442 17.02880859 -0.34057617 C17.67930176 -0.22818604 18.32979492 -0.1157959 19 0 C19.66 0.99 20.32 1.98 21 3 C20.25 5.625 20.25 5.625 19 8 C18.01 8.495 18.01 8.495 17 9 C17 7.35 17 5.7 17 4 C13.04 4 9.08 4 5 4 C5 5.65 5 7.3 5 9 C8.63 9 12.26 9 16 9 C16 9.99 16 10.98 16 12 C12.37 12 8.74 12 5 12 C5 12.99 5 13.98 5 15 C3.35 15 1.7 15 0 15 C0 10.05 0 5.1 0 0 Z " fill="#56A1D1" transform="translate(614,497)"/>
<path d="M0 0 C0.33 0.66 0.66 1.32 1 2 C0.24658203 4.12866211 0.24658203 4.12866211 -0.9921875 6.77734375 C-1.67317505 8.2478418 -1.67317505 8.2478418 -2.36791992 9.74804688 C-2.86525635 10.80056641 -3.36259277 11.85308594 -3.875 12.9375 C-4.37298096 14.00677734 -4.87096191 15.07605469 -5.3840332 16.17773438 C-6.91386406 19.4560477 -8.45527883 22.72867999 -10 26 C-10.46486816 26.98758301 -10.92973633 27.97516602 -11.40869141 28.99267578 C-13.92443571 34.33551432 -16.4549331 39.67106981 -19 45 C-20.98 44.67 -22.96 44.34 -25 44 C-20.97740664 35.70565057 -16.62188161 27.68756538 -11.9375 19.75 C-11.33873047 18.72648437 -10.73996094 17.70296875 -10.12304688 16.6484375 C-6.83378488 11.0426416 -3.47539699 5.4923098 0 0 Z " fill="#E9848B" transform="translate(776,117)"/>
<path d="M0 0 C6.86457211 5.96494158 8.07315312 17.43260766 9 26 C9.1245838 28.69516277 9.10380646 31.30103216 9 34 C7.35 34 5.7 34 4 34 C3.85304688 32.69289063 3.85304688 32.69289063 3.703125 31.359375 C2.79167589 24.09921137 1.43511574 17.55402339 -1.1953125 10.71875 C-2.10412531 7.64819797 -2.27742462 5.18590852 -2 2 C-1.34 1.34 -0.68 0.68 0 0 Z " fill="#66B7DE" transform="translate(840,181)"/>
<path d="M0 0 C9.30173673 2.78642334 16.89228422 8.52408118 24 15 C14.86241616 17.58497438 7.88979128 13.29993625 0 9 C0 6.03 0 3.06 0 0 Z " fill="#0D5D8C" transform="translate(797,141)"/>
<path d="M0 0 C2.78736383 -0.24312125 5.34572013 -0.29381511 8.12890625 -0.2109375 C8.96660049 -0.19791595 9.80429474 -0.18489441 10.66737366 -0.17147827 C12.48858874 -0.1417631 14.30970499 -0.10543718 16.13067627 -0.06335449 C19.02317755 0.00051176 21.91509741 0.0402607 24.80810547 0.07324219 C29.82823714 0.13298416 34.84742878 0.21904788 39.86694336 0.31738281 C41.94076399 0.35629684 44.0146668 0.39102356 46.08862305 0.421875 C49.13094096 0.4673499 52.17279653 0.52522127 55.21484375 0.5859375 C56.14078842 0.59748871 57.06673309 0.60903992 58.02073669 0.62094116 C58.88006302 0.64081085 59.73938934 0.66068054 60.62475586 0.68115234 C61.75124794 0.70113785 61.75124794 0.70113785 62.90049744 0.7215271 C65 1 65 1 69 3 C45.57 3 22.14 3 -2 3 C-1.34 2.01 -0.68 1.02 0 0 Z " fill="#3279A3" transform="translate(984,506)"/>
<path d="M0 0 C0.66 0 1.32 0 2 0 C2.18029057 8.834238 0.4636214 17.32118251 -1 26 C-1.165 27.07121094 -1.33 28.14242187 -1.5 29.24609375 C-2 32 -2 32 -3 34 C-3.99 34 -4.98 34 -6 34 C-6.20753906 34.75023437 -6.41507813 35.50046875 -6.62890625 36.2734375 C-8.92744541 43.9095885 -12.0729391 49.74429346 -17 56 C-17.33 55.34 -17.66 54.68 -18 54 C-16.8569054 51.54748751 -15.65486029 49.19232726 -14.375 46.8125 C-6.69062106 31.93530162 -3.2260032 16.32357617 0 0 Z " fill="#159EDB" transform="translate(874,226)"/>
<path d="M0 0 C0.66 0 1.32 0 2 0 C2 4 2 8 2 12 C-3.61 12 -9.22 12 -15 12 C-15 11.01 -15 10.02 -15 9 C-11.7 8.67 -8.4 8.34 -5 8 C-5 7.67 -5 7.34 -5 7 C-8.3 6.67 -11.6 6.34 -15 6 C-15 4.35 -15 2.7 -15 1 C-11.04 1 -7.08 1 -3 1 C-2.67 2.32 -2.34 3.64 -2 5 C-1.34 3.35 -0.68 1.7 0 0 Z " fill="#3F7495" transform="translate(634,500)"/>
<path d="M0 0 C0.78826172 0.02255859 1.57652344 0.04511719 2.38867188 0.06835938 C4.32243929 0.12695839 6.25522167 0.21663173 8.1875 0.3125 C8.1875 1.6325 8.1875 2.9525 8.1875 4.3125 C7.11628906 4.37308594 6.04507813 4.43367188 4.94140625 4.49609375 C3.54425609 4.58048537 2.14712143 4.66513406 0.75 4.75 C-0.31057617 4.80897461 -0.31057617 4.80897461 -1.39257812 4.86914062 C-4.89940419 4.78874438 -4.89940419 4.78874438 -7.8125 6.3125 C-8.04442865 7.82719448 -8.22465238 9.35004562 -8.375 10.875 C-8.45878906 11.70128906 -8.54257812 12.52757812 -8.62890625 13.37890625 C-8.68949219 14.01699219 -8.75007812 14.65507812 -8.8125 15.3125 C-10.4625 15.3125 -12.1125 15.3125 -13.8125 15.3125 C-13.9488128 13.75247572 -14.04509126 12.18892824 -14.125 10.625 C-14.21201172 9.31982422 -14.21201172 9.31982422 -14.30078125 7.98828125 C-12.84159543 -0.00805706 -6.72643148 -0.36648621 0 0 Z " fill="#55ACE0" transform="translate(748.8125,496.6875)"/>
<path d="M0 0 C3.36220784 3.18361481 6.16148156 6.68497855 8.9375 10.375 C15.86265471 19.57860405 15.86265471 19.57860405 24.3125 27.375 C25.19550781 28.06335938 26.07851563 28.75171875 26.98828125 29.4609375 C27.65214844 29.96882813 28.31601562 30.47671875 29 31 C25.67205806 31 25.12293881 30.63190409 22.55859375 28.7265625 C21.56617676 27.99107178 21.56617676 27.99107178 20.55371094 27.24072266 C19.85536133 26.70753418 19.15701172 26.1743457 18.4375 25.625 C17.72239258 25.08278809 17.00728516 24.54057617 16.27050781 23.98193359 C8.50872562 17.99692383 0.9658821 11.57743271 -4 3 C-2.02 3.99 -2.02 3.99 0 5 C0 3.35 0 1.7 0 0 Z " fill="#0078BC" transform="translate(632,274)"/>
<path d="M0 0 C1.1707608 0.0001133 1.1707608 0.0001133 2.36517334 0.00022888 C3.19760559 0.00539017 4.03003784 0.01055145 4.88769531 0.01586914 C5.74768127 0.01728409 6.60766724 0.01869904 7.49371338 0.02015686 C10.2344514 0.02574442 12.97510707 0.03829465 15.71582031 0.05102539 C17.57649621 0.056042 19.4371734 0.06060462 21.29785156 0.06469727 C25.85387277 0.07570978 30.40983259 0.09296588 34.96582031 0.11352539 C34.96582031 1.10352539 34.96582031 2.09352539 34.96582031 3.11352539 C19.45582031 3.11352539 3.94582031 3.11352539 -12.03417969 3.11352539 C-7.75280065 0.97283587 -4.72974638 -0.01535632 0 0 Z " fill="#56C1F9" transform="translate(556.0341796875,505.886474609375)"/>
<path d="M0 0 C2.61205543 2.37106222 4.21874263 4.90490933 6 7.9375 C10.21344505 14.71525677 15.48332983 20.28381193 21 26 C20.34 26.33 19.68 26.66 19 27 C19.515625 27.763125 20.03125 28.52625 20.5625 29.3125 C21.036875 30.199375 21.51125 31.08625 22 32 C21.67 32.99 21.34 33.98 21 35 C14.99975353 27.82213506 9.47144959 20.60643294 4.875 12.4375 C4.49738525 11.77169922 4.11977051 11.10589844 3.73071289 10.41992188 C1.85153569 6.98022006 0.49441186 3.90285722 0 0 Z " fill="#870100" transform="translate(658,262)"/>
<path d="M0 0 C0.99 0 1.98 0 3 0 C3 13.2 3 26.4 3 40 C1.02 40.495 1.02 40.495 -1 41 C-0.67 27.47 -0.34 13.94 0 0 Z " fill="#22020C" transform="translate(762,346)"/>
<path d="M0 0 C2.38652003 3.57978004 2.39614614 4.77114 2 9 C1.17602651 11.86556533 0.11017779 14.60955714 -1 17.375 C-1.28617188 18.11105469 -1.57234375 18.84710938 -1.8671875 19.60546875 C-2.56914861 21.40716893 -3.28334405 23.20409432 -4 25 C-4.99 24.67 -5.98 24.34 -7 24 C-4.83758315 7.62084257 -4.83758315 7.62084257 -3 2 C-2.01 1.34 -1.02 0.68 0 0 Z " fill="#DD0000" transform="translate(773,267)"/>
<path d="M0 0 C1.2065625 0.0309375 1.2065625 0.0309375 2.4375 0.0625 C1.51552133 5.5844583 -0.42091234 10.41660714 -3.5625 15.0625 C-6.875 16.6875 -6.875 16.6875 -9.5625 17.0625 C-10.2734375 15.44921875 -10.2734375 15.44921875 -10.5625 13.0625 C-9.1640625 10.08203125 -9.1640625 10.08203125 -7.1875 6.875 C-6.54039062 5.80894531 -5.89328125 4.74289063 -5.2265625 3.64453125 C-2.92369963 0.07130975 -2.92369963 0.07130975 0 0 Z " fill="#FCC9CD" transform="translate(753.5625,160.9375)"/>
<path d="M0 0 C4.29 0 8.58 0 13 0 C13 1.98 13 3.96 13 6 C8.71 6 4.42 6 0 6 C0 4.02 0 2.04 0 0 Z " fill="#080E11" transform="translate(825,501)"/>
<path d="M0 0 C6.6 0 13.2 0 20 0 C20 0.66 20 1.32 20 2 C14.26944418 3.52814822 7.64409459 3.88136486 2 2 C2 6.29 2 10.58 2 15 C1.34 15 0.68 15 0 15 C0 10.05 0 5.1 0 0 Z " fill="#5099C3" transform="translate(820,497)"/>
<path d="M0 0 C1.65 0 3.3 0 5 0 C5 4.95 5 9.9 5 15 C3.35 15 1.7 15 0 15 C0 10.05 0 5.1 0 0 Z " fill="#55ADE1" transform="translate(657,497)"/>
<path d="M0 0 C1.65 0 3.3 0 5 0 C5 4.95 5 9.9 5 15 C3.35 15 1.7 15 0 15 C0 10.05 0 5.1 0 0 Z " fill="#57A9D9" transform="translate(700,497)"/>
<path d="M0 0 C1.65 0 3.3 0 5 0 C5 4.95 5 9.9 5 15 C3.35 15 1.7 15 0 15 C0 10.05 0 5.1 0 0 Z " fill="#53A9DC" transform="translate(864,497)"/>
<path d="M0 0 C1.65 0 3.3 0 5 0 C5 4.95 5 9.9 5 15 C3.35 15 1.7 15 0 15 C0 10.05 0 5.1 0 0 Z " fill="#51ABDF" transform="translate(674,497)"/>
<path d="M0 0 C6.27 0 12.54 0 19 0 C20 2 20 2 19.1875 4.5625 C18 7 18 7 16 8 C16 6.35 16 4.7 16 3 C15.25234375 3.02320313 14.5046875 3.04640625 13.734375 3.0703125 C12.74953125 3.08835937 11.7646875 3.10640625 10.75 3.125 C9.77546875 3.14820313 8.8009375 3.17140625 7.796875 3.1953125 C5 3 5 3 1 1 C1 4.63 1 8.26 1 12 C0.67 12 0.34 12 0 12 C0 8.04 0 4.08 0 0 Z " fill="#6CC5F4" transform="translate(615,498)"/>
<path d="M0 0 C7.59 0 15.18 0 23 0 C23 0.33 23 0.66 23 1 C28.94 1.33 34.88 1.66 41 2 C41 2.33 41 2.66 41 3 C35.94630355 3.04948633 30.89274858 3.08576045 25.83886719 3.10986328 C24.12009219 3.1199127 22.40133425 3.13355445 20.68261719 3.15087891 C18.21024359 3.17517391 15.73809631 3.18649368 13.265625 3.1953125 C12.49881409 3.20563507 11.73200317 3.21595764 10.94195557 3.22659302 C7.14043233 3.22739012 4.22135482 3.14509572 1 1 C0.67 1.66 0.34 2.32 0 3 C0 2.01 0 1.02 0 0 Z " fill="#5EC3F7" transform="translate(936,506)"/>
<path d="M0 0 C11.33183857 -0.92017937 11.33183857 -0.92017937 15.421875 1.3359375 C17.0948355 2.80841926 18.58944361 4.27655655 20 6 C14.96075449 7.44934052 10.39312309 7.19656154 5.703125 4.8515625 C3.72740545 3.6395076 1.82141429 2.43387933 0 1 C0 0.67 0 0.34 0 0 Z " fill="#1D75A5" transform="translate(801,150)"/>
<path d="M0 0 C1 2 1 2 0.38256836 4.01538086 C-0.74561189 6.66558747 -1.89250001 9.30545921 -3.0625 11.9375 C-3.44599609 12.85724609 -3.82949219 13.77699219 -4.22460938 14.72460938 C-7.22493145 21.50128411 -7.22493145 21.50128411 -11.30859375 24.12890625 C-12.19675781 24.41636719 -13.08492187 24.70382813 -14 25 C-12.68071914 21.48283007 -11.12651609 18.34691482 -9.1796875 15.13671875 C-8.37724609 13.80737305 -8.37724609 13.80737305 -7.55859375 12.45117188 C-6.72521484 11.0831543 -6.72521484 11.0831543 -5.875 9.6875 C-5.31167969 8.75615234 -4.74835937 7.82480469 -4.16796875 6.86523438 C-2.7819554 4.57478858 -1.39254372 2.28647924 0 0 Z " fill="#E88D8B" transform="translate(776,117)"/>
<path d="M0 0 C2.625 -0.1875 2.625 -0.1875 5 0 C5 0.66 5 1.32 5 2 C4.01 2 3.02 2 2 2 C2.28875 2.62648438 2.5775 3.25296875 2.875 3.8984375 C3.24625 4.71570313 3.6175 5.53296875 4 6.375 C4.556875 7.59316406 4.556875 7.59316406 5.125 8.8359375 C6 11 6 11 6 13 C3.69 13 1.38 13 -1 13 C-0.34 10.69 0.32 8.38 1 6 C0.34 6 -0.32 6 -1 6 C-1.33 6.99 -1.66 7.98 -2 9 C-2.66 9 -3.32 9 -4 9 C-2.94124926 5.59687262 -1.99097846 2.98646769 0 0 Z " fill="#56A7DB" transform="translate(786,497)"/>
<path d="M0 0 C1.2065625 0.0309375 1.2065625 0.0309375 2.4375 0.0625 C2.4375 0.7225 2.4375 1.3825 2.4375 2.0625 C1.1175 2.0625 -0.2025 2.0625 -1.5625 2.0625 C-1.5625 3.0525 -1.5625 4.0425 -1.5625 5.0625 C-0.5725 5.0625 0.4175 5.0625 1.4375 5.0625 C2.69414978 7.96850261 3.4375 9.85854584 3.4375 13.0625 C1.1275 13.0625 -1.1825 13.0625 -3.5625 13.0625 C-3.5625 11.0825 -3.5625 9.1025 -3.5625 7.0625 C-4.2225 7.0625 -4.8825 7.0625 -5.5625 7.0625 C-3.33446653 0.08132845 -3.33446653 0.08132845 0 0 Z " fill="#55A1D4" transform="translate(900.5625,496.9375)"/>
<path d="M0 0 C6.9471222 0.83365466 12.26903195 1.54119071 17 7 C12.95746136 9.10915059 12.95746136 9.10915059 10 9 C6.27122923 6.76490228 3.08916252 4.05186881 0 1 C0 0.67 0 0.34 0 0 Z " fill="#5BAAD3" transform="translate(810,155)"/>
<path d="M0 0 C0.99 0.495 0.99 0.495 2 1 C3.99960012 1.039992 6.00047242 1.04346799 8 1 C8 1.33 8 1.66 8 2 C27.305 2.495 27.305 2.495 47 3 C47 3.33 47 3.66 47 4 C31.49 4 15.98 4 0 4 C0 2.68 0 1.36 0 0 Z " fill="#3D82AD" transform="translate(935,506)"/>
<path d="M0 0 C0.33 0 0.66 0 1 0 C1 15.51 1 31.02 1 47 C-0.32 46.34 -1.64 45.68 -3 45 C-2.01 44.505 -2.01 44.505 -1 44 C-1.01160156 42.75089844 -1.02320313 41.50179687 -1.03515625 40.21484375 C-1.11854577 26.78261662 -0.69249986 13.41350136 0 0 Z " fill="#F70532" transform="translate(761,339)"/>
<path d="M0 0 C0.99 0 1.98 0 3 0 C3.1875 2.375 3.1875 2.375 3 5 C-0.73064844 7.48709896 -2.57631968 7.29991053 -7 7 C-10.4375 6 -10.4375 6 -13 5 C-12.67 4.34 -12.34 3.68 -12 3 C-9.27734375 2.5859375 -9.27734375 2.5859375 -5.9375 2.375 C-4.83277344 2.30023438 -3.72804688 2.22546875 -2.58984375 2.1484375 C-1.73519531 2.09945313 -0.88054688 2.05046875 0 2 C0 1.34 0 0.68 0 0 Z " fill="#62B7EC" transform="translate(838,505)"/>
<path d="M0 0 C1.80791016 -0.00386719 1.80791016 -0.00386719 3.65234375 -0.0078125 C6.59472592 0.10678199 9.20739223 0.44237461 12.0625 1.125 C12.0625 1.455 12.0625 1.785 12.0625 2.125 C8.56257304 2.92206768 5.3482769 3.24363027 1.76171875 3.22265625 C0.78525391 3.21943359 -0.19121094 3.21621094 -1.19726562 3.21289062 C-2.20466797 3.20451172 -3.21207031 3.19613281 -4.25 3.1875 C-5.27673828 3.18298828 -6.30347656 3.17847656 -7.36132812 3.17382812 C-9.88677882 3.16208184 -12.41210905 3.14565565 -14.9375 3.125 C-9.75576479 0.48417261 -5.86615543 -0.01252114 0 0 Z " fill="#50BAF4" transform="translate(558.9375,505.875)"/>
<path d="M0 0 C3.96 0 7.92 0 12 0 C11.67 1.65 11.34 3.3 11 5 C7.37 5 3.74 5 0 5 C0 3.35 0 1.7 0 0 Z " fill="#0D171C" transform="translate(619,501)"/>
<path d="M0 0 C4.20824197 3.74065953 7.19234349 7.59880946 9 13 C8.75 16 8.75 16 8 18 C6.68 17.67 5.36 17.34 4 17 C3.51933465 15.10454608 3.04053257 13.20861961 2.5625 11.3125 C2.29566406 10.25675781 2.02882813 9.20101562 1.75390625 8.11328125 C1.10102068 5.4171683 0.52058807 2.7242424 0 0 Z " fill="#028FD2" transform="translate(904,191)"/>
<path d="M0 0 C0 3.3 0 6.6 0 10 C-0.99 10.495 -0.99 10.495 -2 11 C-2 9.35 -2 7.7 -2 6 C-2.99 6 -3.98 6 -5 6 C-5 4.68 -5 3.36 -5 2 C-9.29 2 -13.58 2 -18 2 C-18 1.67 -18 1.34 -18 1 C-15.56348622 0.63737003 -13.12623023 0.28461036 -10.6875 -0.0625 C-9.99720703 -0.16626953 -9.30691406 -0.27003906 -8.59570312 -0.37695312 C-5.30415164 -0.83808836 -3.19783876 -1.06594625 0 0 Z " fill="#54A4D4" transform="translate(843,499)"/>
<path d="M0 0 C0.66 0 1.32 0 2 0 C2.226875 0.804375 2.45375 1.60875 2.6875 2.4375 C3.120625 3.283125 3.55375 4.12875 4 5 C6.54775306 5.89386164 6.54775306 5.89386164 9 6 C9.33 7.32 9.66 8.64 10 10 C10.66 10 11.32 10 12 10 C12.33 9.01 12.66 8.02 13 7 C13.33 9.31 13.66 11.62 14 14 C13.67 13.01 13.34 12.02 13 11 C10.03 11 7.06 11 4 11 C4 10.01 4 9.02 4 8 C3.34 8 2.68 8 2 8 C1.34 5.36 0.68 2.72 0 0 Z " fill="#DA1E35" transform="translate(871,188)"/>
<path d="M0 0 C0.66 1.32 1.32 2.64 2 4 C-2.98860067 9.22741666 -8.08287321 13.84542161 -14 18 C-14.66 17.67 -15.32 17.34 -16 17 C-15.18015625 16.19175781 -14.3603125 15.38351562 -13.515625 14.55078125 C-12.42694863 13.47149002 -11.3384145 12.39205531 -10.25 11.3125 C-9.71117187 10.78205078 -9.17234375 10.25160156 -8.6171875 9.70507812 C-5.51387173 6.62068501 -2.66327598 3.48423727 0 0 Z " fill="#0181BB" transform="translate(885,285)"/>
<path d="M0 0 C3.7952131 1.49097658 5.61042731 3.75700849 8 7 C7.34 7 6.68 7 6 7 C6.7734375 8.1446875 6.7734375 8.1446875 7.5625 9.3125 C8.036875 10.199375 8.51125 11.08625 9 12 C8.67 12.99 8.34 13.98 8 15 C6.46395285 13.2633385 4.94654837 11.51017245 3.4375 9.75 C2.59058594 8.77546875 1.74367188 7.8009375 0.87109375 6.796875 C-1 4 -1 4 -0.77734375 1.640625 C-0.52082031 1.09921875 -0.26429688 0.5578125 0 0 Z " fill="#8E0102" transform="translate(671,282)"/>
<path d="M0 0 C0.33 0.66 0.66 1.32 1 2 C0.22265625 4.1640625 0.22265625 4.1640625 -0.9375 6.625 C-1.31777344 7.44226563 -1.69804688 8.25953125 -2.08984375 9.1015625 C-2.54037109 10.04128906 -2.54037109 10.04128906 -3 11 C-5.97 10.505 -5.97 10.505 -9 10 C-6.78461538 3.47692308 -6.78461538 3.47692308 -2.8125 1.0625 C-1.4203125 0.5365625 -1.4203125 0.5365625 0 0 Z " fill="#F59B9F" transform="translate(760,151)"/>
<path d="M0 0 C0.66 0 1.32 0 2 0 C2.16836403 8.2498373 0.66551188 15.96350093 -1 24 C-3.63963729 20.14357824 -2.87367955 17.02930753 -2.1875 12.5625 C-1.99542969 11.26441406 -1.80335938 9.96632812 -1.60546875 8.62890625 C-1.12304404 5.73747039 -0.60240546 2.86833426 0 0 Z " fill="#42A1D6" transform="translate(874,226)"/>
<path d="M0 0 C0.33 0.99 0.66 1.98 1 3 C1.66 3 2.32 3 3 3 C3 2.34 3 1.68 3 1 C3.66 1 4.32 1 5 1 C4.86722656 1.85722656 4.73445312 2.71445313 4.59765625 3.59765625 C3.70230552 9.39456209 2.81061436 15.19059708 2 21 C1.67 21 1.34 21 1 21 C0.67 14.07 0.34 7.14 0 0 Z " fill="#22AAE8" transform="translate(909,206)"/>
<path d="M0 0 C0.66 0 1.32 0 2 0 C1.45276317 3.37462715 0.9451 5.08235 -1 8 C1.97 8 4.94 8 8 8 C8 8.33 8 8.66 8 9 C3.38 9 -1.24 9 -6 9 C-5.34 7.02 -4.68 5.04 -4 3 C-3.01 2.67 -2.02 2.34 -1 2 C-0.67 1.34 -0.34 0.68 0 0 Z " fill="#58B7ED" transform="translate(785,503)"/>
<path d="M0 0 C0.66 0.33 1.32 0.66 2 1 C-2.36573187 4.10872548 -6.64102354 6.30406497 -11.625 8.25 C-12.60726562 8.6521875 -12.60726562 8.6521875 -13.609375 9.0625 C-17.005947 10.41012776 -19.28894596 11 -23 11 C-22.67 10.01 -22.34 9.02 -22 8 C-21.38253906 7.89042969 -20.76507812 7.78085937 -20.12890625 7.66796875 C-14.22287499 6.5622734 -8.64802441 5.04638565 -3 3 C-3 2.34 -3 1.68 -3 1 C-2.01 0.67 -1.02 0.34 0 0 Z " fill="#349EC8" transform="translate(806,287)"/>
<path d="M0 0 C-1.75 5.75 -1.75 5.75 -4 8 C-3.67 6.02 -3.34 4.04 -3 2 C-3.89203125 2.30035156 -4.7840625 2.60070312 -5.703125 2.91015625 C-6.87359375 3.29042969 -8.0440625 3.67070312 -9.25 4.0625 C-10.41015625 4.44535156 -11.5703125 4.82820312 -12.765625 5.22265625 C-15.80077085 5.95211763 -17.15703213 6.11889082 -20 5 C-17.79567015 4.15450362 -15.58751467 3.32357186 -13.375 2.5 C-11.53035156 1.80390625 -11.53035156 1.80390625 -9.6484375 1.09375 C-6.18957134 0.05683081 -3.57814964 -0.22019382 0 0 Z " fill="#437297" transform="translate(746,136)"/>
<path d="M0 0 C0.33 0 0.66 0 1 0 C0.16065058 9.56858334 -3.5491044 16.22056647 -9 24 C-9.33 23.34 -9.66 22.68 -10 22 C-8.79893618 19.35469401 -7.54499805 16.81339734 -6.1875 14.25 C-3.73156081 9.56957139 -1.51340049 5.09271275 0 0 Z " fill="#0395D6" transform="translate(866,258)"/>
<path d="M0 0 C3.63 0 7.26 0 11 0 C11 0.33 11 0.66 11 1 C8.36 1.33 5.72 1.66 3 2 C2.80664062 2.66386719 2.61328125 3.32773438 2.4140625 4.01171875 C-0.17223199 12.78207381 -0.17223199 12.78207381 -2 17 C-3.30211046 13.09366863 -2.47812346 10.80461827 -1.5625 6.8125 C-1.27503906 5.54019531 -0.98757813 4.26789063 -0.69140625 2.95703125 C-0.46324219 1.98121094 -0.23507812 1.00539062 0 0 Z " fill="#004564" transform="translate(837,222)"/>
<path d="M0 0 C0.99 0 1.98 0 3 0 C3 1.98 3 3.96 3 6 C2.195625 6.268125 1.39125 6.53625 0.5625 6.8125 C-0.283125 7.204375 -1.12875 7.59625 -2 8 C-2.33 8.99 -2.66 9.98 -3 11 C-3.66 11 -4.32 11 -5 11 C-5.33 11.99 -5.66 12.98 -6 14 C-6.33 13.34 -6.66 12.68 -7 12 C-5.671875 9.1796875 -5.671875 9.1796875 -3.75 5.875 C-3.12609375 4.77929688 -2.5021875 3.68359375 -1.859375 2.5546875 C-1.24578125 1.71164063 -0.6321875 0.86859375 0 0 Z " fill="#B81E18" transform="translate(783,104)"/>
<path d="M0 0 C5.03163018 4.29785078 10.02718443 8.63425542 15 13 C11.71752569 13 11.17433033 12.66923327 8.64453125 10.8125 C7.71157227 10.13574219 7.71157227 10.13574219 6.75976562 9.4453125 C6.11716797 8.96835937 5.47457031 8.49140625 4.8125 8 C4.15830078 7.52304687 3.50410156 7.04609375 2.83007812 6.5546875 C1.21542318 5.37610725 -0.39290497 4.18886818 -2 3 C-1.34 2.67 -0.68 2.34 0 2 C0 1.34 0 0.68 0 0 Z " fill="#005C90" transform="translate(646,292)"/>
<path d="M0 0 C4.95 0 9.9 0 15 0 C15 1.98 15 3.96 15 6 C14.67 4.68 14.34 3.36 14 2 C12.54176788 1.9729957 11.08339325 1.95360213 9.625 1.9375 C8.40683594 1.92009766 8.40683594 1.92009766 7.1640625 1.90234375 C4.95062858 1.85533666 4.95062858 1.85533666 3 3 C1.86649466 5.01669827 1.86649466 5.01669827 1 7 C0.67 4.69 0.34 2.38 0 0 Z " fill="#0078BF" transform="translate(676,222)"/>
<path d="M0 0 C1.0625 1.8125 1.0625 1.8125 2 4 C1.67 4.99 1.34 5.98 1 7 C0.97039859 9.80790474 1.06585928 12.5999723 1.16015625 15.40625 C1 18 1 18 -1 21 C-1.66 20.67 -2.32 20.34 -3 20 C-2.68839539 17.79154015 -2.37567654 15.58323749 -2.0625 13.375 C-1.88847656 12.14523437 -1.71445312 10.91546875 -1.53515625 9.6484375 C-1.06225699 6.42443816 -0.54848998 3.21187824 0 0 Z " fill="#CB0002" transform="translate(769,271)"/>
<path d="M0 0 C0.99 0.99 1.98 1.98 3 3 C2.39816251 5.02045442 1.72693904 7.02111039 1 9 C0.01 9.495 0.01 9.495 -1 10 C-2.38125018 7.23749964 -2.19079306 5.05268901 -2 2 C-1.34 1.34 -0.68 0.68 0 0 Z " fill="#59ADD5" transform="translate(840,181)"/>
<path d="M0 0 C3.63 0 7.26 0 11 0 C11 0.99 11 1.98 11 3 C7.37 3 3.74 3 0 3 C0 2.01 0 1.02 0 0 Z " fill="#73C2F4" transform="translate(619,506)"/>
<path d="M0 0 C2 2 2 2 3 6 C0.36 7.98 -2.28 9.96 -5 12 C-3.68938409 7.76570244 -2.05643741 3.92592596 0 0 Z " fill="#EE838B" transform="translate(724,210)"/>
<path d="M0 0 C2 1.8125 2 1.8125 4 4 C4 4.99 4 5.98 4 7 C1.69 7 -0.62 7 -3 7 C-1.125 2.25 -1.125 2.25 0 0 Z " fill="#0A141A" transform="translate(900,503)"/>
<path d="M0 0 C2.50037734 2.17424117 3.43628586 3.73045798 4 7 C1.69 7 -0.62 7 -3 7 C-1.125 1.125 -1.125 1.125 0 0 Z " fill="#070D12" transform="translate(788,503)"/>
<path d="M0 0 C0.66 0 1.32 0 2 0 C2.33 1.65 2.66 3.3 3 5 C-3.93 4.505 -3.93 4.505 -11 4 C-10.67 3.34 -10.34 2.68 -10 2 C-7.03 2 -4.06 2 -1 2 C-0.67 1.34 -0.34 0.68 0 0 Z " fill="#509CD1" transform="translate(795,507)"/>
<path d="M0 0 C0.99 1.32 1.98 2.64 3 4 C2.67 4.66 2.34 5.32 2 6 C2.99 6 3.98 6 5 6 C4.34 8.31 3.68 10.62 3 13 C2.34 13 1.68 13 1 13 C0.67 8.71 0.34 4.42 0 0 Z " fill="#A40104" transform="translate(758,301)"/>
<path d="M0 0 C-0.54269531 0.29132813 -1.08539062 0.58265625 -1.64453125 0.8828125 C-6.42302482 3.62076017 -9.00528351 5.63919942 -11 11 C-12 8 -12 8 -10.875 5 C-7.95241528 0.32386444 -5.36071261 -1.65032554 0 0 Z " fill="#3C9BC8" transform="translate(798,281)"/>
<path d="M0 0 C0.66 0.33 1.32 0.66 2 1 C-1.96 4.96 -5.92 8.92 -10 13 C-10.99 12.67 -11.98 12.34 -13 12 C-12.14535156 11.21753906 -11.29070313 10.43507813 -10.41015625 9.62890625 C-9.29425993 8.60678273 -8.17837511 7.58464667 -7.0625 6.5625 C-6.21655273 5.7880957 -6.21655273 5.7880957 -5.35351562 4.99804688 C-2.64001674 2.53775333 -2.64001674 2.53775333 0 0 Z " fill="#0B92B5" transform="translate(821,260)"/>
<path d="M0 0 C1.65 0 3.3 0 5 0 C4.25 4.75 4.25 4.75 2 7 C0.68 6.01 -0.64 5.02 -2 4 C-1.34 2.68 -0.68 1.36 0 0 Z " fill="#FAB2B4" transform="translate(751,161)"/>
<path d="M0 0 C0.66 0.33 1.32 0.66 2 1 C-2.95 7.93 -2.95 7.93 -8 15 C-8.33 14.34 -8.66 13.68 -9 13 C-6.54270567 8.08541135 -3.61629229 4.11855511 0 0 Z " fill="#DD1927" transform="translate(672,151)"/>
<path d="M0 0 C0.99 0 1.98 0 3 0 C2.731875 0.515625 2.46375 1.03125 2.1875 1.5625 C0.67650593 4.66401415 -0.65572726 7.82262806 -2 11 C-3.32 10.34 -4.64 9.68 -6 9 C-4.73046875 7.53515625 -3.4609375 6.0703125 -2.19140625 4.60546875 C-0.79128769 2.89287029 -0.79128769 2.89287029 0 0 Z " fill="#AC0106" transform="translate(816,114)"/>
<path d="M0 0 C1 3 1 3 0.00390625 5.26171875 C-0.47175781 6.06222656 -0.94742188 6.86273438 -1.4375 7.6875 C-1.91058594 8.49574219 -2.38367188 9.30398437 -2.87109375 10.13671875 C-3.24363281 10.75160156 -3.61617187 11.36648437 -4 12 C-4.8214856 9.24802325 -5.04631835 8.16597407 -4.25 5.3125 C-3 3 -3 3 0 2 C0 1.34 0 0.68 0 0 Z " fill="#F49396" transform="translate(766,138)"/>
<path d="M0 0 C0.33 0.66 0.66 1.32 1 2 C0.00390625 4.6015625 0.00390625 4.6015625 -1.4375 7.625 C-1.91058594 8.62789062 -2.38367188 9.63078125 -2.87109375 10.6640625 C-3.24363281 11.43492187 -3.61617187 12.20578125 -4 13 C-4.99 12.67 -5.98 12.34 -7 12 C-2.96127563 3.55353075 -2.96127563 3.55353075 0 0 Z " fill="#006DA1" transform="translate(623,187)"/>
<path d="M0 0 C0.33 0.66 0.66 1.32 1 2 C0.00390625 4.6015625 0.00390625 4.6015625 -1.4375 7.625 C-1.91058594 8.62789062 -2.38367188 9.63078125 -2.87109375 10.6640625 C-3.24363281 11.43492187 -3.61617187 12.20578125 -4 13 C-4.99 12.34 -5.98 11.68 -7 11 C-4.69 7.37 -2.38 3.74 0 0 Z " fill="#D9807D" transform="translate(776,117)"/>
<path d="M0 0 C2.29353747 0.25450481 4.58485203 0.52911147 6.875 0.8125 C8.15117188 0.96332031 9.42734375 1.11414063 10.7421875 1.26953125 C14 2 14 2 16 5 C14.08247047 4.93970033 12.16582574 4.85083293 10.25 4.75 C9.18265625 4.70359375 8.1153125 4.6571875 7.015625 4.609375 C3.47594492 3.89410286 2.26118038 2.74415095 0 0 Z " fill="#388EBB" transform="translate(805,152)"/>
<path d="M0 0 C1.65 0 3.3 0 5 0 C5 1.65 5 3.3 5 5 C3.35 5 1.7 5 0 5 C0 3.35 0 1.7 0 0 Z " fill="#57ABDD" transform="translate(752,507)"/>
<path d="M0 0 C1.75 1.4375 1.75 1.4375 3 3 C2.67 3.99 2.34 4.98 2 6 C1.34 6 0.68 6 0 6 C0 5.34 0 4.68 0 4 C-1.32 4 -2.64 4 -4 4 C-4 3.01 -4 2.02 -4 1 C-2.1875 0.3125 -2.1875 0.3125 0 0 Z " fill="#58AFE3" transform="translate(903,498)"/>
<path d="M0 0 C0.66 0.33 1.32 0.66 2 1 C2 2.65 2 4.3 2 6 C0.68 6 -0.64 6 -2 6 C-2 6.99 -2 7.98 -2 9 C-2.66 9 -3.32 9 -4 9 C-2.94124926 5.59687262 -1.99097846 2.98646769 0 0 Z " fill="#0291D1" transform="translate(616,199)"/>
<path d="M0 0 C2.31 0 4.62 0 7 0 C6.34 1.32 5.68 2.64 5 4 C3.35 4 1.7 4 0 4 C0 2.68 0 1.36 0 0 Z " fill="#E70000" transform="translate(808,192)"/>
<path d="M0 0 C2.54131358 2.30283254 4.07110295 4.67313793 5.6875 7.6875 C6.12449219 8.49574219 6.56148437 9.30398438 7.01171875 10.13671875 C7.33785156 10.75160156 7.66398438 11.36648438 8 12 C7.01 12 6.02 12 5 12 C4.16180842 10.37750059 3.3295884 8.75191503 2.5 7.125 C2.0359375 6.22007812 1.571875 5.31515625 1.09375 4.3828125 C0 2 0 2 0 0 Z " fill="#730200" transform="translate(658,262)"/>
<path d="M0 0 C1.5 1.125 1.5 1.125 3 3 C3.1875 6.1875 3.1875 6.1875 3 9 C2.34 8.01 1.68 7.02 1 6 C0.34 6.99 -0.32 7.98 -1 9 C-1.80967438 6.08517222 -2.21845993 4.53886783 -1.0625 1.6875 C-0.711875 1.130625 -0.36125 0.57375 0 0 Z " fill="#6AC2E9" transform="translate(845,200)"/>
<path d="M0 0 C-2.97 1.65 -5.94 3.3 -9 5 C-9 4.34 -9 3.68 -9 3 C-9.99 2.67 -10.98 2.34 -12 2 C-10.37787941 1.47026689 -8.75218416 0.95146893 -7.125 0.4375 C-6.22007812 0.14746094 -5.31515625 -0.14257812 -4.3828125 -0.44140625 C-2 -1 -2 -1 0 0 Z " fill="#2F0102" transform="translate(781,211)"/>
<path d="M0 0 C4.05606165 0.46800711 7.46588679 0.87953208 11 3 C9.02 3.66 7.04 4.32 5 5 C3.35 3.35 1.7 1.7 0 0 Z " fill="#51A1CB" transform="translate(810,155)"/>
<path d="M0 0 C0.93065133 2.60582371 1.14917407 3.64198224 0.0625 6.25 C-0.4634375 7.11625 -0.4634375 7.11625 -1 8 C-2.32 8 -3.64 8 -5 8 C-3.8141763 4.62496331 -2.72426311 2.35277269 0 0 Z " fill="#10AFFA" transform="translate(872,252)"/>
<path d="M0 0 C0.66 0.99 1.32 1.98 2 3 C0.75453595 6.73639216 -0.63404953 7.18756513 -4 9 C-2.80100302 5.9168649 -1.52299523 2.93720508 0 0 Z " fill="#E38284" transform="translate(766,133)"/>
<path d="M0 0 C0.66 0 1.32 0 2 0 C2.1953125 6.0546875 2.1953125 6.0546875 2 8 C1.34 8.66 0.68 9.32 0 10 C-1.2380014 6.42355152 -0.74926071 3.66305234 0 0 Z " fill="#32B9F9" transform="translate(872,240)"/>
<path d="M0 0 C0.66 0.66 1.32 1.32 2 2 C0.25 6.875 0.25 6.875 -2 8 C-1.125 1.125 -1.125 1.125 0 0 Z " fill="#66BBEE" transform="translate(633,498)"/>
<path d="M0 0 C0.66 0.33 1.32 0.66 2 1 C1.67 2.98 1.34 4.96 1 7 C0.01 7 -0.98 7 -2 7 C-1.125 1.125 -1.125 1.125 0 0 Z " fill="#4DA9E0" transform="translate(840,498)"/>
<path d="M0 0 C0 1.65 0 3.3 0 5 C-1.32 5 -2.64 5 -4 5 C-4 3.68 -4 2.36 -4 1 C-1 0 -1 0 0 0 Z " fill="#5CBEE8" transform="translate(849,210)"/>
<path d="M0 0 C1.70884005 1.62339805 3.37446717 3.29319053 5 5 C5 5.66 5 6.32 5 7 C4.01 7.33 3.02 7.66 2 8 C1.34 5.36 0.68 2.72 0 0 Z " fill="#0071A9" transform="translate(904,191)"/>
<path d="M0 0 C1 3 1 3 -0.4375 6.1875 C-1.2109375 7.5796875 -1.2109375 7.5796875 -2 9 C-2.66 9 -3.32 9 -4 9 C-2.94124926 5.59687262 -1.99097846 2.98646769 0 0 Z " fill="#E7B4B6" transform="translate(747,167)"/>
</svg>
