<?xml version="1.0" encoding="UTF-8"?>
<svg version="1.1" xmlns="http://www.w3.org/2000/svg" width="768" height="512">
<path d="M0 0 C253.44 0 506.88 0 768 0 C768 168.96 768 337.92 768 512 C514.56 512 261.12 512 0 512 C0 343.04 0 174.08 0 0 Z " fill="#000000" transform="translate(0,0)"/>
<path d="M0 0 C253.44 0 506.88 0 768 0 C768 34.65 768 69.3 768 105 C514.56 105 261.12 105 0 105 C0 70.35 0 35.7 0 0 Z " fill="#000000" transform="translate(0,0)"/>
<path d="M0 0 C0.66 0 1.32 0 2 0 C1.4331219 13.30730992 0.18133689 26.46226971 -1.375 39.6875 C-1.60012284 41.63310688 -1.82497451 43.57874515 -2.04956055 45.52441406 C-3.57807241 58.70018214 -5.21618277 71.85608354 -7 85 C5.54 85 18.08 85 31 85 C29.66286044 88.3428489 28.45184215 91.14077888 26.70703125 94.2109375 C7.70844493 128.09470384 -7.43516516 163.62928658 -21 200 C-22.77087295 196.85646872 -23.49237999 194.03943372 -24.078125 190.48828125 C-24.26673096 189.35664551 -24.45533691 188.22500977 -24.6496582 187.05908203 C-24.847771 185.82270996 -25.04588379 184.58633789 -25.25 183.3125 C-25.46035889 182.02714355 -25.67071777 180.74178711 -25.88745117 179.41748047 C-28.82574509 161.31496259 -31.39687919 143.15309413 -34 125 C-28.17133168 120.39968386 -22.26041885 115.95982297 -16.1875 111.6875 C-15.45080078 111.16349609 -14.71410156 110.63949219 -13.95507812 110.09960938 C-13.24158203 109.59623047 -12.52808594 109.09285156 -11.79296875 108.57421875 C-11.1589917 108.12651123 -10.52501465 107.67880371 -9.87182617 107.2175293 C-7.97328574 105.98262371 -6.04351135 104.97265593 -4 104 C-10.67482289 105.48579531 -17.30613876 107.05445209 -23.90625 108.84375 C-32.22460352 111.08213806 -40.57772119 113.17272742 -48.9375 115.25 C-50.41083531 115.61707505 -51.88414273 115.98426209 -53.35742188 116.3515625 C-56.90462919 117.23565851 -60.4522049 118.11826527 -64 119 C-64.33 118.34 -64.66 117.68 -65 117 C-63.91470361 114.60420773 -62.76880509 112.33973121 -61.51171875 110.03515625 C-61.13784531 109.33472702 -60.76397186 108.63429779 -60.37876892 107.91264343 C-59.15571552 105.62522579 -57.92166825 103.34393679 -56.6875 101.0625 C-55.84538928 99.4922919 -55.0040816 97.92165286 -54.16357422 96.35058594 C-52.51355991 93.26790503 -50.86002654 90.18715707 -49.20361328 87.10791016 C-46.64191864 82.34036078 -44.12858059 77.54826164 -41.625 72.75 C-29.8125076 50.26459692 -17.49413341 28.0150806 -4.1875 6.375 C-3.78515137 5.71193848 -3.38280273 5.04887695 -2.96826172 4.36572266 C-2.03534469 2.87362851 -1.02588934 1.42976577 0 0 Z " fill="#DA0708" transform="translate(393,145)"/>
<path d="M0 0 C1.96646484 0.01353516 1.96646484 0.01353516 3.97265625 0.02734375 C4.95105469 0.03894531 5.92945313 0.05054688 6.9375 0.0625 C6.12743474 1.70953306 5.3143779 3.35509506 4.5 5 C4.04753906 5.91652344 3.59507812 6.83304688 3.12890625 7.77734375 C1.9375 10.0625 1.9375 10.0625 0.9375 11.0625 C-0.44362947 11.29960698 -1.83420756 11.48223923 -3.2265625 11.640625 C-32.85131772 15.2594409 -60.09415492 27.70826474 -79.48828125 51 C-97.74535446 74.9199371 -101.70296997 102.21593678 -98.66015625 131.6953125 C-95.39045304 151.82642641 -82.00518096 168.82338772 -67.65234375 182.515625 C-65.0625 185.0625 -65.0625 185.0625 -64.0625 187.0625 C-62.18164202 187.98583028 -60.29930036 188.90624392 -58.41015625 189.8125 C-55.95516352 191.11965087 -53.80711084 192.60926923 -51.5625 194.25 C-36.42903755 205.08945853 -19.12072833 212.94700448 -1.9934082 220.04296875 C-1.12417725 220.40648437 -0.25494629 220.77 0.640625 221.14453125 C1.42083008 221.46655518 2.20103516 221.7885791 3.00488281 222.12036133 C4.9375 223.0625 4.9375 223.0625 6.9375 225.0625 C7.87163264 227.86782755 8.05988983 230.4290779 8.05102539 233.37207031 C8.05091209 234.6329245 8.05091209 234.6329245 8.05079651 235.91925049 C8.04563522 236.81730408 8.04047394 237.71535767 8.03515625 238.640625 C8.0337413 239.5671991 8.03232635 240.49377319 8.03086853 241.44842529 C8.02527824 244.40314992 8.0127275 247.35779833 8 250.3125 C7.99498375 252.31770724 7.99042106 254.32291567 7.98632812 256.328125 C7.97531199 261.23961263 7.958054 266.1510434 7.9375 271.0625 C-7.1701313 263.76810832 -20.0613058 250.96702148 -32.25 239.65625 C-34.71978336 237.3785609 -37.2260139 235.15451482 -39.75 232.9375 C-50.144235 223.58605233 -60.3453986 213.74278351 -68.96875 202.71484375 C-70.92179872 200.24073912 -72.95993855 197.86289574 -75.03417969 195.49023438 C-96.84229015 170.38890194 -111.20818203 141.47874937 -111.375 107.8125 C-111.38063965 106.73556885 -111.3862793 105.6586377 -111.39208984 104.54907227 C-111.29394088 93.68198618 -109.72629329 83.64905574 -105.8125 73.5 C-105.5016748 72.68136475 -105.19084961 71.86272949 -104.87060547 71.01928711 C-100.49965925 59.75723962 -94.55432684 50.52944482 -87.0625 41.0625 C-86.55976563 40.40378906 -86.05703125 39.74507812 -85.5390625 39.06640625 C-71.33167029 21.28663507 -47.86074226 9.00651784 -26.25 3.25 C-25.47406494 3.0430249 -24.69812988 2.8360498 -23.89868164 2.62280273 C-15.9361671 0.60949793 -8.19617386 -0.0738394 0 0 Z " fill="#E00A16" transform="translate(366.0625,142.9375)"/>
<path d="M0 0 C0 44.22 0 88.44 0 134 C-11.69199361 130.1026688 -21.75089553 124.11688651 -31 116 C-31.76828125 115.37480469 -32.5365625 114.74960937 -33.328125 114.10546875 C-44.31020955 104.93505461 -52.56017074 92.53625085 -54.72265625 78.22265625 C-55.57890942 68.2732356 -56.18794832 57.58206182 -53 48 C-52.74347656 47.15695313 -52.48695313 46.31390625 -52.22265625 45.4453125 C-46.05060193 26.743723 -33.99184052 13.88379149 -16.78222656 4.87939453 C-11.26936646 2.15921342 -6.17744499 0 0 0 Z " fill="#020101" transform="translate(768,203)"/>
<path d="M0 0 C3.63 0 7.26 0 11 0 C11.14121639 10.02636403 10.57615838 18.58979502 7 28 C6.59910156 29.10214844 6.19820313 30.20429688 5.78515625 31.33984375 C0.05982459 46.45408494 -7.78524242 59.51529629 -18 72 C-18.72960937 72.91007812 -19.45921875 73.82015625 -20.2109375 74.7578125 C-22.44786839 77.52773053 -24.7203446 80.26516588 -27 83 C-28.23363281 84.51400391 -28.23363281 84.51400391 -29.4921875 86.05859375 C-35.84579611 93.75211038 -42.69871044 100.88007462 -49.75 107.9375 C-50.63719727 108.82550293 -51.52439453 109.71350586 -52.43847656 110.62841797 C-57.46992033 115.6174778 -62.61535554 120.39613683 -68 125 C-68.75410156 125.67289062 -69.50820313 126.34578125 -70.28515625 127.0390625 C-81.44827586 137 -81.44827586 137 -85 137 C-85.2475 137.598125 -85.495 138.19625 -85.75 138.8125 C-87.19192497 141.33586869 -88.52549626 142.50030076 -91 144 C-91.99 144 -92.98 144 -94 144 C-94.33 144.99 -94.66 145.98 -95 147 C-97.28515625 148.82421875 -97.28515625 148.82421875 -100.0625 150.6875 C-101.44115234 151.62142578 -101.44115234 151.62142578 -102.84765625 152.57421875 C-103.55792969 153.04472656 -104.26820313 153.51523437 -105 154 C-105.66 153.67 -106.32 153.34 -107 153 C-107.37841839 126.47578166 -107.37841839 126.47578166 -106.3125 116.5625 C-106.18488281 115.36753906 -106.05726563 114.17257812 -105.92578125 112.94140625 C-104.70743009 109.07044243 -103.46179354 108.1050229 -100 106 C-96.94754774 104.6046248 -93.83091071 103.42326583 -90.6875 102.25 C-81.48156104 98.68449604 -72.70403513 94.6492925 -64 90 C-63.33516602 89.64824707 -62.67033203 89.29649414 -61.98535156 88.93408203 C-54.50659411 84.95125883 -47.29503345 80.70978299 -40.375 75.8125 C-39.81925293 75.42078613 -39.26350586 75.02907227 -38.69091797 74.62548828 C-35.79034059 72.51381147 -33.21615041 70.26787705 -30.7265625 67.69921875 C-28 65 -28 65 -26 65 C-25.72414063 64.40703125 -25.44828125 63.8140625 -25.1640625 63.203125 C-24.06071174 61.1149041 -22.88409808 59.55417312 -21.375 57.75 C-10.67824047 43.65329246 -5.59355015 26.04690351 -2 9 C-1.60585059 7.2287911 -1.21022089 5.45791035 -0.8125 3.6875 C-0.544375 2.470625 -0.27625 1.25375 0 0 Z " fill="#054E74" transform="translate(482,259)"/>
<path d="M0 0 C0 2.64 0 5.28 0 8 C-0.90878906 8.25652344 -1.81757812 8.51304687 -2.75390625 8.77734375 C-21.43499858 14.46789188 -36.81889684 24.27918807 -46.41992188 41.79199219 C-54.85775305 57.9986933 -56.43063198 76.09920732 -52.03515625 93.82421875 C-47.90164423 106.50552167 -39.25225982 116.73522241 -29 125 C-28.35933594 125.56203125 -27.71867188 126.1240625 -27.05859375 126.703125 C-20.13057094 132.54001708 -12.12276196 136.13835907 -4 140 C-2.68 140.66 -1.36 141.32 0 142 C0 150.25 0 158.5 0 167 C-9.0173991 160.23695067 -9.0173991 160.23695067 -12.11328125 157.3359375 C-12.79825684 156.6951123 -13.48323242 156.05428711 -14.18896484 155.39404297 C-14.88973145 154.72775879 -15.59049805 154.06147461 -16.3125 153.375 C-17.4255249 152.31949951 -17.4255249 152.31949951 -18.56103516 151.24267578 C-40.87237632 129.91045496 -61.9573767 104.56443444 -63.3125 72.3125 C-62.82694679 53.49731302 -56.13288341 35.72983265 -43 22 C-32.16535707 12.04485313 -15.49441061 0 0 0 Z " fill="#DE0810" transform="translate(768,195)"/>
<path d="M0 0 C15.87723034 2.07607172 32.1158274 13.78637835 44 24 C45.02480469 24.82564453 45.02480469 24.82564453 46.0703125 25.66796875 C64.8733199 41.18966701 78.76059056 66.87740741 82 91 C82.06460219 93.12411996 82.08611079 95.25002905 82.0625 97.375 C82.05347656 98.43460937 82.04445313 99.49421875 82.03515625 100.5859375 C82.02355469 101.38257813 82.01195312 102.17921875 82 103 C78.7 103 75.4 103 72 103 C71.84144531 101.77925781 71.68289063 100.55851562 71.51953125 99.30078125 C70.1374676 89.29280448 68.3544133 80.20776979 64 71 C63.72027344 70.40767578 63.44054687 69.81535156 63.15234375 69.20507812 C53.60165982 49.33882866 39.36770429 34.10838097 21 22 C20.11183594 21.4121875 19.22367187 20.824375 18.30859375 20.21875 C12.1876613 16.36737677 5.73082761 13.61368907 -1 11 C-1.125 3.375 -1.125 3.375 0 0 Z " fill="#E70310" transform="translate(411,149)"/>
<path d="M0 0 C4.62 0 9.24 0 14 0 C14.495 2.145 14.99 4.29 15.5 6.5 C20.53608777 26.05785352 31.6338735 41.38614124 49 52 C51.19028278 52.87968284 53.39888357 53.71540699 55.625 54.5 C60.65567668 56.39799682 60.65567668 56.39799682 62.1953125 59.08984375 C62.75451706 61.45661797 62.9744338 63.57121131 63 66 C63.04125 67.175625 63.0825 68.35125 63.125 69.5625 C63.08375 70.366875 63.0425 71.17125 63 72 C57.34986833 71.4682229 52.91303834 69.94888767 47.8125 67.5 C47.0685498 67.14397705 46.32459961 66.7879541 45.55810547 66.42114258 C29.1983303 58.32941934 16.76293778 45.9023384 8 30 C7.59136719 29.30390625 7.18273437 28.6078125 6.76171875 27.890625 C2.14273856 19.54435964 -0.76304851 9.53810643 0 0 Z " fill="#0070B5" transform="translate(291,258)"/>
<path d="M0 0 C-0.63028587 1.68076231 -1.30959426 3.34302621 -2 5 C-2.22171875 5.65097656 -2.4434375 6.30195313 -2.671875 6.97265625 C-3.96150995 10.22715954 -4.95975718 12.42660731 -8.09765625 14.15625 C-9.79599562 14.78067905 -11.50388681 15.37952585 -13.21875 15.95703125 C-28.86704848 21.82514318 -38.72273771 34.24881553 -46.3125 48.45703125 C-50.03120348 56.75148315 -51.28713912 66.1259229 -53 75 C-57.62 75 -62.24 75 -67 75 C-67 69.60964198 -66.64135621 65.40042365 -65.3125 60.3125 C-65.13170898 59.61552002 -64.95091797 58.91854004 -64.76464844 58.20043945 C-59.52612081 38.73444563 -46.86920742 20.227261 -29.15673828 9.92822266 C-20.13381077 4.97432873 -10.53002728 -0.29506206 0 0 Z " fill="#5EADDA" transform="translate(357,176)"/>
<path d="M0 0 C3.63 0 7.26 0 11 0 C10.67360367 18.12983256 2.83575918 33.54530149 -9 47 C-9.99966797 48.14275391 -9.99966797 48.14275391 -11.01953125 49.30859375 C-17.1723419 55.89518326 -24.31529204 60.42243478 -32 65 C-32.60215332 65.35916504 -33.20430664 65.71833008 -33.82470703 66.08837891 C-39.70212929 69.5320205 -46.01252817 72.67620695 -53 72 C-52.56856647 70.62308448 -52.12948836 69.24856381 -51.6875 67.875 C-51.44386719 67.10929687 -51.20023437 66.34359375 -50.94921875 65.5546875 C-50.63597656 64.71164062 -50.32273437 63.86859375 -50 63 C-49.62617188 61.989375 -49.25234375 60.97875 -48.8671875 59.9375 C-46.35617766 55.98712469 -43.63647688 54.93057943 -39.4375 53.125 C-20.96297368 44.51585415 -10.01123855 30.47130868 -2.91552734 11.70874023 C-1.50762151 7.82812181 -0.54004892 4.09166476 0 0 Z " fill="#0F78A2" transform="translate(446,258)"/>
<path d="M0 0 C9.18181152 8.72667862 13.94337006 20.63599345 14.47241211 33.21191406 C14.7759492 57.01137099 3.03184225 79.05436588 -13 96 C-18.58713049 101.49583751 -24.75651655 106.27679739 -31 111 C-31.66 110.67 -32.32 110.34 -33 110 C-32.33355469 109.45214844 -31.66710937 108.90429688 -30.98046875 108.33984375 C-10.3044932 90.55561304 3.34134528 64.17735932 6 37 C6.52229768 29.68783247 5.98150048 22.7519435 4.6875 15.5625 C4.56995361 14.90024414 4.45240723 14.23798828 4.33129883 13.55566406 C3.48619584 9.29396897 2.01304933 5.82874087 0 2 C0 1.34 0 0.68 0 0 Z " fill="#2BA3DF" transform="translate(508,225)"/>
<path d="M0 0 C0.33 0.66 0.66 1.32 1 2 C0.13677773 4.40339254 -0.92986194 6.6823906 -1.9921875 9.00390625 C-8.8745157 29.46416101 -3.01835919 54.02335175 5.87890625 72.86083984 C10.63473098 82.3853568 16.97090505 90.09883497 24 98 C24.87818508 99.06247958 25.75324237 100.12755292 26.625 101.1953125 C28.45365306 103.3548074 30.1110955 105.13435458 32.3125 106.875 C33.199375 107.57625 34.08625 108.2775 35 109 C30.75238624 109 28.5441392 106.61916595 25.375 104.0625 C24.43394409 103.30815674 24.43394409 103.30815674 23.47387695 102.53857422 C5.4318747 87.88886721 -9.38973344 66.63741384 -12 43 C-12.96040859 26.72273029 -10.20944809 13.12643325 0 0 Z " fill="#27A7E4" transform="translate(239,226)"/>
<path d="M0 0 C0.495 0.99 0.495 0.99 1 2 C0.15566583 4.16002178 -0.80305821 6.27545782 -1.8046875 8.3671875 C-2.11511993 9.02131622 -2.42555237 9.67544495 -2.74539185 10.34939575 C-3.78137142 12.52812114 -4.82829847 14.70140799 -5.875 16.875 C-6.60108698 18.39804372 -7.32633471 19.92148781 -8.05078125 21.4453125 C-9.57794303 24.65513162 -11.10914894 27.8629735 -12.64355469 31.06933594 C-16.09025185 38.27528879 -19.5068557 45.49544626 -22.91998291 52.71734619 C-23.96491077 54.9258377 -25.01316319 57.13272383 -26.06201172 59.33935547 C-26.72928569 60.74685965 -27.39612056 62.15457209 -28.0625 63.5625 C-28.38546051 64.24431839 -28.70842102 64.92613678 -29.04116821 65.62861633 C-30.80061591 69.36810945 -32.50435526 73.12610087 -34.15429688 76.9152832 C-34.51031982 77.73097778 -34.86634277 78.54667236 -35.2331543 79.38708496 C-35.91366502 80.95425693 -36.58802712 82.52411849 -37.25512695 84.0970459 C-39.62020252 89.54994485 -42.25074078 93.34830177 -47 97 C-48.48320192 98.3079382 -49.96234643 99.62049119 -51.4375 100.9375 C-52.6228126 101.96087236 -53.8095016 102.982665 -55 104 C-55.33 103.34 -55.66 102.68 -56 102 C-55.38357544 100.31063843 -55.38357544 100.31063843 -54.32861328 98.26318359 C-53.93715118 97.49412689 -53.54568909 96.72507019 -53.1423645 95.93270874 C-52.48794876 94.67824448 -52.48794876 94.67824448 -51.8203125 93.3984375 C-51.37412567 92.52917633 -50.92793884 91.65991516 -50.4682312 90.76431274 C-49.51512359 88.91125371 -48.55813803 87.06018509 -47.59765625 85.2109375 C-46.1582973 82.43912159 -44.73038274 79.66167633 -43.3046875 76.8828125 C-38.37327208 67.30380916 -33.2971482 57.82988181 -27.96582031 48.46777344 C-25.80338734 44.65316862 -23.72058376 40.80164609 -21.65136719 36.93603516 C-14.89942205 24.33585162 -7.54191672 12.14040029 0 0 Z " fill="#F9E9EA" transform="translate(387,155)"/>
<path d="M0 0 C3.63 0 7.26 0 11 0 C11.20625 1.2375 11.4125 2.475 11.625 3.75 C13.91202649 13.85103368 19.17853922 23.17448075 27 30 C28.98133755 31.17780964 30.98203745 32.3236054 33 33.4375 C37.80138422 36.24548194 37.80138422 36.24548194 38.69921875 39.65625 C38.68851907 42.19564048 38.49552015 44.51238872 38 47 C31.1865668 45.20201068 26.36917987 42.5169291 21 38 C20.3296875 37.4740625 19.659375 36.948125 18.96875 36.40625 C8.36546437 27.76049403 3.65197292 16.86885697 0 4 C0 2.68 0 1.36 0 0 Z " fill="#0073B3" transform="translate(730,271)"/>
<path d="M0 0 C0 2.64 0 5.28 0 8 C-0.556875 8.27972656 -1.11375 8.55945313 -1.6875 8.84765625 C-12.61567508 14.58864012 -20.89001535 22.04187765 -24.68896484 34.20605469 C-26.01120483 39.09458224 -27.05134161 44.02690879 -28 49 C-31.3 49 -34.6 49 -38 49 C-39.03087482 35.59862729 -32.26687281 23.88245158 -23.9375 13.875 C-18.14628609 7.61930306 -8.73933307 0 0 0 Z " fill="#60B0DC" transform="translate(768,218)"/>
<path d="M0 0 C5.285021 7.9275315 5.44201688 17.76675857 5 27 C1.7 27 -1.6 27 -5 27 C-5.19335938 25.70964844 -5.38671875 24.41929687 -5.5859375 23.08984375 C-5.84872195 21.37235965 -6.11175604 19.65491373 -6.375 17.9375 C-6.50132812 17.08994141 -6.62765625 16.24238281 -6.7578125 15.36914062 C-7.51909962 10.43980654 -8.51380132 5.76229751 -10 1 C-6.85375007 0.73781251 -5.38162983 0.75245633 -2.6875 2.5 C-1.8521875 3.2425 -1.8521875 3.2425 -1 4 C-0.67 2.68 -0.34 1.36 0 0 Z " fill="#9F4152" transform="translate(488,225)"/>
<path d="M0 0 C1.33333333 0 2.66666667 0 4 0 C2.45613111 17.55135164 -3.99963652 25.57947571 -17 37 C-17.33 36.34 -17.66 35.68 -18 35 C-16.79827856 32.31361969 -15.532441 29.74673066 -14.16015625 27.1484375 C-13.55874062 25.98738998 -13.55874062 25.98738998 -12.94517517 24.80288696 C-11.65840067 22.32296704 -10.36060861 19.84900283 -9.0625 17.375 C-8.19002538 15.69829623 -7.31827096 14.02121749 -6.44726562 12.34375 C-4.30652071 8.2247635 -2.15587505 4.11108619 0 0 Z " fill="#F9B2B7" transform="translate(349,222)"/>
<path d="M0 0 C3.63 0 7.26 0 11 0 C11.18020062 6.48722238 10.8422675 11.78234718 9 18 C7.6642543 14.22628488 8.27591329 11.14168653 8.9375 7.25 C9.13214844 6.07953125 9.32679688 4.9090625 9.52734375 3.703125 C9.76130859 2.36507813 9.76130859 2.36507813 10 1 C7.69 1.33 5.38 1.66 3 2 C2.0346495 4.8960515 1.73674854 7.22300083 1.5 10.25 C0.83339541 17.94625299 -0.37997006 24.7331245 -3 32 C-3.66 31.67 -4.32 31.34 -5 31 C-5.3242395 31.80836304 -5.3242395 31.80836304 -5.6550293 32.63305664 C-6.65630707 35.1135129 -7.67177589 37.58792619 -8.6875 40.0625 C-9.02716797 40.91005859 -9.36683594 41.75761719 -9.71679688 42.63085938 C-11.66356012 47.34311806 -13.75942829 51.4280795 -16.86132812 55.47949219 C-18.14370466 57.12191253 -18.14370466 57.12191253 -19.45703125 59.60546875 C-21.46151312 62.71622162 -23.91748635 64.86837031 -26.6875 67.3125 C-27.19861328 67.76689453 -27.70972656 68.22128906 -28.23632812 68.68945312 C-29.48576335 69.79876478 -30.74217823 70.90020678 -32 72 C-32.66 71.67 -33.32 71.34 -34 71 C-33.0479279 69.99403703 -32.08812654 68.99538437 -31.125 68 C-30.59132813 67.443125 -30.05765625 66.88625 -29.5078125 66.3125 C-28 65 -28 65 -26 65 C-25.72414063 64.40703125 -25.44828125 63.8140625 -25.1640625 63.203125 C-24.06071174 61.1149041 -22.88409808 59.55417312 -21.375 57.75 C-10.67824047 43.65329246 -5.59355015 26.04690351 -2 9 C-1.60585059 7.2287911 -1.21022089 5.45791035 -0.8125 3.6875 C-0.544375 2.470625 -0.27625 1.25375 0 0 Z " fill="#4EBFF5" transform="translate(482,259)"/>
<path d="M0 0 C0.763125 0.350625 1.52625 0.70125 2.3125 1.0625 C5.04759379 2.32360884 5.04759379 2.32360884 8 1 C8.44988281 1.85980469 8.89976562 2.71960938 9.36328125 3.60546875 C14.28180468 12.73708039 20.12481218 20.27183672 27 28 C27.87818508 29.06247958 28.75324237 30.12755292 29.625 31.1953125 C31.45365306 33.3548074 33.1110955 35.13435458 35.3125 36.875 C36.199375 37.57625 37.08625 38.2775 38 39 C33.75238624 39 31.5441392 36.61916595 28.375 34.0625 C27.74762939 33.55960449 27.12025879 33.05670898 26.47387695 32.53857422 C15.19791103 23.38273915 6.29551444 13.20474255 0 0 Z " fill="#007DC3" transform="translate(236,296)"/>
<path d="M0 0 C5.81642489 -0.27697261 10.08409268 0.39393526 14.6328125 4.20703125 C15.86644531 5.49673828 15.86644531 5.49673828 17.125 6.8125 C17.95257813 7.66457031 18.78015625 8.51664063 19.6328125 9.39453125 C21.86796504 11.85467439 23.95758536 14.37874435 26 17 C25.34 18.32 24.68 19.64 24 21 C23.01 21 22.02 21 21 21 C18.90625 18.65625 18.90625 18.65625 16.5 15.5 C12.22164598 10.0622201 7.8270996 6.28738104 2.0546875 2.42578125 C1.37664062 1.95527344 0.69859375 1.48476562 0 1 C0 0.67 0 0.34 0 0 Z " fill="#80C8EA" transform="translate(419,194)"/>
<path d="M0 0 C7.26 0 14.52 0 22 0 C22 1.65 22 3.3 22 5 C18.84685215 7.10209857 18.13896919 7.2434761 14.55078125 7.1953125 C13.27944336 7.18564453 13.27944336 7.18564453 11.98242188 7.17578125 C11.10134766 7.15902344 10.22027344 7.14226563 9.3125 7.125 C8.41982422 7.11597656 7.52714844 7.10695313 6.60742188 7.09765625 C4.40467686 7.07409748 2.20247412 7.04120329 0 7 C0 4.69 0 2.38 0 0 Z " fill="#5AB1E3" transform="translate(614,0)"/>
<path d="M0 0 C2.69107841 3.22614664 4.13698222 6.45868327 5.625 10.375 C6.26308594 12.02628906 6.26308594 12.02628906 6.9140625 13.7109375 C8.48052866 18.45541414 9.13802324 22.89046644 9.0625 27.875 C9.05347656 28.65617187 9.04445313 29.43734375 9.03515625 30.2421875 C9.02355469 30.82226562 9.01195312 31.40234375 9 32 C7.68 32 6.36 32 5 32 C4.90203125 31.44054687 4.8040625 30.88109375 4.703125 30.3046875 C3.49707497 23.83776404 1.79089106 17.59678375 -0.09765625 11.296875 C-0.95195577 8.17553823 -1.69720203 5.22363382 -2 2 C-1.34 1.34 -0.68 0.68 0 0 Z " fill="#6DC3EB" transform="translate(448,219)"/>
<path d="M0 0 C6.12933948 1.55830665 10.88496277 3.96143629 16.0625 7.5 C16.64668701 7.89179443 17.23087402 8.28358887 17.83276367 8.68725586 C19.47265625 9.84375 19.47265625 9.84375 22 12 C22 12.99 22 13.98 22 15 C13.67404102 14.7177641 7.37484982 11.72731977 0 8 C0 5.36 0 2.72 0 0 Z " fill="#096696" transform="translate(406,181)"/>
<path d="M0 0 C7.26 0 14.52 0 22 0 C22 1.98 22 3.96 22 6 C19.84095181 8.15904819 15.11115455 7.23159535 12.125 7.25 C11.29613281 7.270625 10.46726562 7.29125 9.61328125 7.3125 C8.81535156 7.31765625 8.01742187 7.3228125 7.1953125 7.328125 C6.46328613 7.3374707 5.73125977 7.34681641 4.97705078 7.35644531 C2.39512588 6.89094638 1.51775355 6.12066393 0 4 C0 2.68 0 1.36 0 0 Z " fill="#55A0CE" transform="translate(657,0)"/>
<path d="M0 0 C2.27191444 2.93370333 4.24738001 5.96366434 6.1875 9.125 C11.63739048 17.71686088 17.74842785 25.08431088 25.3125 31.89453125 C27.39821931 34.49685233 27.33558595 35.74376761 27 39 C27 39.99 27 40.98 27 42 C0 13.99065421 0 13.99065421 0 0 Z " fill="#840101" transform="translate(272,292)"/>
<path d="M0 0 C5.54050113 0.56825653 10.03715966 2.62886517 15 5 C13.68 5.33 12.36 5.66 11 6 C11 8.64 11 11.28 11 14 C7.35839192 15.21386936 6.66834531 14.6674695 3.3125 13.0625 C2.50425781 12.68222656 1.69601562 12.30195313 0.86328125 11.91015625 C0.24839844 11.60980469 -0.36648438 11.30945313 -1 11 C-1.125 3.375 -1.125 3.375 0 0 Z " fill="#9C030C" transform="translate(411,149)"/>
<path d="M0 0 C6.93 0 13.86 0 21 0 C21 2.31 21 4.62 21 7 C18.24940619 7.08107646 15.50120979 7.14052813 12.75 7.1875 C11.97269531 7.21263672 11.19539062 7.23777344 10.39453125 7.26367188 C6.93312041 7.30804894 4.59211447 7.29333278 1.453125 5.73828125 C0 4 0 4 0 0 Z " fill="#5DB1E4" transform="translate(736,0)"/>
<path d="M0 0 C0.33 0.66 0.66 1.32 1 2 C-0.05614511 4.60925491 -1.17747851 7.103403 -2.40234375 9.6328125 C-2.75889542 10.38464813 -3.11544708 11.13648376 -3.48280334 11.91110229 C-4.6269829 14.31933363 -5.78208601 16.72214153 -6.9375 19.125 C-7.71361397 20.75356172 -8.48901408 22.38246386 -9.26367188 24.01171875 C-11.16751027 28.01181429 -13.08116368 32.00707863 -15 36 C-16.32 35.67 -17.64 35.34 -19 35 C-19 35.66 -19 36.32 -19 37 C-19.66 36.67 -20.32 36.34 -21 36 C-14.39852966 23.72876425 -7.54418501 11.71721576 0 0 Z " fill="#E47E7D" transform="translate(387,155)"/>
<path d="M0 0 C0.33 0 0.66 0 1 0 C1 5.94 1 11.88 1 18 C-6 20 -6 20 -10 19 C-6.7 12.73 -3.4 6.46 0 0 Z " fill="#EB040C" transform="translate(767,255)"/>
<path d="M0 0 C0.33 0.66 0.66 1.32 1 2 C0.26660156 3.97412109 0.26660156 3.97412109 -0.859375 6.3984375 C-3.25282504 12.12253186 -3.85594177 17.47604975 -4.25 23.625 C-4.36601562 25.13126953 -4.36601562 25.13126953 -4.484375 26.66796875 C-4.6705339 29.11130431 -4.84215595 31.55470054 -5 34 C-5.33 34 -5.66 34 -6 34 C-6.33 31.36 -6.66 28.72 -7 26 C-7.99 26.33 -8.98 26.66 -10 27 C-11.67239918 21.88989139 -9.95446322 17.83368924 -8 13 C-2.46115288 2.46115288 -2.46115288 2.46115288 0 0 Z " fill="#09A2E1" transform="translate(239,226)"/>
<path d="M0 0 C2.43403888 2.36642669 4.75067569 4.67329918 6.8125 7.375 C11.68070462 13.21684554 17.76420162 17.71288862 24 22 C23.01 24.475 23.01 24.475 22 27 C17.41779871 23.33423897 13.30772965 19.35712071 9.3125 15.0625 C8.6177356 14.32821777 8.6177356 14.32821777 7.90893555 13.57910156 C0 4.95220584 0 4.95220584 0 0 Z " fill="#7E0304" transform="translate(722,303)"/>
<path d="M0 0 C0.66 0.66 1.32 1.32 2 2 C1.87398938 7.04042466 -0.3297546 10.9287502 -2.61328125 15.29296875 C-3.995412 17.9910437 -5.22366022 20.72270316 -6.4375 23.5 C-11.43623174 34.5252401 -17.32442208 42.67001672 -27 50 C-27.66 49.67 -28.32 49.34 -29 49 C-28.0479279 47.99403703 -27.08812654 46.99538437 -26.125 46 C-25.59132813 45.443125 -25.05765625 44.88625 -24.5078125 44.3125 C-23 43 -23 43 -21 43 C-20.72414063 42.40703125 -20.44828125 41.8140625 -20.1640625 41.203125 C-19.06071174 39.1149041 -17.88409808 37.55417312 -16.375 35.75 C-8.3734403 25.20515726 -3.75448918 12.56309841 0 0 Z " fill="#0399DA" transform="translate(477,281)"/>
<path d="M0 0 C0.33 0.66 0.66 1.32 1 2 C0.67 2.66 0.34 3.32 0 4 C1.32 3.01 2.64 2.02 4 1 C4.66 1.33 5.32 1.66 6 2 C-1.93455648 11.14072532 -10.2619714 18.81172149 -20 26 C-20.66 25.67 -21.32 25.34 -22 25 C-21.33355469 24.45214844 -20.66710937 23.90429688 -19.98046875 23.33984375 C-11.95186483 16.4341215 -5.99590184 8.69811678 0 0 Z " fill="#0180C0" transform="translate(497,310)"/>
<path d="M0 0 C1 2 1 2 1 6 C1.680625 5.2575 1.680625 5.2575 2.375 4.5 C4 3 4 3 6 3 C3.60309494 10.44302097 0.84737559 17.71837152 -2 25 C-2.66 24.67 -3.32 24.34 -4 24 C-2.57943925 2.57943925 -2.57943925 2.57943925 0 0 Z " fill="#CB0002" transform="translate(381,302)"/>
<path d="M0 0 C0.99 0 1.98 0 3 0 C2.35534798 4.33304076 0.81074878 7.86672065 -1.0625 11.8125 C-1.61035156 12.97394531 -2.15820312 14.13539063 -2.72265625 15.33203125 C-3.14417969 16.21246094 -3.56570313 17.09289062 -4 18 C-4.33 17.34 -4.66 16.68 -5 16 C-6.65 16.33 -8.3 16.66 -10 17 C-8.90786906 14.68109183 -7.80224952 12.37050252 -6.6875 10.0625 C-6.37876953 9.40314453 -6.07003906 8.74378906 -5.75195312 8.06445312 C-4.91049022 6.33723979 -3.96052335 4.6639473 -3 3 C-2.01 2.67 -1.02 2.34 0 2 C0 1.34 0 0.68 0 0 Z " fill="#F8ACAD" transform="translate(368,190)"/>
<path d="M0 0 C0.66 0 1.32 0 2 0 C1.48311477 14.116314 -0.10604456 28.00646655 -2 42 C-2.33 42 -2.66 42 -3 42 C-3.26864425 33.9854465 -2.64911821 26.37131492 -1.4375 18.4453125 C-1.03167131 15.24941156 -0.92130915 12.21648829 -1 9 C-1.66 9 -2.32 9 -3 9 C-3.66 10.65 -4.32 12.3 -5 14 C-5.67578125 12.328125 -5.67578125 12.328125 -6 10 C-4.85546875 7.421875 -4.85546875 7.421875 -3.1875 4.75 C-2.37345703 3.41195312 -2.37345703 3.41195312 -1.54296875 2.046875 C-1.03378906 1.37140625 -0.52460938 0.6959375 0 0 Z " fill="#AD2107" transform="translate(393,145)"/>
<path d="M0 0 C1.65 0 3.3 0 5 0 C5 0.99 5 1.98 5 3 C9.29 3 13.58 3 18 3 C18 4.32 18 5.64 18 7 C12.06 7 6.12 7 0 7 C0 4.69 0 2.38 0 0 Z " fill="#4FA4D5" transform="translate(700,0)"/>
<path d="M0 0 C2.93451379 2.75627868 5.11897397 5.48641158 7.1875 8.9375 C7.69667969 9.77152344 8.20585938 10.60554687 8.73046875 11.46484375 C10.02020429 14.04034641 10.67624403 16.14418241 11 19 C10.67 19.66 10.34 20.32 10 21 C9.01 21 8.02 21 7 21 C6.67 21.99 6.34 22.98 6 24 C5.81824219 22.91460937 5.63648438 21.82921875 5.44921875 20.7109375 C5.19580466 19.26553863 4.94187075 17.82023082 4.6875 16.375 C4.51057617 15.30572266 4.51057617 15.30572266 4.33007812 14.21484375 C3.51759786 9.67328741 2.20012214 6.10442954 0 2 C0 1.34 0 0.68 0 0 Z " fill="#0DA6E6" transform="translate(508,225)"/>
<path d="M0 0 C2.40034102 3.60051153 4.32187705 6.96144535 3.625 11.375 C3.41875 11.91125 3.2125 12.4475 3 13 C3 12.34 3 11.68 3 11 C2.4225 10.71125 1.845 10.4225 1.25 10.125 C-0.21676136 9.39161932 -1.67568587 8.64228395 -3.125 7.875 C-4.95720802 6.85903818 -4.95720802 6.85903818 -7 7 C-10 3.53846154 -10 3.53846154 -10 1 C-6.85375007 0.73781251 -5.38162983 0.75245633 -2.6875 2.5 C-1.8521875 3.2425 -1.8521875 3.2425 -1 4 C-0.67 2.68 -0.34 1.36 0 0 Z " fill="#B62940" transform="translate(488,225)"/>
<path d="M0 0 C2.97587567 2.88569762 5.74797146 5.84428651 8.4375 9 C11.38407913 12.41182846 14.44974887 15.22907229 18 18 C13.61725801 18 11.21930157 15.37410583 7.9375 12.75 C7.30005859 12.25886719 6.66261719 11.76773437 6.00585938 11.26171875 C5.39419922 10.77832031 4.78253906 10.29492188 4.15234375 9.796875 C3.59538818 9.35698242 3.03843262 8.91708984 2.46459961 8.46386719 C0.74565202 6.74577921 -0.16098975 5.28051451 -1 3 C-0.67 2.01 -0.34 1.02 0 0 Z " fill="#006BA7" transform="translate(256,317)"/>
<path d="M0 0 C-1.1446875 1.0828125 -1.1446875 1.0828125 -2.3125 2.1875 C-4.72655209 4.71383359 -6.47702891 6.86944831 -8 10 C-7.67 10.66 -7.34 11.32 -7 12 C-5.02 11.34 -3.04 10.68 -1 10 C-0.67 10.66 -0.34 11.32 0 12 C-7.28571429 15.42857143 -7.28571429 15.42857143 -12 15 C-8.72093023 4.53488372 -8.72093023 4.53488372 -6 0 C-3 -1 -3 -1 0 0 Z " fill="#3393BE" transform="translate(405,315)"/>
<path d="M0 0 C-0.60698743 4.12751449 -2.03810791 7.3321148 -4 11 C-5.32 10.67 -6.64 10.34 -8 10 C-8 10.66 -8 11.32 -8 12 C-8.66 11.67 -9.32 11.34 -10 11 C-9.23832543 9.53686228 -8.46529293 8.07963339 -7.6875 6.625 C-7.25824219 5.81289062 -6.82898438 5.00078125 -6.38671875 4.1640625 C-4.70359816 1.53744615 -3.25518692 0 0 0 Z " fill="#E88180" transform="translate(376,180)"/>
<path d="M0 0 C0.33 0 0.66 0 1 0 C1.92017937 7.66816143 1.92017937 7.66816143 -0.3359375 10.93359375 C-2 12.5625 -2 12.5625 -5 15 C-5.66 14.67 -6.32 14.34 -7 14 C-4.69 9.38 -2.38 4.76 0 0 Z " fill="#F89CA1" transform="translate(767,255)"/>
<path d="M0 0 C0.33 0.66 0.66 1.32 1 2 C0.2578125 4.06640625 0.2578125 4.06640625 -0.875 6.5625 C-2.94809387 11.4735879 -3.65787516 15.69706505 -4 21 C-4.33 21 -4.66 21 -5 21 C-5 19.02 -5 17.04 -5 15 C-5.99 15 -6.98 15 -8 15 C-6.51194289 9.19657726 -3.40902445 4.82409121 0 0 Z " fill="#0685C3" transform="translate(239,226)"/>
<path d="M0 0 C1.65 0 3.3 0 5 0 C5.33 0.99 5.66 1.98 6 3 C8.64 3.33 11.28 3.66 14 4 C13.67 4.66 13.34 5.32 13 6 C11.20866022 6.05391993 9.41686101 6.09275571 7.625 6.125 C6.62726562 6.14820313 5.62953125 6.17140625 4.6015625 6.1953125 C2 6 2 6 0 4 C0 2.68 0 1.36 0 0 Z " fill="#5CB9EF" transform="translate(657,0)"/>
<path d="M0 0 C1.32 0.33 2.64 0.66 4 1 C3.34 1.66 2.68 2.32 2 3 C1.31576445 5.19070373 0.70064632 7.40329065 0.125 9.625 C-1.39887346 15.19343984 -3.18519458 19.97356175 -6 25 C-6.66 24.67 -7.32 24.34 -8 24 C-7.59007812 23.10539062 -7.18015625 22.21078125 -6.7578125 21.2890625 C-3.60908368 14.27395142 -1.02762715 7.68948589 0 0 Z " fill="#005477" transform="translate(446,258)"/>
<path d="M0 0 C2.62386487 3.06117568 3 3.73173127 3 8 C2.34 8 1.68 8 1 8 C0.67 7.34 0.34 6.68 0 6 C-0.66 6 -1.32 6 -2 6 C-2 11.28 -2 16.56 -2 22 C-2.33 22 -2.66 22 -3 22 C-3 15.4 -3 8.8 -3 2 C-2.01 2 -1.02 2 0 2 C0 1.34 0 0.68 0 0 Z " fill="#34BCF1" transform="translate(518,244)"/>
<path d="M0 0 C-0.4979837 3.73487777 -0.87491756 5.81237635 -3 9 C-3 8.01 -3 7.02 -3 6 C-6.12197478 7.3089572 -6.12197478 7.3089572 -8 10 C-8.66 9.67 -9.32 9.34 -10 9 C-9.23997083 7.68121422 -8.46656347 6.3701316 -7.6875 5.0625 C-7.25824219 4.33160156 -6.82898438 3.60070312 -6.38671875 2.84765625 C-4.57483555 0.43351329 -2.98467485 0 0 0 Z " fill="#F7DADC" transform="translate(363,206)"/>
<path d="M0 0 C0.99 0.495 0.99 0.495 2 1 C2.75569374 3.58588952 3.40876052 6.12637479 4 8.75 C5.28685488 14.41367768 5.28685488 14.41367768 7.1875 19.890625 C7.455625 20.58671875 7.72375 21.2828125 8 22 C7.67 22.66 7.34 23.32 7 24 C-0.59215818 7.6980563 -0.59215818 7.6980563 0 0 Z " fill="#CC0002" transform="translate(706,275)"/>
<path d="M0 0 C-1.41318519 3.3046792 -3.07279525 5.19508587 -5.8125 7.5 C-6.52019531 8.09941406 -7.22789062 8.69882813 -7.95703125 9.31640625 C-10.2858889 11.23559869 -12.62185925 13.14207754 -15 15 C-14.67 13.68 -14.34 12.36 -14 11 C-13.34 11 -12.68 11 -12 11 C-11.7525 10.41734375 -11.505 9.8346875 -11.25 9.234375 C-9.81474554 6.66885764 -8.22336987 5.16275202 -6 3.25 C-5.29875 2.63640625 -4.5975 2.0228125 -3.875 1.390625 C-2 0 -2 0 0 0 Z " fill="#DB1824" transform="translate(742,212)"/>
<path d="M0 0 C1.65 1.32 3.3 2.64 5 4 C4.34 5.32 3.68 6.64 3 8 C2.01 8 1.02 8 0 8 C-3 4.66666667 -3 4.66666667 -3 2 C-2.01 1.34 -1.02 0.68 0 0 Z " fill="#7ECEF1" transform="translate(440,207)"/>
<path d="M0 0 C0.66 0 1.32 0 2 0 C1.71640113 1.4391134 1.42278601 2.87625518 1.125 4.3125 C0.96257812 5.11300781 0.80015625 5.91351563 0.6328125 6.73828125 C0 9 0 9 -2 12 C-2.66 12 -3.32 12 -4 12 C-3.53680089 7.27536912 -2.90108294 3.82942948 0 0 Z " fill="#E20000" transform="translate(383,308)"/>
<path d="M0 0 C0.33 0.66 0.66 1.32 1 2 C-0.21484375 4.8203125 -0.21484375 4.8203125 -1.9375 8.125 C-2.50339844 9.22070312 -3.06929688 10.31640625 -3.65234375 11.4453125 C-4.09707031 12.28835937 -4.54179687 13.13140625 -5 14 C-5.66 14 -6.32 14 -7 14 C-7.66 15.32 -8.32 16.64 -9 18 C-9 14.81579155 -8.63765561 14.03619037 -7.03125 11.42578125 C-6.42216797 10.42514648 -6.42216797 10.42514648 -5.80078125 9.40429688 C-5.15689453 8.36885742 -5.15689453 8.36885742 -4.5 7.3125 C-4.07074219 6.61060547 -3.64148438 5.90871094 -3.19921875 5.18554688 C-2.13872072 3.45340009 -1.07012602 1.72621518 0 0 Z " fill="#D87B78" transform="translate(387,155)"/>
<path d="M0 0 C3.96 0 7.92 0 12 0 C12 0.99 12 1.98 12 3 C8.04 3 4.08 3 0 3 C0 2.01 0 1.02 0 0 Z " fill="#050607" transform="translate(662,0)"/>
<path d="M0 0 C3.96 0 7.92 0 12 0 C12 0.99 12 1.98 12 3 C8.04 3 4.08 3 0 3 C0 2.01 0 1.02 0 0 Z " fill="#060708" transform="translate(619,0)"/>
<path d="M0 0 C2.560881 3.24640915 4.62476717 6.66940716 6.6875 10.25 C7.31011719 11.32765625 7.93273437 12.4053125 8.57421875 13.515625 C9.04472656 14.33546875 9.51523437 15.1553125 10 16 C8.203125 15.83203125 8.203125 15.83203125 6 15 C4.296875 12.63671875 4.296875 12.63671875 2.75 9.6875 C2.22921875 8.72199219 1.7084375 7.75648438 1.171875 6.76171875 C0 4 0 4 0 0 Z " fill="#700100" transform="translate(272,292)"/>
<path d="M0 0 C0.66 0.33 1.32 0.66 2 1 C-7.22551253 10.77904328 -7.22551253 10.77904328 -13 13 C-11.53287603 9.38003107 -9.6188429 7.67362772 -6.5 5.375 C-4.18118549 3.65094636 -2.04438858 2.04438858 0 0 Z " fill="#1192B9" transform="translate(427,297)"/>
<path d="M0 0 C0.66 0 1.32 0 2 0 C2.64939736 2.37407592 3.29460053 4.7491639 3.9375 7.125 C4.11990234 7.79015625 4.30230469 8.4553125 4.49023438 9.140625 C5.55082506 13.07445227 6.40362132 16.96973565 7 21 C2.03619501 16.03619501 0.62258252 6.84840775 0 0 Z " fill="#E60100" transform="translate(257,273)"/>
<path d="M0 0 C0.33 0 0.66 0 1 0 C2.03590199 5.05002222 2.10251672 9.87416389 2 15 C0.68 15 -0.64 15 -2 15 C-2.33 13.02 -2.66 11.04 -3 9 C-1.68 9.33 -0.36 9.66 1 10 C0.67 9.34 0.34 8.68 0 8 C-0.13415472 5.3276379 -0.04318541 2.67749512 0 0 Z " fill="#5BA8CA" transform="translate(455,236)"/>
<path d="M0 0 C2.12508244 3.18762365 2.5020163 5.26512223 3 9 C0.0344352 7.62313063 -2.39134755 5.95648934 -5 4 C-6.31836295 3.30419733 -7.64791086 2.62775567 -9 2 C-7.25 1.3125 -7.25 1.3125 -5 1 C-2.75 2.4375 -2.75 2.4375 -1 4 C-0.67 2.68 -0.34 1.36 0 0 Z " fill="#DC1B35" transform="translate(488,225)"/>
<path d="M0 0 C0.66 0.99 1.32 1.98 2 3 C1.23925157 4.62974564 0.46601567 6.25366648 -0.3125 7.875 C-0.74175781 8.77992188 -1.17101562 9.68484375 -1.61328125 10.6171875 C-3 13 -3 13 -6 15 C-4.36041242 9.76727367 -2.61047965 4.84803364 0 0 Z " fill="#F51A21" transform="translate(369,195)"/>
<path d="M0 0 C-1.75 4.875 -1.75 4.875 -4 6 C-4 5.01 -4 4.02 -4 3 C-4.598125 3.350625 -5.19625 3.70125 -5.8125 4.0625 C-8 5 -8 5 -11 4 C-7.65667474 -0.27945633 -5.29105716 -0.4070044 0 0 Z " fill="#E20000" transform="translate(424,230)"/>
<path d="M0 0 C3.63 0 7.26 0 11 0 C11 0.99 11 1.98 11 3 C7.7 3 4.4 3 1 3 C0.67 2.01 0.34 1.02 0 0 Z " fill="#040506" transform="translate(741,0)"/>
<path d="M0 0 C0.33 0.99 0.66 1.98 1 3 C-2.63 6.3 -6.26 9.6 -10 13 C-10.66 12.67 -11.32 12.34 -12 12 C-11.0479279 10.99403703 -10.08812654 9.99538437 -9.125 9 C-8.32449219 8.1646875 -8.32449219 8.1646875 -7.5078125 7.3125 C-6 6 -6 6 -4 6 C-3.566875 5.071875 -3.566875 5.071875 -3.125 4.125 C-2 2 -2 2 0 0 Z " fill="#017DB8" transform="translate(460,318)"/>
<path d="M0 0 C0.99 0.33 1.98 0.66 3 1 C1.58510266 2.27280294 0.16800334 3.5431583 -1.25 4.8125 C-2.03890625 5.52019531 -2.8278125 6.22789062 -3.640625 6.95703125 C-5.7016833 8.74168935 -7.79605523 10.39759062 -10 12 C-10.66 11.67 -11.32 11.34 -12 11 C-8.04 7.37 -4.08 3.74 0 0 Z " fill="#028DC5" transform="translate(487,324)"/>
<path d="M0 0 C1.39894958 2.28634297 2.03151185 3.58031945 1.828125 6.2890625 C1.63734375 7.05992187 1.4465625 7.83078125 1.25 8.625 C1.06953125 9.40101563 0.8890625 10.17703125 0.703125 10.9765625 C0 13 0 13 -2 15 C-2.05406122 13.06280622 -2.09282025 11.12518079 -2.125 9.1875 C-2.14820313 8.10855469 -2.17140625 7.02960938 -2.1953125 5.91796875 C-2 3 -2 3 0 0 Z " fill="#18B4F8" transform="translate(480,276)"/>
<path d="M0 0 C0.33 0.66 0.66 1.32 1 2 C2.65 1.67 4.3 1.34 6 1 C2.83047153 4.26008643 -0.39937989 7.22237877 -4 10 C-2.8905928 6.51329166 -1.73662334 3.22515763 0 0 Z " fill="#EE868C" transform="translate(335,249)"/>
<path d="M0 0 C4.46839215 -0.21278058 7.82262526 0.40861915 12 2 C9.5556104 4.4443896 8.44616056 4.91985673 5 5 C2.1875 2.5625 2.1875 2.5625 0 0 Z " fill="#48A2CE" transform="translate(419,194)"/>
<path d="M0 0 C-0.66 1.32 -1.32 2.64 -2 4 C-2 3.34 -2 2.68 -2 2 C-3.12148438 2.34224609 -3.12148438 2.34224609 -4.265625 2.69140625 C-5.25046875 2.97886719 -6.2353125 3.26632813 -7.25 3.5625 C-8.22453125 3.85253906 -9.1990625 4.14257812 -10.203125 4.44140625 C-12.96243932 4.99249836 -14.3912824 4.93789609 -17 4 C-15.10751181 3.32389577 -13.2108398 2.65949561 -11.3125 2 C-10.25675781 1.62875 -9.20101563 1.2575 -8.11328125 0.875 C-5.21637944 0.0608143 -2.98299377 -0.17709796 0 0 Z " fill="#4381A8" transform="translate(357,176)"/>
<path d="M0 0 C1.010625 0.0825 2.02125 0.165 3.0625 0.25 C3.7225 1.24 4.3825 2.23 5.0625 3.25 C3.0825 3.91 1.1025 4.57 -0.9375 5.25 C-1.9275 3.93 -2.9175 2.61 -3.9375 1.25 C-2.9375 0.25 -2.9375 0.25 0 0 Z " fill="#6ABBE0" transform="translate(428.9375,196.75)"/>
<path d="M0 0 C1.1484375 1.703125 1.1484375 1.703125 2 4 C1.1015625 6.359375 1.1015625 6.359375 -0.375 8.75 C-1.09816406 9.94882812 -1.09816406 9.94882812 -1.8359375 11.171875 C-2.22007812 11.77515625 -2.60421875 12.3784375 -3 13 C-3.66 13 -4.32 13 -5 13 C-3.58192622 8.52761347 -1.88695626 4.28853694 0 0 Z " fill="#0C8AC8" transform="translate(508,288)"/>
<path d="M0 0 C0.33 0 0.66 0 1 0 C2.25 7.625 2.25 7.625 0 11 C-0.99 11.33 -1.98 11.66 -3 12 C-2.69230293 10.18667846 -2.37870936 8.37435655 -2.0625 6.5625 C-1.80146484 5.04849609 -1.80146484 5.04849609 -1.53515625 3.50390625 C-1 1 -1 1 0 0 Z " fill="#32A5DC" transform="translate(481,267)"/>
<path d="M0 0 C0.66 0.33 1.32 0.66 2 1 C2 4.96 2 8.92 2 13 C1.67 13 1.34 13 1 13 C0.67 10.36 0.34 7.72 0 5 C-0.99 5.33 -1.98 5.66 -3 6 C-3.33 4.68 -3.66 3.36 -4 2 C-2.125 0.9375 -2.125 0.9375 0 0 Z " fill="#1399D3" transform="translate(232,247)"/>
<path d="M0 0 C1.32 0 2.64 0 4 0 C4 1.98 4 3.96 4 6 C2.35 6 0.7 6 -1 6 C-0.67 4.02 -0.34 2.04 0 0 Z " fill="#58BAF2" transform="translate(675,0)"/>
<path d="M0 0 C0.33 0 0.66 0 1 0 C1 3.96 1 7.92 1 12 C0.67 12 0.34 12 0 12 C0 10.02 0 8.04 0 6 C-1.32 6.33 -2.64 6.66 -4 7 C-3.67 5.68 -3.34 4.36 -3 3 C-2.01 3 -1.02 3 0 3 C0 2.01 0 1.02 0 0 Z " fill="#28BDF5" transform="translate(232,249)"/>
<path d="M0 0 C3.67033927 3.27708863 5.69281189 6.71522208 8 11 C6.68 11.33 5.36 11.66 4 12 C3.3291288 10.3767313 2.66342971 8.75132422 2 7.125 C1.62875 6.22007812 1.2575 5.31515625 0.875 4.3828125 C0 2 0 2 0 0 Z " fill="#0372A7" transform="translate(508,225)"/>
<path d="M0 0 C2.09350689 3.4019487 2.17942163 6.05272412 2 10 C-0.31 9.67 -2.62 9.34 -5 9 C-4.0409375 8.7215625 -4.0409375 8.7215625 -3.0625 8.4375 C-0.57873787 7.05753944 -0.57873787 7.05753944 -0.25 3.375 C-0.1675 2.26125 -0.085 1.1475 0 0 Z " fill="#005583" transform="translate(352,320)"/>
<path d="M0 0 C0.66 0 1.32 0 2 0 C0.64615385 6.52307692 0.64615385 6.52307692 -2.625 8.9375 C-3.40875 9.288125 -4.1925 9.63875 -5 10 C-3.66749209 6.4124787 -2.169283 3.1635377 0 0 Z " fill="#F59FA6" transform="translate(344,233)"/>
<path d="M0 0 C-0.33 1.98 -0.66 3.96 -1 6 C-1.33 5.34 -1.66 4.68 -2 4 C-3.65 4.33 -5.3 4.66 -7 5 C-6.1875 3.0625 -6.1875 3.0625 -5 1 C-2 0 -2 0 0 0 Z " fill="#FABEBE" transform="translate(365,202)"/>
<path d="M0 0 C-2.66666667 2.66666667 -5.33333333 5.33333333 -8 8 C-7.75 4.625 -7.75 4.625 -7 1 C-4.18767584 -1.24985933 -3.47216275 -1.15738758 0 0 Z " fill="#45A2CF" transform="translate(405,315)"/>
<path d="M0 0 C1.98 0.495 1.98 0.495 4 1 C3.690625 1.53625 3.38125 2.0725 3.0625 2.625 C1.82172561 5.3984957 1.4090325 8.00042837 1 11 C-1.78637633 6.8204355 -0.79562512 4.85331323 0 0 Z " fill="#4CB3E7" transform="translate(482,259)"/>
<path d="M0 0 C-5.75 4 -5.75 4 -8 4 C-8 3.34 -8 2.68 -8 2 C-8.66 1.67 -9.32 1.34 -10 1 C-3.375 -1.125 -3.375 -1.125 0 0 Z " fill="#340202" transform="translate(390,249)"/>
<path d="M0 0 C0.66 0 1.32 0 2 0 C2.33 2.97 2.66 5.94 3 9 C2.01 9.495 2.01 9.495 1 10 C0.67 6.7 0.34 3.4 0 0 Z " fill="#B5060B" transform="translate(368,326)"/>
<path d="M0 0 C0.99 1.32 1.98 2.64 3 4 C1.68 5.32 0.36 6.64 -1 8 C-1.66 7.67 -2.32 7.34 -3 7 C-2.01 4.69 -1.02 2.38 0 0 Z " fill="#E8757D" transform="translate(763,262)"/>
<path d="M0 0 C2.475 0.99 2.475 0.99 5 2 C4.34 3.65 3.68 5.3 3 7 C2.34 6.67 1.68 6.34 1 6 C0.375 2.9375 0.375 2.9375 0 0 Z " fill="#870407" transform="translate(741,323)"/>
<path d="M0 0 C2.16321167 3.24481751 3.6314591 6.35055759 5 10 C4.67 10.99 4.34 11.98 4 13 C3.32404685 11.58774074 2.65959941 10.16997095 2 8.75 C1.62875 7.96109375 1.2575 7.1721875 0.875 6.359375 C0 4 0 4 0 0 Z " fill="#E60100" transform="translate(709,286)"/>
<path d="M0 0 C0.66 0.33 1.32 0.66 2 1 C1.34 2.32 0.68 3.64 0 5 C-0.99 5 -1.98 5 -3 5 C-3.33 4.01 -3.66 3.02 -4 2 C-2.125 0.9375 -2.125 0.9375 0 0 Z " fill="#69C0E2" transform="translate(443,210)"/>
<path d="M0 0 C1.32 0 2.64 0 4 0 C3.67 1.98 3.34 3.96 3 6 C2.01 5.34 1.02 4.68 0 4 C0 2.68 0 1.36 0 0 Z " fill="#5EB7EC" transform="translate(736,0)"/>
<path d="M0 0 C3.875 1.75 3.875 1.75 5 4 C4.34 4.66 3.68 5.32 3 6 C2.01 4.02 1.02 2.04 0 0 Z M7 1 C7.66 2.32 8.32 3.64 9 5 C7.68 4.01 6.36 3.02 5 2 C5.66 1.67 6.32 1.34 7 1 Z " fill="#038ED2" transform="translate(236,296)"/>
<path d="M0 0 C0.33 0.66 0.66 1.32 1 2 C0.06421005 4.35981813 -0.93347808 6.69631264 -2 9 C-2.99 9 -3.98 9 -5 9 C-3.7508258 5.54074837 -2.32472205 2.85306797 0 0 Z " fill="#036FA0" transform="translate(239,226)"/>
<path d="M0 0 C-1.45255699 3.82946843 -3.42895561 5.12050295 -7 7 C-7 6.01 -7 5.02 -7 4 C-2.65714286 0 -2.65714286 0 0 0 Z " fill="#EA1A26" transform="translate(742,212)"/>
<path d="M0 0 C0.66 0 1.32 0 2 0 C3.7578125 5.95703125 3.7578125 5.95703125 4 8 C3.01 9.485 3.01 9.485 2 11 C1.34 7.37 0.68 3.74 0 0 Z " fill="#CB0001" transform="translate(257,273)"/>
<path d="M0 0 C0.66 0 1.32 0 2 0 C2.33 1.65 2.66 3.3 3 5 C2.34 5 1.68 5 1 5 C0.67 5.66 0.34 6.32 0 7 C-0.38133299 5.0085944 -0.71325582 3.00720923 -1 1 C-0.67 0.67 -0.34 0.34 0 0 Z " fill="#6DC2EC" transform="translate(453,241)"/>
<path d="M0 0 C0.99 0 1.98 0 3 0 C2.67 1.65 2.34 3.3 2 5 C0.35 4.67 -1.3 4.34 -3 4 C-2.67 3.34 -2.34 2.68 -2 2 C-1.34 2 -0.68 2 0 2 C0 1.34 0 0.68 0 0 Z " fill="#F69495" transform="translate(368,190)"/>
<path d="M0 0 C0.33 0.99 0.66 1.98 1 3 C3.31 3 5.62 3 8 3 C8 3.33 8 3.66 8 4 C4.7 4.33 1.4 4.66 -2 5 C-1 2 -1 2 0 0 Z " fill="#52A2D5" transform="translate(618,0)"/>
</svg>
